<svg width="88" height="88" viewBox="0 0 88 88" fill="none" xmlns="http://www.w3.org/2000/svg">
<rect width="88" height="88" rx="4" fill="#F7F9FA"/>
<path d="M37 40C38.625 40 40 38.6875 40 37C40 35.375 38.625 34 37 34C35.3125 34 34 35.375 34 37C34 38.6875 35.3125 40 37 40ZM37 36C37.5 36 38 36.5 38 37C38 37.5625 37.5 38 37 38C36.4375 38 36 37.5625 36 37C36 36.5 36.4375 36 37 36ZM56 30H32C30.875 30 30 30.9375 30 32V56C30 57.125 30.875 58 32 58H56C57.0625 58 58 57.125 58 56V32C58 30.9375 57.0625 30 56 30ZM56 56H32V51H56V56ZM35.3125 49L38.5625 44.6875L41.0625 48L40.3125 49H35.3125ZM42.8125 49L47.5625 42.6875L52.3125 49H42.8125ZM56 49H54.8125L48.375 40.4375C47.9375 39.9375 47.125 39.9375 46.75 40.4375L42.3125 46.375L39.375 42.4375C38.9375 41.9375 38.125 41.9375 37.75 42.4375L32.8125 49H32V32H56V49Z" fill="#C9CED4"/>
</svg>
