<svg width="428" height="464" viewBox="0 0 428 464" fill="none" xmlns="http://www.w3.org/2000/svg">
<mask id="mask0" mask-type="alpha" maskUnits="userSpaceOnUse" x="0" y="0" width="428" height="464">
<rect width="428" height="464" rx="6" fill="white"/>
</mask>
<g mask="url(#mask0)">
<path opacity="0.6" fill-rule="evenodd" clip-rule="evenodd" d="M658.958 79.8625C638.097 -1.02269 558.479 -49.2919 481.134 -27.9508C454.398 -20.6066 430.291 -5.40853 411.729 15.8057C396.102 33.6414 370.229 37.0326 350.602 24.0923C305.031 -5.95839 248.163 -16.9445 192.185 -1.48604C85.3697 27.9805 22.1585 142.388 50.9593 254.049C76.3321 352.414 164.637 415.833 258.298 409.407C263.713 409.014 269.016 411.132 272.77 415.188C316.309 462.665 382.493 484.711 447.418 466.809C527.484 444.715 579.976 368.867 579.022 286.101C578.869 269.443 586.812 253.818 600.168 244.507C650.063 209.574 675.527 144.087 658.958 79.8625Z" fill="url(#paint0_linear)"/>
</g>
<path fill-rule="evenodd" clip-rule="evenodd" d="M386.124 211.01C386.124 286.97 327.714 349.29 253.364 355.5C249.324 355.84 245.254 356.01 241.134 356.01C212.544 356.01 185.904 347.74 163.444 333.46C145.804 322.25 130.754 307.33 119.384 289.8C114.424 282.14 110.154 274 106.694 265.45C99.884 248.65 96.134 230.28 96.134 211.02C96.124 130.92 161.044 66 241.124 66C321.204 66 386.124 130.92 386.124 211.01Z" fill="url(#paint1_linear)"/>
<path fill-rule="evenodd" clip-rule="evenodd" d="M253.124 352.73C249.164 353.06 245.164 353.23 241.124 353.23C213.084 353.23 186.944 345.12 164.914 331.11C165.304 322.95 165.064 314.93 163.274 310.46C158.624 298.84 142.314 271.85 142.314 271.85C142.314 271.85 133.154 279.15 121.694 288.28C107.884 299.28 90.7441 312.93 82.2741 319.68C79.0841 322.22 74.6941 322.64 71.0841 320.75C70.8941 320.65 70.7141 320.55 70.5141 320.45C67.5841 318.92 65.5741 316.07 65.1041 312.79C64.6341 309.51 65.7741 306.21 68.1541 303.92C78.8741 293.61 95.9241 277.2 109.244 264.39C120.384 253.67 128.914 245.46 128.914 245.46C128.914 245.46 151.904 231.17 162.334 224.68C165.674 222.6 167.744 218.99 167.864 215.06C168.044 205.61 166.904 192.31 166.904 192.31L188.164 186.05C190.624 195.03 195.084 204.16 198.034 209.68C199.804 212.96 203.024 215.22 206.704 215.75C217.194 217.26 238.424 220.33 238.424 220.33L236.234 295.16L253.124 352.73Z" fill="#B3F0EF"/>
<path fill-rule="evenodd" clip-rule="evenodd" d="M160.244 225.98L162.334 224.68C165.674 222.6 167.754 218.99 167.874 215.06C168.054 205.61 166.914 192.31 166.914 192.31L188.174 186.05C190.634 195.03 195.084 204.16 198.044 209.68C199.814 212.96 203.024 215.21 206.714 215.75L211.954 216.51L211.174 219.72C209.954 224.72 206.054 228.62 201.054 229.83C194.504 231.42 185.384 233.64 179.064 235.18C174.504 236.29 169.694 235 166.304 231.76L160.244 225.98Z" fill="url(#paint2_linear)"/>
<path fill-rule="evenodd" clip-rule="evenodd" d="M141.284 259.78C141.284 259.78 143.554 275.36 143.214 288.58C143.114 292.13 144.504 295.56 147.034 298.06C149.564 300.55 153.024 301.88 156.564 301.73C176.704 300.82 212.904 297.31 241.394 284.24C247.774 281.33 250.634 273.83 247.794 267.41C244.444 259.76 240.114 248.84 236.944 237.44C236.944 237.43 153.244 248.82 141.284 259.78Z" fill="url(#paint3_linear)"/>
<path fill-rule="evenodd" clip-rule="evenodd" d="M237.174 249.43C237.174 249.43 302.504 328.04 345.254 322.53C388.004 317.01 376.304 242.29 376.304 242.29L310.184 216.35C310.184 216.35 307.524 248.43 296.224 255.23C284.924 262.03 238.414 220.33 238.414 220.33L237.174 249.43Z" fill="#B3F0EF"/>
<path d="M181.984 198.706C201.683 191.825 212.798 172.352 206.811 155.214C200.824 138.075 180.002 129.759 160.303 136.641C140.604 143.522 129.488 162.994 135.475 180.133C141.462 197.272 162.285 205.587 181.984 198.706Z" fill="#350302"/>
<path fill-rule="evenodd" clip-rule="evenodd" d="M195.204 160.3C197.964 160.12 200.474 164.35 200.824 169.74C201.174 175.13 199.214 179.65 196.464 179.83C193.704 180.01 191.184 175.78 190.844 170.39C190.494 165 192.454 160.48 195.204 160.3Z" fill="#901500"/>
<path d="M194.054 170.7C193.974 171.11 193.934 171.57 193.964 172.06C194.074 173.7 194.834 174.99 195.674 174.94C195.714 174.94 195.754 174.92 195.794 174.91C194.914 174.18 194.224 172.6 194.054 170.7Z" fill="#751104"/>
<path d="M199.214 170.1C199.034 167.3 197.724 165.11 196.294 165.2C194.864 165.29 193.844 167.64 194.024 170.44C194.034 170.53 194.044 170.61 194.054 170.7C194.244 169.72 194.704 169.02 195.294 168.98C196.134 168.93 196.904 170.21 197.004 171.86C197.104 173.42 196.564 174.73 195.794 174.9C196.154 175.2 196.544 175.36 196.944 175.34C198.374 175.25 199.394 172.9 199.214 170.1Z" fill="#751104"/>
<path fill-rule="evenodd" clip-rule="evenodd" d="M155.174 191.65C157.644 190.42 157.694 185.49 155.294 180.66C152.884 175.83 148.924 172.9 146.454 174.14C143.984 175.37 143.934 180.29 146.334 185.13C148.734 189.97 152.704 192.88 155.174 191.65Z" fill="#901500"/>
<path fill-rule="evenodd" clip-rule="evenodd" d="M153.744 186.97C153.064 187.29 151.964 186.53 151.304 185.28C150.634 184.03 150.654 182.76 151.334 182.44C151.854 182.2 152.604 182.58 153.234 183.32C153.174 183.18 153.124 183.05 153.054 182.91C151.854 180.49 149.874 179.03 148.634 179.65C147.394 180.27 147.374 182.73 148.574 185.14C149.774 187.56 151.764 189.02 152.994 188.4C153.494 188.15 153.784 187.59 153.884 186.87C153.844 186.91 153.794 186.95 153.744 186.97Z" fill="#751104"/>
<path fill-rule="evenodd" clip-rule="evenodd" d="M112.274 107.11C123.104 99.67 137.464 101.75 144.334 111.74C151.204 121.74 147.984 135.89 137.164 143.33C126.334 150.77 111.974 148.69 105.104 138.7C98.2342 128.7 101.444 114.55 112.274 107.11Z" fill="#350302"/>
<path fill-rule="evenodd" clip-rule="evenodd" d="M376.314 242.3L310.194 216.36C310.194 216.36 307.534 248.44 296.234 255.24C293.454 256.91 288.524 255.62 282.664 252.72C282.214 253.84 281.754 254.96 281.294 256.08C278.514 265.69 275.034 275.15 270.934 284.26C293.244 304.49 322.464 325.47 345.254 322.53C388.014 317.02 376.314 242.3 376.314 242.3Z" fill="#600700"/>
<path fill-rule="evenodd" clip-rule="evenodd" d="M124.684 134.97C124.684 134.97 112.734 154.74 123.344 163.61C133.954 172.48 151.754 177.71 162.814 190.84L191.654 189.9C191.654 189.9 193.344 166.52 200.874 155.72C208.414 144.91 212.354 130.22 204.504 118.58C196.654 106.94 174.774 108.73 174.774 108.73C174.774 108.73 151.374 101.72 138.804 111.58C138.804 111.58 128.494 119.52 124.684 134.97Z" fill="#480703"/>
<path fill-rule="evenodd" clip-rule="evenodd" d="M143.344 152.3C143.344 152.3 154.624 189.56 159.524 204.78C160.194 206.82 161.934 208.33 164.044 208.71C170.234 209.74 183.694 210.57 196.624 201.93C198.494 200.68 199.484 198.48 199.174 196.25C197.854 186.78 194.044 159.88 190.874 141.41C190.874 141.41 166.614 133.29 143.344 152.3Z" fill="#A83014"/>
<path fill-rule="evenodd" clip-rule="evenodd" d="M192.304 150.01C191.824 147.02 191.344 144.12 190.874 141.41C190.874 141.41 166.614 133.29 143.344 152.29C143.344 152.29 144.774 157.02 146.834 163.78C157.504 164.71 180.814 164.81 192.304 150.01Z" fill="#8E220D"/>
<path fill-rule="evenodd" clip-rule="evenodd" d="M186.864 185.49C186.704 189.22 186.344 198.4 179.984 199.81C173.444 201.26 168.704 193.47 167.024 190.27C166.504 189.29 167.154 188.1 168.254 187.99C171.294 187.69 177.234 186.79 184.204 184.18C184.374 184.11 184.544 184.05 184.724 183.98C185.774 183.57 186.914 184.37 186.864 185.49Z" fill="#E66150"/>
<path fill-rule="evenodd" clip-rule="evenodd" d="M137.944 155.51C137.944 155.51 174.694 169.85 195.484 144.87C195.494 144.87 168.024 119.01 137.944 155.51Z" fill="#480703"/>
<path fill-rule="evenodd" clip-rule="evenodd" d="M174.394 167.89C174.204 167.06 173.394 166.53 172.564 166.69C171.734 166.85 171.174 167.64 171.304 168.48C171.784 171.59 172.904 178.73 173.454 182.29C173.544 182.84 173.844 183.33 174.294 183.65C174.744 183.97 175.314 184.09 175.854 183.99C176.404 183.89 176.884 183.57 177.184 183.1C177.484 182.64 177.594 182.07 177.464 181.53C176.684 178.01 175.094 170.96 174.394 167.89Z" fill="url(#paint4_linear)"/>
<path fill-rule="evenodd" clip-rule="evenodd" d="M164.224 173.97C164.134 173.51 163.854 173.11 163.464 172.85C163.074 172.59 162.594 172.5 162.134 172.6C161.674 172.69 161.274 172.97 161.014 173.36C160.754 173.75 160.664 174.23 160.764 174.69C160.964 175.64 161.204 176.81 161.404 177.76C161.504 178.22 161.774 178.62 162.164 178.88C162.554 179.14 163.034 179.23 163.494 179.13C163.954 179.03 164.354 178.76 164.614 178.37C164.874 177.98 164.964 177.5 164.864 177.04C164.664 176.09 164.424 174.92 164.224 173.97Z" fill="#560D03"/>
<path d="M180.984 172.56C180.584 172.7 183.574 168.16 188.894 170.8" stroke="#1B0101" stroke-width="1.8293" stroke-miterlimit="10" stroke-linecap="round" stroke-linejoin="round"/>
<path fill-rule="evenodd" clip-rule="evenodd" d="M186.864 185.49C186.704 189.22 185.534 196.16 179.174 197.57C172.634 199.02 168.704 193.47 167.024 190.27C166.504 189.29 167.154 188.1 168.254 187.99C171.294 187.69 177.234 186.79 184.204 184.18C184.374 184.11 184.544 184.05 184.724 183.98C185.774 183.57 186.914 184.37 186.864 185.49Z" fill="#560D03"/>
<path d="M169.134 189.09C171.904 193.03 174.824 194.67 178.054 194.08C182.094 193.33 183.344 189.21 183.654 185.61C177.474 187.84 172.184 188.73 169.134 189.09Z" fill="url(#paint5_linear)"/>
<path fill-rule="evenodd" clip-rule="evenodd" d="M241.124 96.07L245.034 92.16C247.714 89.48 251.364 87.97 255.154 87.97C258.954 87.97 262.594 89.48 265.274 92.16C267.954 94.84 269.464 98.49 269.464 102.28C269.464 106.08 267.954 109.72 265.274 112.4L261.364 116.31L261.384 116.33L241.134 136.58L241.114 136.56L241.094 136.58L220.844 116.33L220.864 116.31L216.954 112.4C214.274 109.72 212.764 106.07 212.764 102.28C212.764 98.48 214.274 94.84 216.954 92.16C222.544 86.57 231.614 86.57 237.204 92.16L241.124 96.07Z" stroke="white" stroke-width="2" stroke-miterlimit="10"/>
<path fill-rule="evenodd" clip-rule="evenodd" d="M134.414 150.23C134.414 150.23 179.534 162.99 197.234 133.45C197.234 133.46 170.574 152.28 134.414 150.23Z" fill="#6D0907"/>
<path fill-rule="evenodd" clip-rule="evenodd" d="M78.5342 300.38C72.9242 299.38 67.4542 302.72 65.7942 308.17C64.7442 311.6 65.3842 315.33 67.5242 318.22C69.6642 321.11 73.0342 322.81 76.6342 322.81H123.744L125.944 308.85C125.934 308.86 94.8942 303.31 78.5342 300.38Z" fill="#DCFFFD"/>
<path fill-rule="evenodd" clip-rule="evenodd" d="M123.484 308.6L143.874 308.69L153.624 302.65C155.204 302.03 156.994 302.2 158.434 303.1L160.394 304.33L163.484 304.76C165.484 305.04 166.974 306.75 166.964 308.77L166.924 322.95C166.914 325.49 164.604 327.39 162.114 326.9L141.334 322.81H120.774L123.484 308.6Z" fill="#A11800"/>
<path fill-rule="evenodd" clip-rule="evenodd" d="M163.484 304.76L161.514 304.49C161.424 311.94 161.704 319.39 161.824 326.84L162.114 326.9C164.604 327.39 166.924 325.49 166.924 322.95L166.964 308.77C166.974 306.75 165.484 305.04 163.484 304.76Z" fill="#750E00"/>
<path fill-rule="evenodd" clip-rule="evenodd" d="M244.644 189.25C241.954 204.39 246.194 230.76 251.044 237.28C284.654 282.42 266.104 216.56 268.784 201.43C271.474 186.29 270.164 171.28 262.064 171.97C254.164 172.63 247.334 174.12 244.644 189.25Z" fill="url(#paint6_linear)"/>
<path fill-rule="evenodd" clip-rule="evenodd" d="M399.004 123.9C399.574 120.97 398.964 117.94 397.294 115.47C395.614 113 393.044 111.29 390.114 110.72C367.864 106.4 317.864 96.69 295.614 92.37C292.684 91.8 289.654 92.42 287.184 94.09C284.714 95.76 283.004 98.34 282.434 101.27C275.314 137.96 252.484 255.55 245.354 292.24C244.784 295.17 245.404 298.2 247.074 300.67C248.744 303.14 251.324 304.85 254.254 305.42C276.504 309.74 326.504 319.45 348.754 323.77C351.684 324.34 354.714 323.72 357.194 322.05C359.664 320.38 361.364 317.8 361.934 314.87C369.054 278.18 391.884 160.59 399.004 123.9Z" fill="#DC4513"/>
<path fill-rule="evenodd" clip-rule="evenodd" d="M323.514 101.85C324.684 102.08 325.724 102.76 326.384 103.75C327.054 104.74 327.304 105.95 327.074 107.13C326.814 108.48 326.514 110.04 326.194 111.67C324.674 119.49 329.784 127.06 337.604 128.58C345.424 130.1 352.994 124.99 354.514 117.17C354.834 115.54 355.134 113.97 355.394 112.63C355.624 111.46 356.304 110.42 357.304 109.76C358.294 109.09 359.514 108.84 360.674 109.07C369.694 110.82 389.344 114.64 389.344 114.64C391.244 115.01 392.914 116.11 393.984 117.71C395.054 119.31 395.464 121.27 395.094 123.16L358.024 314.11C357.654 316 356.544 317.67 354.954 318.75C353.354 319.83 351.394 320.23 349.494 319.86C327.244 315.54 277.244 305.83 254.994 301.51C253.104 301.14 251.434 300.04 250.354 298.44C249.274 296.84 248.874 294.88 249.244 292.99C256.364 256.3 279.194 138.71 286.324 102.02C286.694 100.13 287.794 98.46 289.394 97.38C290.994 96.3 292.954 95.9 294.844 96.27C294.844 96.28 314.504 100.1 323.514 101.85Z" fill="white"/>
<path d="M366.684 194.31C365.624 191.38 362.374 189.86 359.444 190.92C356.834 191.87 355.354 194.55 355.814 197.2L349.154 199.61C345.744 189.83 337.304 182.11 326.394 180.17C321.474 179.3 316.614 179.7 312.164 181.15L307.304 167.73C309.514 166.34 310.544 163.56 309.614 161.01C308.554 158.08 305.304 156.56 302.364 157.62C299.434 158.68 297.914 161.93 298.974 164.87C299.934 167.51 302.654 168.99 305.324 168.48L310.164 181.87C301.034 185.56 293.934 193.72 292.094 204.11C291.134 209.54 291.724 214.9 293.554 219.71L286.884 222.12C285.514 219.86 282.704 218.81 280.124 219.74C277.194 220.8 275.674 224.05 276.734 226.99C277.794 229.92 281.044 231.44 283.984 230.38C286.594 229.43 288.074 226.75 287.614 224.1L294.374 221.66C298.304 230.14 306.164 236.64 316.044 238.39C320.964 239.26 325.814 238.85 330.264 237.41L335.104 250.8C332.764 252.14 331.644 255 332.604 257.62C333.664 260.55 336.914 262.07 339.844 261.01C342.774 259.95 344.294 256.7 343.234 253.76C342.304 251.19 339.694 249.71 337.094 250.09L332.244 236.68C341.374 232.99 348.464 224.83 350.314 214.44C351.094 210.03 350.844 205.68 349.754 201.62L356.514 199.17C357.884 201.43 360.694 202.48 363.274 201.55C366.224 200.49 367.754 197.25 366.684 194.31ZM316.614 235.27C302.274 232.73 292.684 218.99 295.234 204.66C297.774 190.33 311.514 180.74 325.844 183.28C340.174 185.82 349.764 199.55 347.224 213.89C344.674 228.23 330.944 237.82 316.614 235.27Z" fill="#DC4513"/>
<path d="M325.304 194.2C325.114 193.66 324.654 193.26 324.084 193.16C323.514 193.06 322.944 193.27 322.584 193.72L303.684 216.92C303.134 217.6 303.234 218.59 303.914 219.15C304.134 219.33 304.384 219.44 304.634 219.48C305.184 219.58 305.764 219.38 306.144 218.92L311.274 212.62L329.414 215.84L332.064 223.52C332.344 224.35 333.244 224.78 334.074 224.5C334.904 224.21 335.344 223.31 335.054 222.49L325.304 194.2ZM313.564 209.8L323.244 197.92L328.234 212.4L313.564 209.8Z" fill="#DC4513"/>
<path fill-rule="evenodd" clip-rule="evenodd" d="M244.934 186.81C243.234 196.39 247.734 211.99 255.734 213.41C263.744 214.83 269.314 201.02 271.014 191.44C272.714 181.86 270.514 173.46 262.514 172.04C254.504 170.62 246.634 177.23 244.934 186.81Z" fill="url(#paint7_linear)"/>
<path fill-rule="evenodd" clip-rule="evenodd" d="M408.234 179.74C406.254 190.91 395.824 206.31 387.344 204.81C378.864 203.31 378.634 186.01 380.614 174.84C382.594 163.67 387.994 155.29 396.474 156.8C404.944 158.3 410.214 168.57 408.234 179.74Z" fill="url(#paint8_linear)"/>
<path fill-rule="evenodd" clip-rule="evenodd" d="M400.474 208.19C398.684 218.3 389.204 235.51 381.534 234.15C373.864 232.79 373.684 213.86 375.474 203.75C377.264 193.64 382.154 186.06 389.824 187.42C397.494 188.78 402.264 198.08 400.474 208.19Z" fill="url(#paint9_linear)"/>
<path fill-rule="evenodd" clip-rule="evenodd" d="M395.804 234.51C394.014 244.62 384.444 262.36 376.774 260.99C369.104 259.63 369.014 240.17 370.814 230.07C372.604 219.96 377.494 212.38 385.164 213.74C392.824 215.11 397.594 224.4 395.804 234.51Z" fill="url(#paint10_linear)"/>
<path fill-rule="evenodd" clip-rule="evenodd" d="M384.694 264.98C383.294 272.86 376.144 284.99 370.164 283.92C364.184 282.86 363.814 269.39 365.214 261.52C366.614 253.64 370.414 247.73 376.394 248.8C382.384 249.86 386.094 257.1 384.694 264.98Z" fill="url(#paint11_linear)"/>
<path fill-rule="evenodd" clip-rule="evenodd" d="M341.684 109.7C345.454 110.43 347.924 114.09 347.194 117.86C346.464 121.63 342.804 124.09 339.034 123.36C335.264 122.63 332.804 118.97 333.534 115.21C334.264 111.43 337.914 108.97 341.684 109.7Z" fill="#860E00"/>
<path fill-rule="evenodd" clip-rule="evenodd" d="M341.304 111.47C342.794 111.76 343.764 113.2 343.474 114.68C343.184 116.17 341.744 117.14 340.254 116.85C338.764 116.56 337.794 115.12 338.084 113.64C338.374 112.16 339.814 111.18 341.304 111.47Z" fill="white"/>
<defs>
<linearGradient id="paint0_linear" x1="-284.032" y1="368.245" x2="500.3" y2="817.214" gradientUnits="userSpaceOnUse">
<stop stop-color="#DFE2E6" stop-opacity="0"/>
<stop offset="0.3078" stop-color="#DFE2E6"/>
<stop offset="0.471725" stop-color="#DFE2E6" stop-opacity="0.26"/>
<stop offset="0.74" stop-color="#DFE2E6"/>
<stop offset="1" stop-color="#ECB712"/>
</linearGradient>
<linearGradient id="paint1_linear" x1="96.1203" y1="211" x2="386.12" y2="211" gradientUnits="userSpaceOnUse">
<stop stop-color="#697FCF"/>
<stop offset="1" stop-color="#70C0C3"/>
</linearGradient>
<linearGradient id="paint2_linear" x1="179.523" y1="199.251" x2="187.061" y2="224.474" gradientUnits="userSpaceOnUse">
<stop stop-color="#480703"/>
<stop offset="0.2841" stop-color="#6C0E02"/>
<stop offset="0.5711" stop-color="#891301"/>
<stop offset="0.8198" stop-color="#9B1700"/>
<stop offset="1" stop-color="#A11800"/>
</linearGradient>
<linearGradient id="paint3_linear" x1="189.392" y1="251.534" x2="209.721" y2="340.774" gradientUnits="userSpaceOnUse">
<stop stop-color="#B3F0EF"/>
<stop offset="1" stop-color="white"/>
</linearGradient>
<linearGradient id="paint4_linear" x1="177.443" y1="190.798" x2="171.055" y2="161.992" gradientUnits="userSpaceOnUse">
<stop stop-color="#480703"/>
<stop offset="0.2841" stop-color="#6C0E02"/>
<stop offset="0.5711" stop-color="#891301"/>
<stop offset="0.8198" stop-color="#9B1700"/>
<stop offset="1" stop-color="#A11800"/>
</linearGradient>
<linearGradient id="paint5_linear" x1="176.306" y1="186.989" x2="179.206" y2="197.993" gradientUnits="userSpaceOnUse">
<stop stop-color="white" stop-opacity="0"/>
<stop offset="1" stop-color="white"/>
</linearGradient>
<linearGradient id="paint6_linear" x1="264.46" y1="181.577" x2="248.586" y2="270.993" gradientUnits="userSpaceOnUse">
<stop stop-color="#480703"/>
<stop offset="0.2841" stop-color="#6C0E02"/>
<stop offset="0.5711" stop-color="#891301"/>
<stop offset="0.8198" stop-color="#9B1700"/>
<stop offset="1" stop-color="#A11800"/>
</linearGradient>
<linearGradient id="paint7_linear" x1="279.418" y1="196.332" x2="237.553" y2="188.899" gradientUnits="userSpaceOnUse">
<stop stop-color="#480703"/>
<stop offset="0.2841" stop-color="#6C0E02"/>
<stop offset="0.5711" stop-color="#891301"/>
<stop offset="0.8198" stop-color="#9B1700"/>
<stop offset="1" stop-color="#A11800"/>
</linearGradient>
<linearGradient id="paint8_linear" x1="389.462" y1="205.178" x2="398.004" y2="157.065" gradientUnits="userSpaceOnUse">
<stop stop-color="#480703"/>
<stop offset="0.2841" stop-color="#6C0E02"/>
<stop offset="0.5711" stop-color="#891301"/>
<stop offset="0.8198" stop-color="#9B1700"/>
<stop offset="1" stop-color="#A11800"/>
</linearGradient>
<linearGradient id="paint9_linear" x1="382.923" y1="234.397" x2="391.218" y2="187.672" gradientUnits="userSpaceOnUse">
<stop stop-color="#480703"/>
<stop offset="0.2841" stop-color="#6C0E02"/>
<stop offset="0.5711" stop-color="#891301"/>
<stop offset="0.8198" stop-color="#9B1700"/>
<stop offset="1" stop-color="#A11800"/>
</linearGradient>
<linearGradient id="paint10_linear" x1="378.157" y1="261.243" x2="386.545" y2="213.991" gradientUnits="userSpaceOnUse">
<stop stop-color="#480703"/>
<stop offset="0.2841" stop-color="#6C0E02"/>
<stop offset="0.5711" stop-color="#891301"/>
<stop offset="0.8198" stop-color="#9B1700"/>
<stop offset="1" stop-color="#A11800"/>
</linearGradient>
<linearGradient id="paint11_linear" x1="371.25" y1="284.117" x2="377.486" y2="248.991" gradientUnits="userSpaceOnUse">
<stop stop-color="#480703"/>
<stop offset="0.2841" stop-color="#6C0E02"/>
<stop offset="0.5711" stop-color="#891301"/>
<stop offset="0.8198" stop-color="#9B1700"/>
<stop offset="1" stop-color="#A11800"/>
</linearGradient>
</defs>
</svg>
