<svg width="352" height="389" viewBox="0 0 352 389" fill="none" xmlns="http://www.w3.org/2000/svg">
<mask id="mask0" mask-type="alpha" maskUnits="userSpaceOnUse" x="0" y="0" width="352" height="389">
<rect width="352" height="389" rx="6" fill="white"/>
</mask>
<g mask="url(#mask0)">
<path opacity="0.6" fill-rule="evenodd" clip-rule="evenodd" d="M575.584 22.4647C557.314 -45.952 487.584 -86.7805 419.845 -68.7292C396.429 -62.5171 375.316 -49.6618 359.059 -31.7177C345.373 -16.6314 322.713 -13.7629 305.524 -24.7085C265.613 -50.1269 215.807 -59.4195 166.781 -46.3439C73.2318 -21.4197 17.8711 75.352 43.095 169.801C65.3166 253.003 142.654 306.645 224.683 301.21C229.426 300.877 234.071 302.669 237.358 306.1C275.49 346.258 333.455 364.906 390.316 349.763C460.439 331.075 506.411 266.919 505.576 196.912C505.441 182.821 512.398 169.605 524.095 161.729C567.794 132.181 590.095 76.7891 575.584 22.4647Z" fill="url(#paint0_linear)"/>
</g>
<path d="M188.88 102.505L188.71 102.595C181.64 106.135 173.24 101.985 171.56 94.2653C170.37 88.7753 168.48 83.3453 165.85 78.0853C148.57 43.5653 106.23 29.8752 71.9402 48.0553C71.8402 48.1153 71.7302 48.1653 71.6302 48.2253C51.5402 59.0052 38.7302 79.9552 38.3002 102.755C38.3002 102.875 38.3002 102.995 38.2902 103.105C37.7602 141.915 69.2502 173.355 107.84 172.975C113.72 172.915 119.41 172.125 124.84 170.685C132.48 168.655 140.01 174.245 140.08 182.145V182.335C140.61 236.845 185.23 280.605 239.74 280.065C240.07 280.065 240.41 280.055 240.74 280.055C307.97 278.735 351.24 207.925 321.75 147.495C321.6 147.195 321.46 146.895 321.31 146.595C296.92 97.8553 237.63 78.1152 188.88 102.505Z" fill="url(#paint1_linear)"/>
<path opacity="0.2" fill-rule="evenodd" clip-rule="evenodd" d="M220.54 251.035H319.09C328.42 251.035 335.98 243.475 335.98 234.145V155.945C335.98 146.615 328.42 139.055 319.09 139.055H220.54C211.21 139.055 203.65 146.615 203.65 155.945V234.145C203.65 243.475 211.21 251.035 220.54 251.035Z" fill="white"/>
<path fill-rule="evenodd" clip-rule="evenodd" d="M153.57 181.475L126.56 255.215H182.86L153.57 181.475Z" fill="#D5E2F7"/>
<path fill-rule="evenodd" clip-rule="evenodd" d="M153.57 181.475C153.57 181.475 189.41 161.185 210.97 152.335C210.97 152.335 253.6 150.595 285.09 152.335C285.09 152.335 308.31 261.185 310.98 282.875L181.98 281.665L153.57 181.475Z" fill="white"/>
<path fill-rule="evenodd" clip-rule="evenodd" d="M302.71 237.565C300.25 225.225 297.56 212.005 295.02 199.745C239.73 232.715 174.54 199.555 155.52 188.385L159.09 200.955C213.4 239.825 274.29 240.125 302.71 237.565Z" fill="#E9F0FF"/>
<path fill-rule="evenodd" clip-rule="evenodd" d="M161.49 209.425L181.98 281.665L310.98 282.875C310.14 276.095 307.3 260.815 303.79 243.005C239.71 253.565 184.49 224.255 161.49 209.425Z" fill="#D5E2F7"/>
<path opacity="0.5" fill-rule="evenodd" clip-rule="evenodd" d="M318.59 270.025L306.67 215.135C305.12 209.035 298.92 205.345 292.82 206.895C286.72 208.445 283.03 214.645 284.58 220.745C287.36 231.935 289.03 241.535 290.77 251.005C287.64 249.375 284.45 247.735 281.24 246.125C264.95 237.945 248.62 230.225 239.67 226.055C234.09 221.085 224.39 215.305 212.06 219.275C211.69 219.245 211.31 219.295 210.94 219.425C210.94 219.425 204.61 221.785 195.89 228.725C192.08 231.765 187.8 235.675 183.39 240.675C182.63 241.495 182.68 242.785 183.51 243.545C184.33 244.305 185.62 244.255 186.38 243.425C190.8 238.845 195.05 235.295 198.82 232.555C203.9 228.875 208.05 226.725 210.48 225.635C210.49 225.655 210.51 225.675 210.52 225.695C208.24 227.645 205.46 230.145 202.39 233.135C198.48 236.955 194.13 241.555 189.83 246.825C189.1 247.675 189.21 248.955 190.06 249.685C190.91 250.415 192.19 250.305 192.92 249.455C197.31 244.505 201.73 240.205 205.68 236.655C208.6 234.025 211.27 231.825 213.47 230.075C213.7 230.425 213.93 230.785 214.16 231.145C212.39 232.795 210.33 234.815 208.05 237.235C204.74 240.725 200.97 245.025 196.96 250.175C196.25 251.045 196.38 252.325 197.25 253.025C198.12 253.735 199.4 253.605 200.1 252.735C204.23 247.895 208.09 243.875 211.47 240.625C213.48 238.685 215.31 237.035 216.91 235.645C217.23 236.185 217.54 236.735 217.84 237.275C217.62 237.525 217.4 237.765 217.18 238.025C214.69 240.935 211.75 244.965 208.73 250.495C208.16 251.465 208.49 252.705 209.45 253.275C210.42 253.845 211.66 253.515 212.23 252.555C214.73 248.575 217.13 245.485 219.26 243.085C219.86 242.405 220.44 241.795 221 241.225C222.49 241.085 225.44 240.705 229.03 239.745C236.57 244.455 253.49 254.965 270.77 265.235C281.77 271.775 293 278.015 301.7 283.095C305.76 285.365 310.79 284.985 314.47 282.135C318.14 279.295 319.77 274.525 318.59 270.025Z" fill="#748BBA"/>
<path fill-rule="evenodd" clip-rule="evenodd" d="M197.48 142.275V163.605C197.48 166.905 199.46 169.885 202.51 171.165C205.84 172.555 210.16 174.365 213.24 175.655C215.62 176.645 218.35 176.115 220.18 174.305C223.69 170.825 229.47 165.105 233.11 161.505C235.18 159.455 236 156.475 235.28 153.665C232.65 143.355 226.25 118.255 223.53 107.235L197.48 142.275Z" fill="url(#paint2_linear)"/>
<path fill-rule="evenodd" clip-rule="evenodd" d="M178.98 116.865C178.98 116.865 155.64 104.085 160.01 73.7152C160.15 72.7352 160.85 71.9252 161.8 71.6452C162.75 71.3652 163.78 71.6652 164.42 72.4152C167.52 75.9452 172.74 80.0452 179.61 78.8652C191.17 76.8752 233.65 68.5352 235.15 80.3652C236.65 92.1952 231.69 117.265 225.65 129.945L199.6 130.165L178.98 116.865Z" fill="#B57600"/>
<path fill-rule="evenodd" clip-rule="evenodd" d="M159.79 75.3853C160.95 83.3853 166.86 92.3553 181.28 93.6853C201.07 95.5053 216.74 78.3253 234.43 78.4353C234.81 79.0153 235.05 79.6553 235.14 80.3653C236.64 92.1953 231.68 117.265 225.64 129.945L199.59 130.165L178.97 116.865C178.98 116.865 156.49 104.555 159.79 75.3853Z" fill="#9A5F00"/>
<path fill-rule="evenodd" clip-rule="evenodd" d="M175.81 99.8353C178.85 99.9653 182.58 99.9652 186.75 99.6452C194.12 99.0852 204.99 97.5153 214.47 93.8653C216.62 93.0353 218.77 95.0553 218.05 97.2453C216.88 100.825 215.74 104.345 216.89 106.245C219.05 109.805 219.55 119.515 219.66 124.395C219.68 124.735 219.92 125.025 220.26 125.095C220.6 125.165 220.94 124.995 221.09 124.685C222.28 122.475 223.98 119.285 225.22 116.845C225.36 127.365 225.5 138.105 225.58 143.705C225.62 146.295 224.2 148.685 221.92 149.905C209.99 156.315 196.77 156.255 189.7 155.595C186.69 155.305 184.22 153.085 183.59 150.125C180.75 135.435 177.29 110.695 175.81 99.8353Z" fill="#F1B8A9"/>
<path fill-rule="evenodd" clip-rule="evenodd" d="M218.14 95.8952C217.85 94.3252 216.16 93.2153 214.47 93.8653C204.99 97.5053 194.12 99.0752 186.75 99.6452C182.58 99.9652 178.85 99.9653 175.81 99.8353C175.93 100.735 176.07 101.735 176.22 102.815C191.92 106.495 209.94 99.6552 218.14 95.8952Z" fill="#EAA89B"/>
<path fill-rule="evenodd" clip-rule="evenodd" d="M224.23 121.355C216.89 128.345 216.8 145.445 217.07 152.135C218.7 151.495 220.32 150.755 221.92 149.905C224.2 148.685 225.62 146.295 225.58 143.705C225.52 138.705 225.39 129.595 225.27 120.205C224.95 120.605 224.62 120.995 224.23 121.355Z" fill="#EAA89B"/>
<path fill-rule="evenodd" clip-rule="evenodd" d="M228.99 112.395C232.01 112.835 233.88 117.205 233.16 122.155C232.44 127.105 229.4 130.755 226.37 130.315C223.35 129.875 221.48 125.505 222.2 120.555C222.93 115.615 225.97 111.955 228.99 112.395Z" fill="#F1B8A9"/>
<path fill-rule="evenodd" clip-rule="evenodd" d="M226.01 119.545C226.64 117.535 227.88 116.185 229.08 116.355C230.55 116.575 231.42 118.985 231.01 121.745C230.61 124.505 229.09 126.575 227.62 126.355C226.91 126.255 226.35 125.635 225.99 124.725C226 124.725 226 124.725 226.01 124.725C226.84 124.845 227.69 123.725 227.91 122.235C228.13 120.735 227.63 119.425 226.8 119.305C226.53 119.265 226.26 119.355 226.01 119.545Z" fill="#CE6B5F"/>
<path fill-rule="evenodd" clip-rule="evenodd" d="M187.53 134.205C187.41 133.785 187.5 133.345 187.75 132.995C188.01 132.645 188.41 132.435 188.84 132.415C192.72 132.235 202.41 131.595 211.43 129.355C211.88 129.245 212.35 129.355 212.7 129.645C213.05 129.945 213.23 130.395 213.19 130.855C212.7 135.345 210.55 145.915 201.19 147.005C192.48 148.015 188.72 138.265 187.53 134.205Z" fill="#F8ECEC"/>
<path fill-rule="evenodd" clip-rule="evenodd" d="M187.58 134.245C187.45 133.825 187.52 133.365 187.78 133.015C188.03 132.655 188.44 132.435 188.88 132.425C192.78 132.245 202.4 131.605 211.38 129.385C211.83 129.265 212.32 129.385 212.67 129.695C213.02 130.005 213.19 130.475 213.13 130.935C212.52 135.105 210.14 144.195 200.99 145.265C192.46 146.245 188.79 137.975 187.58 134.245Z" fill="#BC4A3B"/>
<path fill-rule="evenodd" clip-rule="evenodd" d="M195.62 112.865C195.62 112.865 195.49 116.725 195.21 120.445C195.07 122.275 194.89 124.045 194.67 125.275C194.52 126.805 195.64 128.175 197.17 128.325C198.7 128.475 200.07 127.355 200.22 125.825C200.25 124.445 200.17 122.475 200.01 120.445C199.72 116.635 199.26 112.715 199.26 112.715C199.22 111.705 198.37 110.925 197.36 110.965C196.36 111.005 195.57 111.855 195.62 112.865Z" fill="url(#paint3_linear)"/>
<path fill-rule="evenodd" clip-rule="evenodd" d="M210.57 114.265C210.5 113.695 210.2 113.175 209.75 112.815C209.29 112.465 208.72 112.305 208.14 112.375C207.57 112.445 207.05 112.745 206.69 113.195C206.34 113.655 206.18 114.225 206.25 114.805C206.37 115.735 206.5 116.805 206.62 117.735C206.69 118.305 206.99 118.825 207.44 119.185C207.9 119.535 208.47 119.695 209.05 119.625C209.62 119.555 210.14 119.255 210.5 118.805C210.85 118.345 211.01 117.775 210.94 117.195C210.82 116.275 210.69 115.195 210.57 114.265Z" fill="#9A5F00"/>
<path fill-rule="evenodd" clip-rule="evenodd" d="M189.07 116.895C189 116.325 188.7 115.805 188.25 115.445C187.79 115.095 187.22 114.935 186.64 115.005C186.07 115.075 185.55 115.375 185.19 115.825C184.84 116.285 184.68 116.855 184.75 117.435C184.87 118.365 185 119.435 185.12 120.365C185.19 120.935 185.49 121.455 185.94 121.815C186.4 122.165 186.97 122.325 187.55 122.255C188.12 122.185 188.64 121.885 189 121.435C189.35 120.975 189.51 120.405 189.44 119.825C189.32 118.905 189.19 117.825 189.07 116.895Z" fill="#9A5F00"/>
<path fill-rule="evenodd" clip-rule="evenodd" d="M211.87 209.265C211.87 209.265 199.15 213.785 184.88 229.265Z" fill="#BCA3A3"/>
<path fill-rule="evenodd" clip-rule="evenodd" d="M210.93 206.635C210.93 206.635 204.6 208.995 195.88 215.935C192.07 218.975 187.79 222.885 183.38 227.885C182.62 228.705 182.67 229.995 183.5 230.755C184.32 231.515 185.61 231.465 186.37 230.635C190.79 226.055 195.04 222.505 198.81 219.765C207 213.825 212.81 211.885 212.81 211.885C214.26 211.365 215.02 209.775 214.51 208.325C213.98 206.875 212.38 206.115 210.93 206.635Z" fill="#F1B8A9"/>
<path fill-rule="evenodd" clip-rule="evenodd" d="M218.09 210.365C218.09 210.365 204.52 219.885 191.37 235.345Z" fill="#BCA3A3"/>
<path fill-rule="evenodd" clip-rule="evenodd" d="M216.49 208.085C216.49 208.085 210.36 212.565 202.39 220.355C198.48 224.175 194.13 228.775 189.83 234.045C189.1 234.895 189.21 236.175 190.06 236.905C190.91 237.635 192.19 237.525 192.92 236.675C197.31 231.725 201.73 227.425 205.68 223.875C213.64 216.715 219.7 212.665 219.7 212.665C220.96 211.785 221.27 210.035 220.38 208.775C219.49 207.505 217.75 207.195 216.49 208.085Z" fill="#F1B8A9"/>
<path fill-rule="evenodd" clip-rule="evenodd" d="M222.35 215.005C222.35 215.005 211.75 222.455 198.54 238.665Z" fill="#BCA3A3"/>
<path fill-rule="evenodd" clip-rule="evenodd" d="M220.74 212.715C220.74 212.715 215.59 216.485 208.05 224.445C204.74 227.935 200.97 232.235 196.96 237.385C196.25 238.255 196.38 239.535 197.25 240.235C198.12 240.945 199.4 240.815 200.1 239.945C204.23 235.105 208.09 231.085 211.47 227.835C218.94 220.635 223.95 217.285 223.95 217.285C225.21 216.395 225.51 214.655 224.63 213.395C223.75 212.135 222 211.835 220.74 212.715Z" fill="#F1B8A9"/>
<path fill-rule="evenodd" clip-rule="evenodd" d="M226.42 220.655C226.42 220.655 218.99 224.255 210.48 238.735Z" fill="#BCA3A3"/>
<path fill-rule="evenodd" clip-rule="evenodd" d="M225.21 218.145C226.6 217.475 228.27 218.055 228.94 219.445C229.61 220.835 229.03 222.505 227.64 223.175C227.64 223.175 224.2 224.755 219.27 230.305C217.14 232.705 214.74 235.795 212.24 239.775C211.67 240.745 210.43 241.065 209.46 240.495C208.5 239.925 208.17 238.685 208.74 237.715C211.76 232.185 214.69 228.155 217.19 225.245C221.86 219.785 225.21 218.145 225.21 218.145Z" fill="#F1B8A9"/>
<path fill-rule="evenodd" clip-rule="evenodd" d="M290.77 238.215C289.03 228.745 287.36 219.145 284.58 207.955C283.03 201.855 286.73 195.655 292.82 194.105C298.92 192.555 305.12 196.255 306.67 202.345L318.59 257.235C319.77 261.735 318.14 266.505 314.46 269.355C310.78 272.205 305.76 272.585 301.69 270.315C293 265.235 281.77 258.995 270.76 252.455C247.53 238.655 224.94 224.405 224.94 224.405C220.98 222.255 219.5 217.305 221.65 213.335C223.8 209.375 228.75 207.895 232.72 210.045C232.72 210.045 257.05 221.195 281.23 233.335C284.44 234.935 287.64 236.575 290.77 238.215Z" fill="#F1B8A9"/>
<path fill-rule="evenodd" clip-rule="evenodd" d="M285.29 152.335C285.29 152.335 311.09 187.175 322.75 219.185C323.04 220.015 322.96 220.925 322.51 221.695C322.07 222.455 321.31 222.985 320.45 223.135C312.28 224.605 291.91 228.265 284.45 229.615C282.88 229.895 281.37 228.905 281 227.355C278.26 215.295 268.61 167.285 285.29 152.335Z" fill="#E9F0FF"/>
<path fill-rule="evenodd" clip-rule="evenodd" d="M136 158.965C135.5 157.585 134.19 156.665 132.72 156.665C119.61 156.665 57.6102 156.665 39.4902 156.665C38.3502 156.665 37.2802 157.225 36.6302 158.155C35.9802 159.085 35.8202 160.285 36.2102 161.355C42.1702 177.725 61.9202 232.005 66.2402 243.855C66.7402 245.235 68.0502 246.155 69.5202 246.155C82.6302 246.155 144.63 246.155 162.75 246.155C163.89 246.155 164.96 245.595 165.61 244.665C166.26 243.735 166.42 242.535 166.03 241.465C160.07 225.095 140.31 170.825 136 158.965Z" fill="#DC4513"/>
<path d="M131.66 163.795L160.09 239.025" stroke="white" stroke-width="2" stroke-miterlimit="10" stroke-linecap="round" stroke-linejoin="round"/>
<path fill-rule="evenodd" clip-rule="evenodd" d="M232.71 249.035C232.71 247.445 231.42 246.155 229.83 246.155C209.71 246.155 90.4202 246.155 70.3102 246.155C68.7202 246.155 67.4302 247.445 67.4302 249.035C67.4302 250.625 68.7202 251.915 70.3102 251.915C90.4302 251.915 209.72 251.915 229.83 251.915C231.42 251.915 232.71 250.625 232.71 249.035Z" fill="#DC4513"/>
<path fill-rule="evenodd" clip-rule="evenodd" d="M45.5902 329.225H261.19V251.915H60.1302C52.1002 251.915 45.5902 258.425 45.5902 266.455V329.225V329.225Z" fill="#E9F0FF"/>
<path fill-rule="evenodd" clip-rule="evenodd" d="M184.72 329.225H312.91V266.455C312.91 258.425 306.4 251.915 298.37 251.915H198.32C190.81 251.915 184.73 258.005 184.73 265.505V329.225H184.72Z" fill="#BBCCF3"/>
<path d="M140.87 84.1353C139.52 81.7953 136.52 80.9853 134.18 82.3453C132.09 83.5553 131.24 86.0553 132.03 88.2453L126.72 91.3053C122.33 83.4753 113.96 78.1753 104.37 78.1753C100.04 78.1753 95.9602 79.2553 92.3802 81.1653L86.2102 70.4553C87.8802 68.9353 88.3402 66.4153 87.1602 64.3753C85.8102 62.0353 82.8102 61.2253 80.4702 62.5853C78.1302 63.9353 77.3202 66.9353 78.6802 69.2753C79.9002 71.3853 82.4402 72.2253 84.6502 71.3953L90.8102 82.0753C83.5702 86.6153 78.7502 94.6453 78.7502 103.785C78.7502 108.565 80.0702 113.035 82.3602 116.875L77.0402 119.945C75.5302 118.225 72.9702 117.755 70.9102 118.935C68.5702 120.285 67.7602 123.285 69.1202 125.625C70.4702 127.965 73.4702 128.775 75.8102 127.415C77.9002 126.215 78.7502 123.705 77.9602 121.515L83.3502 118.405C87.9902 125.045 95.6702 129.395 104.36 129.395C108.69 129.395 112.77 128.315 116.34 126.405L122.5 137.095C120.71 138.595 120.19 141.195 121.4 143.295C122.75 145.635 125.75 146.445 128.09 145.085C130.43 143.735 131.23 140.735 129.88 138.395C128.7 136.345 126.25 135.475 124.09 136.195L117.92 125.495C125.15 120.965 129.96 112.925 129.96 103.785C129.96 99.9053 129.09 96.2353 127.54 92.9353L132.94 89.8253C134.45 91.5453 137.01 92.0153 139.06 90.8253C141.42 89.4753 142.23 86.4753 140.87 84.1353ZM104.36 126.655C91.7502 126.655 81.4902 116.395 81.4902 103.785C81.4902 91.1753 91.7502 80.9153 104.36 80.9153C116.97 80.9153 127.22 91.1753 127.22 103.785C127.23 116.395 116.97 126.655 104.36 126.655Z" fill="white"/>
<path d="M105.56 90.3053C105.32 89.8653 104.86 89.6053 104.36 89.6053C103.86 89.6053 103.4 89.8753 103.16 90.3053L90.5602 112.945C90.1902 113.605 90.4302 114.445 91.0902 114.805C91.3002 114.925 91.5302 114.975 91.7602 114.975C92.2402 114.975 92.7102 114.725 92.9602 114.275L96.3802 108.125H112.34L115.76 114.275C116.13 114.935 116.96 115.175 117.62 114.805C118.28 114.435 118.52 113.605 118.15 112.945L105.56 90.3053ZM97.9102 105.395L104.37 93.7953L110.82 105.395H97.9102Z" fill="white"/>
<path fill-rule="evenodd" clip-rule="evenodd" d="M219.95 228.515C219.95 228.515 231.08 228.065 241.05 221.845C242.12 221.165 242.83 220.045 242.99 218.785C243.14 217.525 242.73 216.265 241.85 215.345C236.32 209.615 223.78 200.065 207.29 208.445C207.29 208.445 215.45 219.145 219.95 228.515Z" fill="#F2AC9E"/>
<path fill-rule="evenodd" clip-rule="evenodd" d="M180.6 96.0452C200.31 97.8552 217.57 80.8252 235.19 80.7952C235.17 80.6552 235.16 80.5052 235.14 80.3752C235.05 79.6552 234.81 79.0153 234.43 78.4453C216.73 78.3353 201.07 95.5153 181.28 93.6953C166.85 92.3753 160.94 83.4052 159.79 75.3952C159.58 77.2752 159.48 79.0852 159.46 80.8252C161.64 87.8952 168 94.8852 180.6 96.0452Z" fill="#EF9200"/>
<path d="M85.6102 203.935C84.1602 198.315 86.6502 193.755 91.1902 193.755C95.7002 193.755 100.54 198.325 101.99 203.935C103.45 209.585 100.95 214.115 96.4402 214.115C91.9002 214.115 87.0702 209.585 85.6102 203.935Z" fill="white"/>
<path fill-rule="evenodd" clip-rule="evenodd" d="M199.86 138.115C205.72 137.485 208.23 133.025 208.95 131.435C201.84 132.935 194.7 133.555 190.66 133.795C191.71 135.105 195.01 138.635 199.86 138.115Z" fill="url(#paint4_linear)"/>
<defs>
<linearGradient id="paint0_linear" x1="-250.293" y1="266.393" x2="424.623" y2="666.412" gradientUnits="userSpaceOnUse">
<stop stop-color="#DFE2E6"/>
<stop offset="0.259791" stop-color="#DFE2E6"/>
<stop offset="0.38" stop-color="#DFE2E6"/>
<stop offset="0.74" stop-color="#D8D8D8" stop-opacity="0"/>
<stop offset="1" stop-color="#D8D8D8"/>
</linearGradient>
<linearGradient id="paint1_linear" x1="34.0076" y1="46.7052" x2="367.819" y2="277.114" gradientUnits="userSpaceOnUse">
<stop stop-color="#697FCF"/>
<stop offset="1" stop-color="#70C0C3"/>
</linearGradient>
<linearGradient id="paint2_linear" x1="216.509" y1="176.137" x2="216.509" y2="107.216" gradientUnits="userSpaceOnUse">
<stop stop-color="#F1B8A9"/>
<stop offset="0.0983" stop-color="#EDAEA0"/>
<stop offset="0.2642" stop-color="#E19487"/>
<stop offset="0.4446" stop-color="#D17065"/>
</linearGradient>
<linearGradient id="paint3_linear" x1="197.439" y1="128.335" x2="197.439" y2="110.958" gradientUnits="userSpaceOnUse">
<stop stop-color="#D17665"/>
<stop offset="0.2234" stop-color="#D57F6E"/>
<stop offset="0.5847" stop-color="#E09686"/>
<stop offset="1" stop-color="#F1B8A9"/>
</linearGradient>
<linearGradient id="paint4_linear" x1="200.137" y1="137.561" x2="199.668" y2="130.526" gradientUnits="userSpaceOnUse">
<stop stop-color="white"/>
<stop offset="1" stop-color="white" stop-opacity="0"/>
</linearGradient>
</defs>
</svg>
