<svg width="351" height="444" viewBox="0 0 351 444" fill="none" xmlns="http://www.w3.org/2000/svg">
<g opacity="0.6">
<path d="M206.167 -15H182.512C182.188 -15 181.923 -14.7349 181.923 -14.4108V64.7004C181.923 64.833 181.967 64.9655 182.055 65.0686L205.711 94.5862C206.064 95.0134 206.756 94.7777 206.756 94.218V-14.4108C206.756 -14.7349 206.491 -15 206.167 -15Z" stroke="#F04E23" stroke-miterlimit="10"/>
<path d="M128.19 99.3436L191.659 178.764C191.777 178.897 191.939 178.985 192.116 178.985H215.447C215.948 178.985 216.213 178.411 215.903 178.028L129.104 69.4136C128.75 68.9717 128.058 69.2221 128.058 69.7819V98.9754C128.058 99.108 128.102 99.2405 128.19 99.3436Z" stroke="#F04E23" stroke-miterlimit="10"/>
<path d="M25.8952 120.112C25.8952 112.777 23.7447 107.503 19.429 104.293C15.1133 101.082 7.9107 99.476 -2.16417 99.476H-13.9624C-14.743 99.5202 -14.8461 100.61 -14.0949 100.802C-11.7235 101.42 -7.28997 102.878 -5.38989 104.278C-1.0742 107.489 1.07629 112.762 1.07629 120.097C1.07629 127.432 -1.0742 132.705 -5.38989 135.916C-7.58456 137.551 -10.7808 138.465 -13.4026 139.481C-14.1244 139.761 -13.8887 140.836 -13.1228 140.792L-2.16417 140.733C7.92542 140.733 15.1281 139.127 19.429 135.916C23.73 132.72 25.8952 127.447 25.8952 120.112Z" stroke="#F04E23" stroke-miterlimit="10"/>
<path d="M-4.4474 42.7834C-4.4474 49.2054 -6.6568 53.8893 -11.0461 56.8205C-13.2114 58.2639 -16.1719 58.8678 -18.5581 59.7958C-19.2798 60.0757 -19.0442 61.1362 -18.2782 61.1067L-7.12814 61.2245C2.41647 61.2245 9.38344 59.7516 13.7875 56.8205C18.1916 53.8893 20.3862 49.2054 20.3862 42.7834C20.3862 35.9932 18.1768 31.0442 13.7875 27.9215C9.38344 24.7989 2.41647 23.2376 -7.12814 23.2376L-17.3945 23.2523C-18.1604 23.2965 -18.2782 24.3865 -17.5418 24.578C-15.3766 25.1672 -12.9315 26.5812 -11.0609 27.9068C-6.64207 31.0442 -4.4474 35.9932 -4.4474 42.7834Z" stroke="#F04E23" stroke-miterlimit="10"/>
<path d="M181.79 64.7446L118.056 -14.7791C117.939 -14.9116 117.777 -15 117.6 -15H94.2685C93.7677 -15 93.5026 -14.4256 93.8119 -14.0426L180.877 94.5862C181.23 95.0134 181.923 94.7777 181.923 94.218V65.1128C181.923 64.9803 181.879 64.8477 181.79 64.7446Z" stroke="#F04E23" stroke-miterlimit="10"/>
<path d="M103.813 178.985H127.469C127.793 178.985 128.058 178.72 128.058 178.396V99.3878C128.058 99.2553 128.014 99.1227 127.925 99.0196L104.27 69.4136C103.916 68.9717 103.224 69.2221 103.224 69.7819V178.396C103.224 178.72 103.489 178.985 103.813 178.985Z" stroke="#F04E23" stroke-miterlimit="10"/>
<path d="M43.7469 78.7964C43.2314 78.6196 43.202 77.8979 43.7175 77.6917C52.5109 74.1861 59.419 68.8393 64.4417 61.6367C69.7589 54.0216 72.425 45.2577 72.425 35.3596C72.425 19.9527 66.4154 7.71263 54.3962 -1.37537C42.3771 -10.4634 26.1896 -15 5.83365 -15H-19C1.35593 -15 17.5435 -10.4634 29.5626 -1.37537C41.5817 7.6979 47.5913 19.9527 47.5913 35.3596C47.5913 45.2724 44.9253 54.0216 39.608 61.6367C34.5853 68.8246 27.6625 74.1861 18.8838 77.6917C18.3683 77.8979 18.3978 78.6196 18.9133 78.7964C29.5184 82.3314 37.6932 87.9875 43.4671 95.7646C49.5208 103.925 52.5404 113.97 52.5404 125.901C52.5404 136.535 49.7418 145.844 44.1446 153.828C38.5475 161.811 30.5642 167.997 20.2095 172.401C9.84003 176.805 -2.31167 179 -16.2456 179H8.58804C22.522 179 34.6737 176.805 45.0431 172.401C55.3978 167.997 63.3811 161.811 68.9783 153.828C74.5754 145.844 77.374 136.535 77.374 125.901C77.374 113.985 74.3545 103.939 68.3007 95.7646C62.5268 87.9727 54.3373 82.3167 43.7469 78.7964Z" stroke="#F04E23" stroke-miterlimit="10"/>
<path d="M279.057 120.112C279.057 112.777 276.907 107.503 272.591 104.293C268.276 101.082 261.073 99.476 250.998 99.476H239.2C238.419 99.5202 238.316 100.61 239.067 100.802C241.439 101.42 245.872 102.878 247.772 104.278C252.088 107.489 254.239 112.762 254.239 120.097C254.239 127.432 252.088 132.705 247.772 135.916C245.578 137.551 242.381 138.465 239.76 139.481C239.038 139.761 239.274 140.836 240.039 140.792L250.998 140.733C261.088 140.733 268.29 139.127 272.591 135.916C276.892 132.72 279.057 127.447 279.057 120.112Z" stroke="#F04E23" stroke-miterlimit="10"/>
<path d="M248.715 42.7834C248.715 49.2054 246.505 53.8893 242.116 56.8205C239.951 58.2639 236.99 58.8678 234.604 59.7958C233.882 60.0757 234.118 61.1362 234.884 61.1067L246.034 61.2245C255.579 61.2245 262.546 59.7516 266.95 56.8205C271.354 53.8893 273.549 49.2054 273.549 42.7834C273.549 35.9932 271.339 31.0442 266.95 27.9215C262.546 24.7989 255.579 23.2376 246.034 23.2376L235.768 23.2523C235.002 23.2965 234.884 24.3865 235.621 24.578C237.786 25.1672 240.231 26.5812 242.101 27.9068C246.52 31.0442 248.715 35.9932 248.715 42.7834Z" stroke="#F04E23" stroke-miterlimit="10"/>
<path d="M434.952 64.7446L371.219 -14.7791C371.101 -14.9116 370.939 -15 370.762 -15H347.431C346.93 -15 346.665 -14.4256 346.974 -14.0426L434.039 94.5862C434.393 95.0134 435.085 94.7777 435.085 94.218V65.1128C435.085 64.9803 435.041 64.8477 434.952 64.7446Z" stroke="#F04E23" stroke-miterlimit="10"/>
<path d="M296.909 78.7964C296.394 78.6196 296.364 77.8979 296.88 77.6917C305.673 74.1861 312.581 68.8393 317.604 61.6367C322.921 54.0216 325.587 45.2577 325.587 35.3596C325.587 19.9527 319.578 7.71263 307.558 -1.37537C295.539 -10.4634 279.352 -15 258.996 -15H234.162C254.518 -15 270.706 -10.4634 282.725 -1.37537C294.744 7.6979 300.753 19.9527 300.753 35.3596C300.753 45.2724 298.087 54.0216 292.77 61.6367C287.747 68.8246 280.825 74.1861 272.046 77.6917C271.53 77.8979 271.56 78.6196 272.075 78.7964C282.681 82.3314 290.855 87.9875 296.629 95.7646C302.683 103.925 305.703 113.97 305.703 125.901C305.703 136.535 302.904 145.844 297.307 153.828C291.71 161.811 283.726 167.997 273.372 172.401C263.002 176.805 250.851 179 236.917 179H261.75C275.684 179 287.836 176.805 298.205 172.401C308.56 167.997 316.543 161.811 322.14 153.828C327.738 145.844 330.536 136.535 330.536 125.901C330.536 113.985 327.517 103.939 321.463 95.7646C315.689 87.9727 307.5 82.3167 296.909 78.7964Z" stroke="#F04E23" stroke-miterlimit="10"/>
</g>
<g opacity="0.6">
<path d="M56.1672 187H32.5119C32.1878 187 31.9227 187.265 31.9227 187.589V266.7C31.9227 266.833 31.9669 266.966 32.0553 267.069L55.7106 296.586C56.0641 297.013 56.7563 296.778 56.7563 296.218V187.589C56.7563 187.265 56.4912 187 56.1672 187Z" stroke="#F04E23" stroke-miterlimit="10"/>
<path d="M-21.8097 301.344L41.659 380.764C41.7768 380.897 41.9389 380.985 42.1156 380.985H65.4469C65.9477 380.985 66.2128 380.411 65.9035 380.028L-20.8965 271.414C-21.25 270.972 -21.9422 271.222 -21.9422 271.782V300.975C-21.9422 301.108 -21.898 301.241 -21.8097 301.344Z" stroke="#F04E23" stroke-miterlimit="10"/>
<path d="M31.7902 266.745L-31.9436 187.221C-32.0615 187.088 -32.2235 187 -32.4002 187H-55.7315C-56.2323 187 -56.4974 187.574 -56.1881 187.957L30.877 296.586C31.2305 297.013 31.9227 296.778 31.9227 296.218V267.113C31.9227 266.98 31.8786 266.848 31.7902 266.745Z" stroke="#F04E23" stroke-miterlimit="10"/>
<path d="M309.33 187H285.674C285.35 187 285.085 187.265 285.085 187.589V266.7C285.085 266.833 285.129 266.966 285.218 267.069L308.873 296.586C309.227 297.013 309.919 296.778 309.919 296.218V187.589C309.919 187.265 309.654 187 309.33 187Z" stroke="#F04E23" stroke-miterlimit="10"/>
<path d="M231.353 301.344L294.821 380.764C294.939 380.897 295.101 380.985 295.278 380.985H318.609C319.11 380.985 319.375 380.411 319.066 380.028L232.266 271.414C231.912 270.972 231.22 271.222 231.22 271.782V300.975C231.22 301.108 231.264 301.241 231.353 301.344Z" stroke="#F04E23" stroke-miterlimit="10"/>
<path d="M129.057 322.112C129.057 314.777 126.907 309.503 122.591 306.292C118.276 303.081 111.073 301.476 100.998 301.476H89.1999C88.4192 301.52 88.3161 302.61 89.0673 302.802C91.4388 303.42 95.8723 304.878 97.7724 306.278C102.088 309.489 104.239 314.762 104.239 322.097C104.239 329.432 102.088 334.705 97.7724 337.916C95.5777 339.551 92.3814 340.465 89.7596 341.481C89.0379 341.761 89.2735 342.836 90.0395 342.792L100.998 342.733C111.088 342.733 118.29 341.127 122.591 337.916C126.892 334.72 129.057 329.447 129.057 322.112Z" stroke="#F04E23" stroke-miterlimit="10"/>
<path d="M98.7149 244.783C98.7149 251.205 96.5055 255.889 92.1161 258.82C89.9509 260.264 86.9903 260.868 84.6042 261.796C83.8824 262.076 84.1181 263.136 84.884 263.107L96.0341 263.225C105.579 263.225 112.546 261.752 116.95 258.82C121.354 255.889 123.549 251.205 123.549 244.783C123.549 237.993 121.339 233.044 116.95 229.922C112.546 226.799 105.579 225.238 96.0341 225.238L85.7678 225.252C85.0019 225.297 84.884 226.386 85.6205 226.578C87.7857 227.167 90.2308 228.581 92.1014 229.907C96.5202 233.044 98.7149 237.993 98.7149 244.783Z" stroke="#F04E23" stroke-miterlimit="10"/>
<path d="M284.952 266.745L221.219 187.221C221.101 187.088 220.939 187 220.762 187H197.431C196.93 187 196.665 187.574 196.974 187.957L284.039 296.586C284.393 297.013 285.085 296.778 285.085 296.218V267.113C285.085 266.98 285.041 266.848 284.952 266.745Z" stroke="#F04E23" stroke-miterlimit="10"/>
<path d="M206.976 380.985H230.631C230.955 380.985 231.22 380.72 231.22 380.396V301.388C231.22 301.255 231.176 301.123 231.088 301.02L207.432 271.414C207.079 270.972 206.386 271.222 206.386 271.782V380.396C206.386 380.72 206.652 380.985 206.976 380.985Z" stroke="#F04E23" stroke-miterlimit="10"/>
<path d="M146.909 280.796C146.394 280.62 146.364 279.898 146.88 279.692C155.673 276.186 162.581 270.839 167.604 263.637C172.921 256.022 175.587 247.258 175.587 237.36C175.587 221.953 169.578 209.713 157.558 200.625C145.539 191.537 129.352 187 108.996 187H84.1622C104.518 187 120.706 191.537 132.725 200.625C144.744 209.698 150.753 221.953 150.753 237.36C150.753 247.272 148.087 256.022 142.77 263.637C137.747 270.825 130.825 276.186 122.046 279.692C121.53 279.898 121.56 280.62 122.075 280.796C132.681 284.331 140.855 289.987 146.629 297.765C152.683 305.925 155.703 315.97 155.703 327.901C155.703 338.535 152.904 347.844 147.307 355.828C141.71 363.811 133.726 369.997 123.372 374.401C113.002 378.805 100.851 381 86.9166 381H111.75C125.684 381 137.836 378.805 148.205 374.401C158.56 369.997 166.543 363.811 172.14 355.828C177.738 347.844 180.536 338.535 180.536 327.901C180.536 315.985 177.517 305.939 171.463 297.765C165.689 289.973 157.5 284.317 146.909 280.796Z" stroke="#F04E23" stroke-miterlimit="10"/>
<path d="M382.219 322.112C382.219 314.777 380.069 309.503 375.753 306.292C371.438 303.081 364.235 301.476 354.16 301.476H342.362C341.581 301.52 341.478 302.61 342.229 302.802C344.601 303.42 349.034 304.878 350.934 306.278C355.25 309.489 357.401 314.762 357.401 322.097C357.401 329.432 355.25 334.705 350.934 337.916C348.74 339.551 345.543 340.465 342.922 341.481C342.2 341.761 342.436 342.836 343.201 342.792L354.16 342.733C364.25 342.733 371.452 341.127 375.753 337.916C380.054 334.72 382.219 329.447 382.219 322.112Z" stroke="#F04E23" stroke-miterlimit="10"/>
<path d="M351.877 244.783C351.877 251.205 349.668 255.889 345.278 258.82C343.113 260.264 340.153 260.868 337.766 261.796C337.045 262.076 337.28 263.136 338.046 263.107L349.196 263.225C358.741 263.225 365.708 261.752 370.112 258.82C374.516 255.889 376.711 251.205 376.711 244.783C376.711 237.993 374.501 233.044 370.112 229.922C365.708 226.799 358.741 225.238 349.196 225.238L338.93 225.252C338.164 225.297 338.046 226.386 338.783 226.578C340.948 227.167 343.393 228.581 345.264 229.907C349.682 233.044 351.877 237.993 351.877 244.783Z" stroke="#F04E23" stroke-miterlimit="10"/>
<path d="M400.071 280.796C399.556 280.62 399.526 279.898 400.042 279.692C408.835 276.186 415.743 270.839 420.766 263.637C426.083 256.022 428.749 247.258 428.749 237.36C428.749 221.953 422.74 209.713 410.721 200.625C398.701 191.537 382.514 187 362.158 187H337.324C357.68 187 373.868 191.537 385.887 200.625C397.906 209.698 403.916 221.953 403.916 237.36C403.916 247.272 401.25 256.022 395.932 263.637C390.91 270.825 383.987 276.186 375.208 279.692C374.693 279.898 374.722 280.62 375.238 280.796C385.843 284.331 394.018 289.987 399.791 297.765C405.845 305.925 408.865 315.97 408.865 327.901C408.865 338.535 406.066 347.844 400.469 355.828C394.872 363.811 386.889 369.997 376.534 374.401C366.164 378.805 354.013 381 340.079 381H364.912C378.846 381 390.998 378.805 401.367 374.401C411.722 369.997 419.706 363.811 425.303 355.828C430.9 347.844 433.698 338.535 433.698 327.901C433.698 315.985 430.679 305.939 424.625 297.765C418.851 289.973 410.662 284.317 400.071 280.796Z" stroke="#F04E23" stroke-miterlimit="10"/>
</g>
<g opacity="0.6">
<path d="M158.33 389H134.674C134.35 389 134.085 389.265 134.085 389.589V468.7C134.085 468.833 134.129 468.966 134.218 469.069L157.873 498.586C158.227 499.013 158.919 498.778 158.919 498.218V389.589C158.919 389.265 158.654 389 158.33 389Z" stroke="#F04E23" stroke-miterlimit="10"/>
<path d="M133.952 468.745L70.2186 389.221C70.1008 389.088 69.9388 389 69.762 389H46.4307C45.93 389 45.6648 389.574 45.9741 389.957L133.039 498.586C133.393 499.013 134.085 498.778 134.085 498.218V469.113C134.085 468.98 134.041 468.848 133.952 468.745Z" stroke="#F04E23" stroke-miterlimit="10"/>
<path d="M-4.09088 482.796C-4.60641 482.62 -4.63587 481.898 -4.12034 481.692C4.67307 478.186 11.5811 472.839 16.6038 465.637C21.9211 458.022 24.5871 449.258 24.5871 439.36C24.5871 423.953 18.5776 411.713 6.55842 402.625C-5.46071 393.537 -21.6482 389 -42.0042 389H-66.8378C-46.4819 389 -30.2944 393.537 -18.2752 402.625C-6.25609 411.698 -0.246528 423.953 -0.246528 439.36C-0.246528 449.272 -2.91254 458.022 -8.22983 465.637C-13.2525 472.825 -20.1753 478.186 -28.954 481.692C-29.4695 481.898 -29.4401 482.62 -28.9245 482.796C-18.3194 486.331 -10.1446 491.987 -4.37074 499.765C1.68301 507.925 4.70253 517.97 4.70253 529.901C4.70253 540.535 1.90396 549.844 -3.69319 557.828C-9.29034 565.811 -17.2736 571.997 -27.6284 576.401C-37.9978 580.805 -50.1495 583 -64.0834 583H-39.2498C-25.3158 583 -13.1642 580.805 -2.7947 576.401C7.56001 571.997 15.5433 565.811 21.1405 557.828C26.7376 549.844 29.5362 540.535 29.5362 529.901C29.5362 517.985 26.5167 507.939 20.4629 499.765C14.689 491.973 6.4995 486.317 -4.09088 482.796Z" stroke="#F04E23" stroke-miterlimit="10"/>
<path d="M200.877 446.783C200.877 453.205 198.668 457.889 194.278 460.82C192.113 462.264 189.153 462.868 186.766 463.796C186.045 464.076 186.28 465.136 187.046 465.107L198.196 465.225C207.741 465.225 214.708 463.752 219.112 460.82C223.516 457.889 225.711 453.205 225.711 446.783C225.711 439.993 223.501 435.044 219.112 431.922C214.708 428.799 207.741 427.238 198.196 427.238L187.93 427.252C187.164 427.297 187.046 428.387 187.783 428.578C189.948 429.167 192.393 430.581 194.264 431.907C198.682 435.044 200.877 439.993 200.877 446.783Z" stroke="#F04E23" stroke-miterlimit="10"/>
<path d="M387.115 468.745L323.381 389.221C323.263 389.088 323.101 389 322.924 389H299.593C299.092 389 298.827 389.574 299.136 389.957L386.201 498.586C386.555 499.013 387.247 498.778 387.247 498.218V469.113C387.247 468.98 387.203 468.848 387.115 468.745Z" stroke="#F04E23" stroke-miterlimit="10"/>
<path d="M249.071 482.796C248.556 482.62 248.526 481.898 249.042 481.692C257.835 478.186 264.743 472.839 269.766 465.637C275.083 458.022 277.749 449.258 277.749 439.36C277.749 423.953 271.74 411.713 259.721 402.625C247.701 393.537 231.514 389 211.158 389H186.324C206.68 389 222.868 393.537 234.887 402.625C246.906 411.698 252.916 423.953 252.916 439.36C252.916 449.272 250.25 458.022 244.932 465.637C239.91 472.825 232.987 478.186 224.208 481.692C223.693 481.898 223.722 482.62 224.238 482.796C234.843 486.331 243.018 491.987 248.791 499.765C254.845 507.925 257.865 517.97 257.865 529.901C257.865 540.535 255.066 549.844 249.469 557.828C243.872 565.811 235.889 571.997 225.534 576.401C215.164 580.805 203.013 583 189.079 583H213.912C227.846 583 239.998 580.805 250.367 576.401C260.722 571.997 268.706 565.811 274.303 557.828C279.9 549.844 282.698 540.535 282.698 529.901C282.698 517.985 279.679 507.939 273.625 499.765C267.851 491.973 259.662 486.317 249.071 482.796Z" stroke="#F04E23" stroke-miterlimit="10"/>
</g>
</svg>
