<svg width="256" height="32" viewBox="0 0 256 32" fill="none" xmlns="http://www.w3.org/2000/svg">
<path d="M16.6766 22.4752C17.3165 23.3436 17.6364 24.3949 17.6364 25.6518C17.6364 26.7717 17.3393 27.7544 16.7451 28.6C16.1509 29.4455 15.3054 30.0854 14.2084 30.5654C13.1114 31.0224 11.8316 31.2738 10.369 31.2738H0.17627V10.7741H10.0947C12.243 10.7741 13.957 11.2541 15.2139 12.2139C16.4937 13.1738 17.1108 14.4764 17.1108 16.099C17.1108 17.1503 16.8365 18.0644 16.2652 18.8643C15.6939 19.6642 14.9168 20.2584 13.9113 20.624C15.1225 20.9897 16.0367 21.6067 16.6766 22.4752ZM5.36404 18.8186H9.18059C10.1861 18.8186 10.9175 18.6586 11.3974 18.3615C11.8545 18.0416 12.1059 17.5617 12.1059 16.8761C12.1059 16.1676 11.8773 15.642 11.3974 15.2992C10.9403 14.9792 10.1861 14.7964 9.18059 14.7964H5.36404V18.8186ZM11.9916 26.7031C12.4487 26.3603 12.6772 25.8118 12.6772 25.0348C12.6772 24.2578 12.4487 23.7093 11.9916 23.3665C11.5345 23.0237 10.7803 22.8637 9.70622 22.8637H5.36404V27.2287H9.68337C10.7575 27.2287 11.5345 27.0459 11.9916 26.7031Z" fill="white"/>
<path d="M18.6194 10.7741H23.9671V26.9316H32.6744V31.251H18.6194V10.7741Z" fill="white"/>
<path d="M47.3926 27.0233H38.3197L36.4914 31.2741H31.1208L40.6737 10.7973H44.9244L54.5229 31.2741H49.2209L47.3926 27.0233ZM45.6786 23.0011L42.8676 16.4421L40.0566 23.0011H45.6786Z" fill="white"/>
<path d="M57.7908 30.2008C56.2139 29.3323 55.0027 28.0982 54.1571 26.5213C53.3115 24.9444 52.9001 23.0933 52.9001 20.9907C52.9001 18.8882 53.3115 17.0599 54.1571 15.483C55.0027 13.9061 56.2139 12.672 57.7908 11.8036C59.3677 10.9352 61.2189 10.5009 63.3442 10.5009C64.6698 10.5009 65.9724 10.7066 67.2294 11.118C68.4863 11.5294 69.4919 12.0778 70.2917 12.7406L68.6463 16.5343C66.9551 15.3459 65.2411 14.7517 63.4814 14.7517C61.8131 14.7517 60.5333 15.2773 59.6648 16.3286C58.7735 17.3799 58.3393 18.9339 58.3393 21.0136C58.3393 23.0933 58.7735 24.6473 59.6648 25.6986C60.5561 26.7499 61.8131 27.2755 63.4814 27.2755C65.2411 27.2755 66.978 26.6813 68.6463 25.4929L70.2917 29.2638C69.4919 29.9494 68.4863 30.475 67.2294 30.8864C65.9724 31.2977 64.6926 31.5034 63.3442 31.5034C61.2417 31.5263 59.3906 31.092 57.7908 30.2008Z" fill="white"/>
<path d="M120.341 10.7741V20.3041C120.341 21.0583 119.404 21.4239 118.901 20.8526L109.988 10.8884L110.857 16.4647C111.063 17.8131 110.628 19.2071 109.646 20.1898L105.989 23.8464V31.251H110.948V21.3325C110.948 20.6926 111.725 20.3955 112.137 20.8754L121.369 31.251H125.323V10.7741H120.341Z" fill="white"/>
<path d="M106.014 21.4711L108.482 19.0029C109.076 18.4087 109.35 17.5632 109.213 16.7404L108.276 10.7985H106.014V21.4711Z" fill="white"/>
<path d="M130.626 30.2228C129.095 29.3543 127.906 28.1431 127.061 26.5662C126.238 24.9893 125.804 23.1381 125.804 21.0128C125.804 18.8874 126.215 17.0362 127.061 15.4593C127.884 13.8824 129.072 12.6712 130.626 11.8028C132.157 10.9572 133.986 10.5229 136.065 10.5229C138.168 10.5229 139.973 10.9572 141.504 11.8028C143.036 12.6483 144.224 13.8596 145.047 15.4593C145.869 17.0362 146.281 18.8874 146.281 21.0128C146.281 23.1381 145.869 24.9893 145.024 26.5662C144.201 28.1431 143.013 29.3543 141.459 30.2228C139.927 31.0912 138.122 31.5254 136.042 31.5254C133.986 31.5254 132.157 31.0912 130.626 30.2228ZM139.699 25.7892C140.567 24.6922 141.002 23.0924 141.002 21.0128C141.002 18.9331 140.567 17.3333 139.676 16.2364C138.785 15.1622 137.596 14.6137 136.065 14.6137C134.511 14.6137 133.3 15.1622 132.432 16.2364C131.563 17.3105 131.129 18.9102 131.129 21.0128C131.129 23.1153 131.563 24.715 132.432 25.812C133.3 26.8861 134.511 27.4346 136.065 27.4346C137.619 27.4118 138.831 26.8633 139.699 25.7892Z" fill="white"/>
<path d="M166.322 10.7741L156.998 31.251H152.747L143.423 10.7741H148.976L154.941 24.6006L160.929 10.7741H166.322Z" fill="white"/>
<path d="M166.62 10.7741H181.178V14.9106H171.831V18.7958H180.607V22.8865H171.831V27.1373H181.178V31.2738H166.62V10.7741Z" fill="white"/>
<path d="M202.865 10.7741V31.251H198.226V20.5098L194.272 27.8686H190.844L186.914 20.6926L186.891 31.2738H182.229V10.7741H186.434L192.604 22.4295L198.729 10.7741H202.865Z" fill="white"/>
<path d="M220.302 22.4752C220.942 23.3436 221.262 24.3949 221.262 25.6518C221.262 26.7717 220.965 27.7544 220.371 28.6C219.776 29.4455 218.931 30.0854 217.834 30.5654C216.737 31.0224 215.457 31.2738 213.994 31.2738H203.802V10.7741H213.72C215.868 10.7741 217.582 11.2541 218.839 12.2139C220.119 13.1738 220.736 14.4764 220.736 16.099C220.736 17.1503 220.462 18.0644 219.891 18.8643C219.319 19.6642 218.542 20.2584 217.537 20.624C218.725 20.9897 219.662 21.6067 220.302 22.4752ZM208.99 18.8186H212.806C213.812 18.8186 214.543 18.6586 215.023 18.3615C215.48 18.0416 215.731 17.5617 215.731 16.8761C215.731 16.1676 215.503 15.642 215.023 15.2992C214.566 14.9792 213.812 14.7964 212.806 14.7964H208.99V18.8186ZM215.594 26.7031C216.051 26.3603 216.28 25.8118 216.28 25.0348C216.28 24.2578 216.051 23.7093 215.594 23.3665C215.137 23.0237 214.383 22.8637 213.309 22.8637H208.99V27.2287H213.309C214.383 27.2287 215.137 27.0459 215.594 26.7031Z" fill="white"/>
<path d="M222.017 10.7741H236.575V14.9106H227.228V18.7958H236.004V22.8865H227.228V27.1373H236.575V31.2738H222.017V10.7741Z" fill="white"/>
<path d="M256 31.251H250.127L246.585 24.7148C246.128 23.9607 245.442 23.5722 244.459 23.5722H242.837V31.251H237.58V10.7741H247.339C249.807 10.7741 251.681 11.3226 252.938 12.3967C254.195 13.4709 254.812 15.0249 254.812 17.0589C254.812 18.6129 254.378 19.9156 253.532 20.9897C252.687 22.0638 251.475 22.7951 249.921 23.1608C251.11 23.4122 252.047 24.1664 252.732 25.4462L256 31.251ZM249.03 19.0243C249.533 18.6586 249.807 18.0644 249.807 17.2189C249.807 16.3733 249.556 15.7562 249.03 15.3677C248.527 14.9792 247.659 14.7964 246.493 14.7964H242.768V19.5728H246.493C247.659 19.5728 248.527 19.3899 249.03 19.0243Z" fill="white"/>
<path d="M3.82229 2.32061C4.49971 2.32061 5.00393 2.5246 5.33494 2.93259C5.66596 3.33289 5.83146 3.94488 5.83146 4.76856V8.14028H3.7761V4.86094C3.7761 4.52223 3.71452 4.27589 3.59135 4.12193C3.47588 3.96797 3.29883 3.89099 3.06019 3.89099C2.75227 3.89099 2.50594 3.99107 2.32118 4.19121C2.14413 4.38366 2.0556 4.64539 2.0556 4.97641V8.14028H0.000244141V-0.000335693H2.0556V3.14044C2.26345 2.87101 2.51748 2.66701 2.8177 2.52845C3.11793 2.38989 3.45279 2.32061 3.82229 2.32061Z" fill="white"/>
<path d="M9.85522 8.23265C9.23168 8.23265 8.68128 8.11333 8.204 7.8747C7.73443 7.62836 7.36877 7.28195 7.10704 6.83547C6.85301 6.38899 6.72599 5.86552 6.72599 5.26508C6.72599 4.66464 6.85301 4.14503 7.10704 3.70624C7.36877 3.25976 7.73443 2.9172 8.204 2.67856C8.67358 2.43992 9.22398 2.32061 9.85522 2.32061C10.4865 2.32061 11.0369 2.43992 11.5064 2.67856C11.976 2.9172 12.3378 3.25976 12.5919 3.70624C12.8536 4.14503 12.9844 4.66464 12.9844 5.26508C12.9844 5.86552 12.8536 6.38899 12.5919 6.83547C12.3378 7.28195 11.976 7.62836 11.5064 7.8747C11.0369 8.11333 10.4865 8.23265 9.85522 8.23265ZM9.85522 6.69691C10.5865 6.69691 10.9522 6.21963 10.9522 5.26508C10.9522 4.31053 10.5865 3.83326 9.85522 3.83326C9.12391 3.83326 8.75826 4.31053 8.75826 5.26508C8.75826 6.21963 9.12391 6.69691 9.85522 6.69691Z" fill="white"/>
<path d="M17.2424 6.75464C17.4117 6.75464 17.6003 6.74309 17.8082 6.72L17.7043 8.18646C17.4579 8.21726 17.2193 8.23265 16.9884 8.23265C16.0646 8.23265 15.391 8.0402 14.9676 7.6553C14.5519 7.26271 14.3441 6.65842 14.3441 5.84243V3.97182H13.2818V2.45917H14.3441V0.807952H16.3995V2.45917H17.762V3.97182H16.3995V5.85398C16.3995 6.45442 16.6804 6.75464 17.2424 6.75464Z" fill="white"/>
<path d="M25.7788 2.32061C26.4408 2.32061 26.9296 2.52075 27.2452 2.92105C27.5685 3.32134 27.7302 3.93718 27.7302 4.76856V8.14028H25.6748V4.8263C25.6748 4.49528 25.6248 4.25665 25.5247 4.11039C25.4247 3.96412 25.2591 3.89099 25.0282 3.89099C24.7434 3.89099 24.524 3.99107 24.37 4.19121C24.2238 4.39136 24.1506 4.67619 24.1506 5.04569V8.14028H22.0953V4.8263C22.0953 4.49528 22.0452 4.25665 21.9452 4.11039C21.8451 3.96412 21.6796 3.89099 21.4486 3.89099C21.1638 3.89099 20.9483 3.99107 20.802 4.19121C20.6558 4.39136 20.5826 4.67619 20.5826 5.04569V8.14028H18.5273V2.45917H20.5249V3.17508C20.9021 2.60543 21.4794 2.32061 22.2569 2.32061C23.0729 2.32061 23.6233 2.65547 23.9081 3.32519C24.1083 3.00957 24.37 2.76324 24.6933 2.58619C25.0244 2.40913 25.3862 2.32061 25.7788 2.32061Z" fill="white"/>
<path d="M31.4883 2.32061C32.3812 2.32061 33.0394 2.52845 33.4628 2.94414C33.8939 3.35213 34.1094 3.99107 34.1094 4.86094V8.14028H32.1811V7.34354C32.0733 7.62066 31.8924 7.84006 31.6384 8.00171C31.3844 8.15567 31.0803 8.23265 30.7262 8.23265C30.3336 8.23265 29.9795 8.15567 29.6639 8.00171C29.3482 7.84006 29.0981 7.62066 28.9133 7.34354C28.7363 7.05871 28.6477 6.73924 28.6477 6.38514C28.6477 5.97714 28.7516 5.65383 28.9595 5.41519C29.175 5.16886 29.5138 4.9918 29.9756 4.88403C30.4375 4.77626 31.061 4.72237 31.8462 4.72237H32.158V4.58381C32.158 4.29899 32.0926 4.10269 31.9617 3.99492C31.8308 3.87945 31.5999 3.82171 31.2689 3.82171C31.0072 3.82171 30.7031 3.8756 30.3567 3.98337C30.018 4.08344 29.6985 4.21431 29.3983 4.37597L28.8787 3.02497C29.2097 2.82482 29.6215 2.65932 30.1142 2.52845C30.6146 2.38989 31.0726 2.32061 31.4883 2.32061ZM31.2112 6.85856C31.4883 6.85856 31.7154 6.76234 31.8924 6.56989C32.0695 6.36974 32.158 6.11571 32.158 5.80779V5.66923H31.9733C31.4806 5.66923 31.1303 5.71541 30.9225 5.80779C30.7146 5.89247 30.6107 6.03873 30.6107 6.24657C30.6107 6.42363 30.6646 6.56989 30.7724 6.68536C30.8878 6.80083 31.0341 6.85856 31.2112 6.85856Z" fill="white"/>
<path d="M39.6376 3.99492L38.5176 4.11039C38.0711 4.15657 37.7593 4.27589 37.5823 4.46834C37.4052 4.66079 37.3167 4.93407 37.3167 5.28818V8.14028H35.2613V2.45917H37.2128V3.44066C37.3437 3.09425 37.5592 2.83252 37.8594 2.65547C38.1596 2.47072 38.5253 2.36679 38.9564 2.3437L39.5222 2.29751L39.6376 3.99492Z" fill="white"/>
<path d="M44.1026 6.75464C44.272 6.75464 44.4606 6.74309 44.6684 6.72L44.5645 8.18646C44.3182 8.21726 44.0795 8.23265 43.8486 8.23265C42.9248 8.23265 42.2513 8.0402 41.8279 7.6553C41.4122 7.26271 41.2043 6.65842 41.2043 5.84243V3.97182H40.142V2.45917H41.2043V0.807952H43.2597V2.45917H44.6222V3.97182H43.2597V5.85398C43.2597 6.45442 43.5407 6.75464 44.1026 6.75464Z" fill="white"/>
<path d="M83.1126 23.0694C81.8328 21.7896 81.8328 19.7099 83.1126 18.4301L90.7685 10.7741H84.758L76.7364 19.5728V10.7741H71.3887V31.251H76.7364V21.9953L84.9866 31.2738H91.317V31.251L83.1126 23.0694Z" fill="white"/>
<path d="M109.212 16.7169L108.115 9.76939C107.932 8.64956 107.063 7.75827 105.921 7.57545L98.9733 6.47847C98.1505 6.34135 97.305 6.61559 96.7108 7.20979L84.3241 19.5964C83.7071 20.2135 83.7071 21.2419 84.3241 21.8589L93.8312 31.366C94.4483 31.9831 95.4767 31.9831 96.0937 31.366L108.48 18.9794C109.075 18.4081 109.349 17.5625 109.212 16.7169ZM105.144 12.9689C104.481 13.6317 103.407 13.6317 102.744 12.9689C102.081 12.3061 102.081 11.232 102.744 10.5693C103.407 9.90651 104.481 9.90651 105.144 10.5693C105.807 11.2092 105.807 12.3061 105.144 12.9689Z" fill="white"/>
<mask id="mask0_2751:83043" style="mask-type:alpha" maskUnits="userSpaceOnUse" x="88" y="11" width="17" height="17">
<path fill-rule="evenodd" clip-rule="evenodd" d="M97.5099 11.8252L104.046 18.3842L94.9731 27.4114L88.437 20.8524L97.5099 11.8252Z" fill="white"/>
</mask>
<g mask="url(#mask0_2751:83043)">
<path fill-rule="evenodd" clip-rule="evenodd" d="M93.4426 22.361C92.6198 21.5154 92.6198 20.1442 93.4654 19.3215C94.311 18.4987 95.6822 18.4987 96.505 19.3443C97.3277 20.1899 97.3277 21.5611 96.4821 22.3839C95.6365 23.2294 94.2882 23.2066 93.4426 22.361ZM98.2647 24.1436C99.1103 23.3894 100.162 21.7897 100.573 20.0299C100.596 19.9842 100.55 19.9614 100.527 20.0071C100.413 20.2128 100.116 20.5327 99.8873 20.2356C99.4531 19.7557 100.939 19.2301 100.596 17.516C100.573 17.4703 100.55 17.4703 100.527 17.516C100.459 17.7217 100.093 18.1788 99.7959 18.1559C99.5445 18.1331 99.3388 17.8588 99.4988 17.2646C99.7502 16.2591 100.55 15.7563 101.236 15.5963C101.281 15.5963 101.281 15.5506 101.236 15.5278C99.3845 14.5908 97.442 15.9391 96.5507 16.2591C96.3907 16.3048 96.2993 16.3277 96.2307 16.2362C96.0022 15.962 96.7106 15.6192 97.0077 15.5049C97.0534 15.4821 97.0306 15.4364 97.0077 15.4364C95.5223 15.4592 93.6026 16.0991 92.277 17.1504C92.3227 17.1275 92.1628 17.2418 92.0714 17.3332C92.0257 17.3561 91.9799 17.4018 91.9571 17.4475C91.9114 17.4932 91.8657 17.5389 91.82 17.5846C89.9917 19.3672 89.9688 22.3153 91.7514 24.1207C93.534 25.949 96.4821 25.9719 98.2875 24.1893C98.2418 24.1664 98.2418 24.1436 98.2647 24.1436Z" fill="#F04E23"/>
</g>
</svg>
