<svg width="224" height="174" viewBox="0 0 224 174" fill="none" xmlns="http://www.w3.org/2000/svg">
<path d="M0 0H224V174H0V0Z" fill="#954D06"/>
<path d="M175.002 76.3785C168.322 83.0581 168.322 93.1985 175.065 99.9323C181.808 106.666 191.924 106.691 198.621 99.995C212.444 86.1724 213.104 71.5483 208.277 66.7224C203.451 61.8964 188.83 62.556 175.002 76.3785ZM197.806 99.1809C191.573 105.414 182.15 105.372 175.887 99.1099C169.625 92.8478 169.596 83.4129 175.829 77.1801C188.63 64.3845 202.892 62.9275 207.48 67.5197C212.068 72.1119 210.603 86.3812 197.806 99.1809V99.1809Z" fill="#F8B15D" fill-opacity="0.2"/>
<path d="M143.377 120C123.816 120 113 130.051 113 137C113 143.949 123.816 154 143.377 154C152.852 154 160 146.69 160 137C160 127.31 152.852 120 143.377 120ZM143.377 152.827C125.266 152.827 114.132 143.609 114.132 137C114.132 130.391 125.253 121.173 143.377 121.173C152.2 121.173 158.834 127.973 158.834 137C158.834 146.027 152.2 152.827 143.377 152.827Z" fill="#F8B15D" fill-opacity="0.2"/>
<path d="M138 54C147.69 54 155 46.8518 155 37.3766C155 17.8163 144.949 7 138 7C131.051 7 121 17.8163 121 37.3766C121 46.8518 128.31 54 138 54ZM138 8.14471C144.609 8.14471 153.827 19.266 153.827 37.3892C153.827 46.2126 147.027 52.8469 138 52.8469C128.973 52.8469 122.173 46.1959 122.173 37.3892C122.173 19.266 131.391 8.14471 138 8.14471Z" fill="#F8B15D" fill-opacity="0.2"/>
<path d="M103.342 102.251C108.05 97.3754 107.415 82.6023 93.9216 68.639C91.7537 66.3537 89.0086 64.7461 86 64V65.2019C88.7047 65.9222 91.1687 67.3918 93.1275 69.4529C105.611 82.383 107.032 96.7892 102.552 101.424C99.7866 104.292 93.4126 104.823 86 101.761V103.06C93.8158 106.168 100.422 105.279 103.342 102.251Z" fill="#F8B15D" fill-opacity="0.2"/>
<path d="M27.9771 15C18.3003 15 11 22.31 11 32C11 41.69 18.3003 49 27.9771 49C47.9536 49 59 38.9488 59 32C59 25.0513 47.9536 15 27.9771 15ZM27.9771 47.827C18.9659 47.827 12.1904 41.027 12.1904 32C12.1904 22.973 18.983 16.173 27.9771 16.173C46.4731 16.173 57.8438 25.3913 57.8438 32C57.8438 38.6088 46.4731 47.827 27.9771 47.827V47.827Z" fill="#F8B15D" fill-opacity="0.2"/>
<path d="M33.5 115C24.095 115 17 122.148 17 131.623C17 151.184 26.7556 162 33.5 162C40.2444 162 50 151.184 50 131.623C50 122.148 42.905 115 33.5 115ZM33.5 160.855C27.0856 160.855 18.1385 149.734 18.1385 131.611C18.1385 122.787 24.7385 116.153 33.5 116.153C42.2615 116.153 48.8615 122.804 48.8615 131.611C48.8615 149.734 39.9144 160.855 33.5 160.855V160.855Z" fill="#F8B15D" fill-opacity="0.2"/>
<path d="M70.1865 69.0391C63.2969 75.7588 63.267 85.8612 70.1224 92.5434C75.5032 97.7842 80.9867 101.117 86 103V101.717C81.1961 99.8464 75.9734 96.6219 70.9686 91.7436C64.5876 85.5238 64.6304 76.1212 71.0413 69.8723C75.2511 65.7688 80.8713 64.3482 86 65.6147V64.4149C80.5379 63.1734 74.6485 64.719 70.1865 69.0391Z" fill="#F8B15D" fill-opacity="0.2"/>
</svg>
