<svg width="201" height="202" viewBox="0 0 201 202" fill="none" xmlns="http://www.w3.org/2000/svg">
<path d="M106.736 13.7901V15.2676L97.0146 15.2676V13.94L102.304 8.11561C103.017 7.31618 103.531 6.6024 103.845 5.97428C104.174 5.33189 104.338 4.68949 104.338 4.04709C104.338 3.21911 104.095 2.58386 103.61 2.14132C103.125 1.69878 102.439 1.47751 101.554 1.47751C100.098 1.47751 98.6706 2.05566 97.2716 3.21198L96.6078 1.86294C97.2074 1.29192 97.9568 0.842247 98.8562 0.513911C99.7698 0.171298 100.683 -7.62939e-06 101.597 -7.62939e-06C102.982 -7.62939e-06 104.074 0.356879 104.873 1.07065C105.687 1.78443 106.094 2.74802 106.094 3.96144C106.094 4.83225 105.894 5.66736 105.494 6.46679C105.109 7.26621 104.466 8.15843 103.567 9.14344L99.2844 13.7901L106.736 13.7901Z" fill="#F8B15D"/>
<path d="M112.545 16.2172C110.832 15.9964 109.613 15.1771 108.889 13.7596C108.165 12.342 107.964 10.3873 108.285 7.89542C108.608 5.38941 109.299 3.54262 110.359 2.35507C111.419 1.16751 112.806 0.684178 114.519 0.905065C116.232 1.12595 117.451 1.94518 118.175 3.36275C118.901 4.76616 119.102 6.72087 118.779 9.22689C118.456 11.7329 117.764 13.5797 116.704 14.7672C115.644 15.9548 114.258 16.4381 112.545 16.2172ZM112.734 14.7519C113.923 14.9052 114.866 14.5158 115.562 13.5836C116.257 12.6513 116.742 11.1234 117.016 8.99961C117.292 6.86171 117.209 5.26779 116.769 4.21785C116.345 3.15558 115.531 2.54685 114.327 2.39169C113.138 2.23834 112.196 2.6207 111.502 3.53876C110.808 4.45682 110.324 5.97772 110.05 8.10146C109.776 10.2252 109.858 11.8262 110.295 12.9045C110.731 13.9827 111.544 14.5985 112.734 14.7519Z" fill="#F8B15D"/>
<path d="M128.65 18.0899L128.276 19.519L118.872 17.0531L119.209 15.7689L125.802 11.4766C126.695 10.8844 127.373 10.3243 127.837 9.79638C128.317 9.25828 128.639 8.67853 128.802 8.05714C129.012 7.25624 128.938 6.58021 128.581 6.02902C128.224 5.47784 127.617 5.09 126.761 4.86549C125.352 4.49615 123.825 4.69329 122.178 5.45693L121.878 3.98363C122.603 3.58337 123.442 3.33851 124.396 3.24903C125.366 3.14937 126.293 3.21542 127.177 3.44716C128.517 3.79841 129.482 4.42063 130.075 5.31384C130.681 6.21067 130.83 7.24595 130.522 8.41968C130.301 9.26201 129.896 10.0191 129.307 10.691C128.731 11.3665 127.883 12.0666 126.763 12.7913L121.442 16.1997L128.65 18.0899Z" fill="#F8B15D"/>
<path d="M139.016 22.3032L138.461 23.6727L129.45 20.0245L129.948 18.7939L137.036 15.38C137.998 14.9068 138.742 14.4381 139.269 13.9737C139.815 13.5015 140.208 12.9676 140.449 12.3722C140.76 11.6047 140.773 10.9248 140.489 10.3325C140.205 9.74014 139.653 9.2779 138.833 8.94576C137.483 8.39933 135.943 8.39952 134.212 8.94633L134.103 7.44679C134.873 7.1425 135.737 7.00693 136.694 7.04009C137.669 7.06537 138.58 7.24944 139.427 7.5923C140.711 8.11194 141.589 8.85256 142.062 9.81417C142.548 10.7811 142.564 11.827 142.109 12.9517C141.782 13.7589 141.283 14.458 140.613 15.049C139.955 15.6453 139.025 16.2313 137.822 16.8068L132.108 19.5067L139.016 22.3032Z" fill="#F8B15D"/>
<path d="M153.373 30.7644C152.824 30.3545 152.407 29.8387 152.123 29.217C151.847 28.5838 151.737 27.9317 151.793 27.2606C151.868 26.5866 152.115 25.9693 152.534 25.4087C152.926 24.8825 153.429 24.483 154.043 24.2103C154.667 23.9462 155.321 23.8461 156.003 23.9102C156.697 23.9828 157.336 24.2368 157.919 24.6722C158.469 25.0821 158.875 25.5993 159.139 26.224C159.424 26.8457 159.534 27.4978 159.47 28.1804C159.414 28.8515 159.173 29.473 158.746 30.045C158.336 30.5942 157.813 30.9966 157.177 31.2522C156.561 31.5049 155.91 31.5892 155.225 31.5052C154.551 31.4297 153.933 31.1827 153.373 30.7644Z" fill="#F8B15D"/>
<path d="M172.705 51.0651L171.55 51.9863L165.489 44.3856L166.527 43.5579L174.378 44.0616C175.448 44.1212 176.327 44.078 177.013 43.9319C177.72 43.788 178.325 43.5159 178.827 43.1153C179.475 42.5991 179.82 42.0133 179.863 41.3579C179.907 40.7025 179.652 40.0288 179.101 39.3368C178.193 38.1984 176.851 37.4428 175.074 37.07L175.715 35.7099C176.536 35.8226 177.354 36.1282 178.172 36.6266C179.009 37.1273 179.713 37.7348 180.283 38.4491C181.146 39.5317 181.548 40.6081 181.488 41.6781C181.437 42.7593 180.938 43.6782 179.989 44.4347C179.308 44.9777 178.531 45.3421 177.656 45.528C176.791 45.7251 175.693 45.7792 174.362 45.6902L168.059 45.239L172.705 51.0651Z" fill="#F8B15D"/>
<path d="M174.429 57.1198C173.533 55.6427 173.414 54.1792 174.071 52.7293C174.728 51.2794 176.131 49.9032 178.279 48.6007C180.44 47.2909 182.315 46.6801 183.904 46.7683C185.493 46.8566 186.736 47.6393 187.631 49.1164C188.527 50.5935 188.646 52.057 187.989 53.5069C187.344 54.9494 185.942 56.3256 183.781 57.6354C181.62 58.9453 179.745 59.5561 178.156 59.4678C176.567 59.3796 175.324 58.5969 174.429 57.1198ZM175.692 56.3539C176.314 57.3793 177.206 57.8735 178.369 57.8363C179.532 57.7992 181.029 57.2256 182.86 56.1156C184.703 54.9982 185.898 53.94 186.444 52.941C187.01 51.9469 186.979 50.931 186.349 49.8934C185.728 48.868 184.842 48.3701 183.691 48.3998C182.541 48.4295 181.05 48.9994 179.219 50.1095C177.388 51.2195 176.187 52.2814 175.616 53.2951C175.045 54.3088 175.071 55.3284 175.692 56.3539Z" fill="#F8B15D"/>
<path d="M183.007 70.879L181.656 71.4771L177.72 62.5876L178.934 62.0502L186.401 64.5289C187.421 64.858 188.282 65.039 188.983 65.072C189.704 65.1122 190.358 65.0022 190.945 64.7422C191.702 64.4071 192.185 63.928 192.393 63.3051C192.601 62.6821 192.526 61.9659 192.168 61.1566C191.578 59.8251 190.472 58.7538 188.848 57.9426L189.813 56.7895C190.578 57.1067 191.293 57.61 191.957 58.2994C192.64 58.9962 193.166 59.7623 193.536 60.5977C194.097 61.8639 194.212 63.007 193.883 64.0269C193.56 65.0599 192.844 65.822 191.734 66.3131C190.938 66.6656 190.093 66.8209 189.2 66.779C188.313 66.7502 187.238 66.5239 185.973 66.1002L179.99 64.065L183.007 70.879Z" fill="#F8B15D"/>
<path d="M186.175 81.6099L184.759 82.0303L181.993 72.7105L183.266 72.3328L190.354 75.746C191.324 76.2028 192.154 76.4924 192.846 76.6148C193.555 76.7468 194.217 76.7214 194.833 76.5386C195.627 76.303 196.167 75.8896 196.453 75.2984C196.739 74.7072 196.756 73.9873 196.505 73.1388C196.09 71.7429 195.13 70.5389 193.623 69.5267L194.728 68.5065C195.446 68.9188 196.09 69.5093 196.661 70.2781C197.249 71.0565 197.673 71.8836 197.933 72.7595C198.327 74.087 198.296 75.2354 197.839 76.2049C197.386 77.1881 196.578 77.8523 195.415 78.1975C194.58 78.4453 193.723 78.4913 192.843 78.3356C191.967 78.1935 190.928 77.8316 189.728 77.2496L184.055 74.4661L186.175 81.6099Z" fill="#F8B15D"/>
<path d="M188.512 98.1102C188.49 97.4253 188.633 96.778 188.942 96.1682C189.265 95.558 189.707 95.0654 190.266 94.6904C190.84 94.3292 191.476 94.1374 192.176 94.1149C192.832 94.0939 193.458 94.2381 194.053 94.5475C194.649 94.8712 195.135 95.3198 195.511 95.8933C195.886 96.4811 196.086 97.1389 196.109 97.8666C196.131 98.5514 195.981 99.1919 195.657 99.7878C195.348 100.398 194.907 100.89 194.333 101.266C193.774 101.641 193.137 101.84 192.424 101.863C191.739 101.885 191.098 101.727 190.502 101.389C189.92 101.064 189.449 100.608 189.087 100.02C188.726 99.4459 188.534 98.8094 188.512 98.1102Z" fill="#F8B15D"/>
<path d="M184.693 125.882L183.253 125.554L185.416 116.076L186.71 116.371L191.212 122.824C191.832 123.697 192.414 124.357 192.956 124.803C193.51 125.266 194.099 125.569 194.726 125.712C195.533 125.896 196.206 125.801 196.746 125.426C197.285 125.052 197.653 124.433 197.85 123.57C198.174 122.15 197.928 120.63 197.112 119.009L198.575 118.662C198.999 119.373 199.27 120.204 199.39 121.154C199.521 122.121 199.485 123.05 199.281 123.941C198.973 125.291 198.382 126.276 197.508 126.896C196.631 127.531 195.601 127.713 194.419 127.443C193.57 127.249 192.8 126.869 192.109 126.301C191.416 125.747 190.689 124.923 189.929 123.827L186.351 118.617L184.693 125.882Z" fill="#F8B15D"/>
<path d="M181.034 131.005C181.631 129.384 182.701 128.378 184.244 127.988C185.787 127.597 187.738 127.836 190.095 128.704C192.467 129.576 194.113 130.661 195.035 131.959C195.957 133.257 196.12 134.716 195.523 136.337C194.927 137.958 193.857 138.964 192.314 139.354C190.784 139.75 188.833 139.511 186.462 138.638C184.091 137.766 182.444 136.681 181.522 135.383C180.6 134.085 180.438 132.626 181.034 131.005ZM182.421 131.515C182.007 132.641 182.177 133.646 182.931 134.532C183.685 135.418 185.066 136.231 187.076 136.97C189.099 137.715 190.671 137.989 191.793 137.794C192.923 137.616 193.697 136.958 194.117 135.819C194.531 134.694 194.367 133.691 193.627 132.81C192.886 131.929 191.511 131.119 189.502 130.379C187.492 129.639 185.913 129.363 184.765 129.548C183.616 129.734 182.835 130.39 182.421 131.515Z" fill="#F8B15D"/>
<path d="M175.625 146.29L174.315 145.607L178.812 136.988L179.989 137.602L182.706 144.985C183.085 145.988 183.48 146.773 183.892 147.342C184.309 147.931 184.803 148.373 185.373 148.67C186.107 149.053 186.782 149.132 187.399 148.906C188.016 148.681 188.529 148.176 188.938 147.391C189.612 146.1 189.759 144.567 189.381 142.792L190.884 142.827C191.113 143.623 191.165 144.495 191.041 145.444C190.922 146.413 190.651 147.302 190.228 148.112C189.588 149.34 188.766 150.143 187.764 150.522C186.755 150.913 185.712 150.828 184.636 150.267C183.864 149.864 183.216 149.3 182.692 148.576C182.162 147.865 181.668 146.883 181.211 145.63L179.072 139.683L175.625 146.29Z" fill="#F8B15D"/>
<path d="M169.211 155.458L167.999 154.613L173.561 146.639L174.65 147.399L176.401 155.069C176.648 156.112 176.94 156.942 177.275 157.559C177.614 158.196 178.047 158.698 178.574 159.065C179.253 159.539 179.913 159.703 180.554 159.558C181.194 159.414 181.768 158.978 182.274 158.252C183.107 157.058 183.45 155.556 183.302 153.747L184.788 153.975C184.913 154.793 184.853 155.665 184.608 156.591C184.366 157.536 183.984 158.383 183.461 159.133C182.669 160.268 181.752 160.96 180.709 161.207C179.658 161.466 178.635 161.249 177.64 160.554C176.925 160.056 176.355 159.414 175.928 158.629C175.493 157.856 175.128 156.818 174.835 155.517L173.474 149.346L169.211 155.458Z" fill="#F8B15D"/>
<path d="M157.767 167.572C158.289 167.128 158.884 166.837 159.554 166.698C160.232 166.57 160.893 166.608 161.535 166.812C162.175 167.035 162.722 167.413 163.175 167.946C163.601 168.446 163.878 169.025 164.008 169.684C164.126 170.352 164.078 171.011 163.864 171.662C163.639 172.323 163.249 172.889 162.695 173.361C162.173 173.805 161.578 174.086 160.91 174.205C160.241 174.343 159.581 174.306 158.93 174.091C158.288 173.888 157.735 173.514 157.273 172.971C156.829 172.449 156.553 171.85 156.445 171.173C156.336 170.516 156.398 169.863 156.633 169.213C156.856 168.573 157.234 168.026 157.767 167.572Z" fill="#F8B15D"/>
<path d="M133.674 181.903L133.033 180.572L141.791 176.354L142.367 177.55L140.129 185.092C139.833 186.122 139.68 186.988 139.669 187.69C139.652 188.412 139.783 189.062 140.062 189.64C140.421 190.386 140.915 190.853 141.545 191.042C142.174 191.23 142.887 191.132 143.685 190.748C144.997 190.116 146.032 188.976 146.791 187.327L147.974 188.254C147.682 189.029 147.201 189.759 146.534 190.445C145.859 191.15 145.11 191.701 144.287 192.098C143.04 192.698 141.901 192.851 140.871 192.554C139.828 192.264 139.043 191.573 138.517 190.479C138.139 189.695 137.957 188.856 137.97 187.962C137.97 187.075 138.162 185.992 138.545 184.714L140.387 178.67L133.674 181.903Z" fill="#F8B15D"/>
<path d="M127.387 182.236C129.026 181.692 130.48 181.901 131.747 182.864C133.015 183.827 134.044 185.501 134.836 187.885C135.632 190.284 135.81 192.247 135.371 193.777C134.931 195.307 133.891 196.344 132.252 196.888C130.613 197.433 129.159 197.223 127.892 196.26C126.629 195.311 125.6 193.637 124.803 191.239C124.007 188.841 123.829 186.877 124.269 185.347C124.708 183.817 125.748 182.78 127.387 182.236ZM127.853 183.638C126.715 184.016 126.034 184.776 125.812 185.918C125.589 187.06 125.815 188.647 126.49 190.679C127.169 192.725 127.935 194.125 128.787 194.88C129.631 195.653 130.628 195.848 131.78 195.466C132.918 195.088 133.6 194.335 133.827 193.207C134.054 192.078 133.831 190.498 133.156 188.466C132.481 186.434 131.713 185.027 130.852 184.245C129.99 183.463 128.991 183.26 127.853 183.638Z" fill="#F8B15D"/>
<path d="M112.064 187.537L111.782 186.087L121.324 184.228L121.578 185.531L117.5 192.26C116.952 193.181 116.584 193.98 116.396 194.656C116.196 195.349 116.158 196.011 116.28 196.642C116.439 197.455 116.798 198.032 117.359 198.373C117.92 198.715 118.635 198.801 119.504 198.632C120.933 198.354 122.224 197.513 123.376 196.111L124.286 197.308C123.806 197.983 123.157 198.568 122.337 199.062C121.505 199.573 120.641 199.916 119.744 200.09C118.385 200.355 117.245 200.214 116.324 199.666C115.389 199.121 114.805 198.253 114.573 197.062C114.407 196.207 114.443 195.349 114.683 194.488C114.908 193.629 115.368 192.631 116.063 191.492L119.378 186.113L112.064 187.537Z" fill="#F8B15D"/>
<path d="M100.897 188.238L100.802 186.764L110.504 186.141L110.589 187.466L105.684 193.617C105.023 194.461 104.556 195.206 104.282 195.853C103.996 196.515 103.873 197.166 103.914 197.808C103.967 198.634 104.25 199.252 104.763 199.663C105.276 200.073 105.974 200.25 106.857 200.194C108.31 200.1 109.698 199.432 111.02 198.188L111.769 199.492C111.207 200.1 110.488 200.597 109.611 200.982C108.722 201.383 107.821 201.612 106.909 201.671C105.527 201.759 104.414 201.473 103.571 200.812C102.713 200.152 102.245 199.216 102.168 198.006C102.112 197.137 102.258 196.29 102.605 195.467C102.939 194.644 103.523 193.713 104.357 192.672L108.333 187.761L100.897 188.238Z" fill="#F8B15D"/>
<path d="M84.2904 186.844C84.963 186.975 85.5622 187.259 86.0879 187.696C86.6109 188.147 86.993 188.687 87.2342 189.316C87.4586 189.956 87.5039 190.619 87.3702 191.306C87.2447 191.95 86.9648 192.528 86.5307 193.04C86.0825 193.549 85.537 193.923 84.8943 194.161C84.2376 194.397 83.5519 194.445 82.8373 194.306C82.1647 194.175 81.5739 193.885 81.0649 193.437C80.5391 193 80.1571 192.461 79.9186 191.818C79.6775 191.189 79.6251 190.524 79.7616 189.824C79.8926 189.151 80.1891 188.562 80.6513 188.056C81.0968 187.561 81.6465 187.202 82.3005 186.981C82.9405 186.756 83.6038 186.711 84.2904 186.844Z" fill="#F8B15D"/>
<path d="M58.0645 176.942L58.7056 175.611L67.4644 179.829L66.8884 181.025L59.596 183.978C58.606 184.388 57.8333 184.809 57.2778 185.238C56.7033 185.675 56.2767 186.182 55.9979 186.761C55.6387 187.507 55.5817 188.184 55.827 188.794C56.0723 189.403 56.5936 189.9 57.3911 190.284C58.703 190.916 60.24 191.014 62.0022 190.579L62.0149 192.083C61.227 192.337 60.3566 192.417 59.4039 192.323C58.432 192.235 57.5346 191.993 56.7114 191.596C55.4638 190.996 54.6347 190.2 54.2242 189.21C53.8008 188.214 53.8523 187.169 54.3788 186.076C54.7566 185.292 55.299 184.626 56.006 184.079C56.7001 183.526 57.666 183.001 58.9037 182.504L64.7783 180.175L58.0645 176.942Z" fill="#F8B15D"/>
<path d="M53.8841 172.235C55.3317 173.177 56.0742 174.444 56.1114 176.035C56.1487 177.627 55.482 179.475 54.1114 181.581C52.7329 183.699 51.3086 185.062 49.8384 185.672C48.3682 186.283 46.9092 186.116 45.4616 185.174C44.0139 184.232 43.2715 182.965 43.2342 181.374C43.1891 179.794 43.8558 177.946 45.2343 175.828C46.6127 173.71 48.037 172.347 49.5073 171.737C50.9775 171.126 52.4364 171.293 53.8841 172.235ZM53.078 173.473C52.073 172.819 51.0548 172.761 50.0233 173.299C48.9918 173.837 47.892 175.003 46.7238 176.798C45.5479 178.604 44.9305 180.076 44.8717 181.213C44.7931 182.354 45.2623 183.256 46.2793 183.918C47.2843 184.572 48.2986 184.636 49.3223 184.11C50.3461 183.584 51.442 182.424 52.6102 180.629C53.7783 178.835 54.3996 177.357 54.474 176.196C54.5483 175.035 54.083 174.127 53.078 173.473Z" fill="#F8B15D"/>
<path d="M40.1863 163.56L41.1441 162.435L48.5466 168.737L47.686 169.747L39.8831 170.754C38.8214 170.9 37.9674 171.11 37.3211 171.385C36.6547 171.661 36.1132 172.044 35.6968 172.533C35.1601 173.164 34.9331 173.805 35.0158 174.456C35.0985 175.108 35.4768 175.721 36.1508 176.294C37.2595 177.238 38.7213 177.723 40.5361 177.75L40.1671 179.207C39.3404 179.253 38.4782 179.11 37.5806 178.777C36.6628 178.446 35.8561 177.984 35.1604 177.392C34.106 176.494 33.5058 175.514 33.3598 174.453C33.2029 173.382 33.5177 172.384 34.3043 171.46C34.8688 170.797 35.5623 170.291 36.3848 169.941C37.1966 169.582 38.2641 169.319 39.5874 169.152L45.8605 168.39L40.1863 163.56Z" fill="#F8B15D"/>
<path d="M32.6752 155.266L33.769 154.273L40.3048 161.47L39.322 162.362L31.4545 162.363C30.3828 162.372 29.5089 162.471 28.8328 162.661C28.1365 162.85 27.5506 163.16 27.075 163.592C26.4621 164.149 26.155 164.755 26.1537 165.412C26.1524 166.069 26.4493 166.725 27.0443 167.38C28.0233 168.458 29.411 169.126 31.2075 169.385L30.6552 170.783C29.8294 170.723 28.9926 170.47 28.1449 170.025C27.277 169.579 26.536 169.018 25.9218 168.342C24.9908 167.317 24.5208 166.268 24.5117 165.197C24.4931 164.115 24.9329 163.166 25.8311 162.35C26.4758 161.764 27.2284 161.351 28.0889 161.109C28.9398 160.857 30.0322 160.733 31.366 160.736L37.6851 160.783L32.6752 155.266Z" fill="#F8B15D"/>
<path d="M23.4112 141.414C23.7281 142.021 23.8797 142.667 23.8659 143.35C23.8395 144.04 23.6557 144.675 23.3145 145.256C22.954 145.83 22.4637 146.279 21.8436 146.603C21.2613 146.907 20.6349 147.048 19.9641 147.028C19.2867 146.995 18.6544 146.802 18.0673 146.448C17.4735 146.081 17.0083 145.575 16.6715 144.93C16.3546 144.322 16.2126 143.68 16.2457 143.002C16.2595 142.319 16.4433 141.684 16.7971 141.097C17.1383 140.516 17.6253 140.061 18.2581 139.73C18.8657 139.414 19.5114 139.278 20.1954 139.324C20.8602 139.363 21.4831 139.57 22.0641 139.943C22.6386 140.303 23.0876 140.794 23.4112 141.414Z" fill="#F8B15D"/>
<path d="M14.8015 114.736L16.242 114.407L18.4053 123.885L17.1109 124.18L10.2556 120.32C9.31743 119.802 8.50719 119.459 7.82493 119.293C7.12558 119.116 6.46276 119.099 5.83647 119.242C5.02925 119.426 4.46392 119.804 4.14048 120.376C3.81704 120.947 3.75379 121.665 3.95074 122.527C4.27475 123.947 5.15607 125.21 6.5947 126.317L5.42721 127.264C4.73709 126.807 4.13191 126.176 3.61168 125.372C3.07436 124.558 2.70404 123.705 2.50074 122.814C2.19261 121.464 2.29754 120.32 2.81553 119.382C3.33034 118.43 4.17925 117.819 5.36224 117.549C6.21121 117.355 7.06986 117.364 7.93819 117.576C8.80334 117.774 9.81614 118.202 10.9766 118.859L16.4597 122L14.8015 114.736Z" fill="#F8B15D"/>
<path d="M15.8754 108.533C16.0413 110.252 15.5137 111.622 14.2928 112.644C13.0719 113.665 11.211 114.296 8.71014 114.537C6.19506 114.78 4.2407 114.517 2.84706 113.748C1.45343 112.979 0.673678 111.734 0.507814 110.015C0.34195 108.296 0.869477 106.925 2.09039 105.904C3.2971 104.884 5.158 104.253 7.67308 104.01C10.1882 103.768 12.1425 104.031 13.5362 104.8C14.9298 105.569 15.7095 106.813 15.8754 108.533ZM14.4047 108.674C14.2896 107.481 13.7002 106.648 12.6364 106.177C11.5727 105.706 9.97517 105.574 7.84374 105.779C5.69811 105.986 4.16248 106.421 3.23685 107.084C2.29564 107.734 1.8833 108.663 1.99981 109.871C2.11496 111.065 2.69728 111.898 3.74678 112.37C4.79628 112.843 6.38674 112.976 8.51817 112.77C10.6496 112.565 12.1923 112.129 13.1464 111.463C14.1004 110.798 14.5199 109.868 14.4047 108.674Z" fill="#F8B15D"/>
<path d="M14.117 92.4141L15.5938 92.4615L15.2822 102.178L13.9552 102.136L8.30335 96.6625C7.52721 95.9235 6.83027 95.3869 6.21254 95.0529C5.581 94.7041 4.94419 94.5195 4.30212 94.4989C3.47457 94.4723 2.83186 94.6945 2.37399 95.1655C1.91612 95.6364 1.673 96.3142 1.64463 97.1988C1.59796 98.6542 2.13007 100.1 3.24095 101.535L1.87133 102.155C1.31982 101.538 0.894399 100.774 0.595057 99.8646C0.281904 98.9405 0.139969 98.0218 0.169253 97.1086C0.213635 95.7246 0.605342 94.6446 1.34437 93.8684C2.08386 93.078 3.06 92.7023 4.2728 92.7412C5.14315 92.7691 5.97143 92.9956 6.75764 93.4207C7.5443 93.8316 8.41547 94.5022 9.37115 95.4327L13.8782 99.8621L14.117 92.4141Z" fill="#F8B15D"/>
<path d="M15.9181 81.3711L17.3767 81.6069L15.8252 91.2039L14.5146 90.992L9.60895 84.8411C8.93369 84.0089 8.31108 83.3877 7.74114 82.9774C7.15938 82.5507 6.55141 82.2861 5.91725 82.1836C5.09989 82.0515 4.43404 82.1897 3.91971 82.5982C3.40538 83.0067 3.07758 83.6478 2.93632 84.5216C2.70393 85.959 3.04684 87.4605 3.96505 89.0261L2.52737 89.4661C2.05936 88.7831 1.73506 87.9715 1.55447 87.0312C1.36206 86.0746 1.33877 85.1454 1.48458 84.2435C1.70558 82.8765 2.23219 81.8554 3.06441 81.1801C3.8989 80.4908 4.91507 80.2429 6.11294 80.4366C6.97258 80.5756 7.76509 80.9061 8.49048 81.4283C9.21814 81.9364 9.9964 82.713 10.8252 83.758L14.7288 88.7274L15.9181 81.3711Z" fill="#F8B15D"/>
<path d="M20.9726 65.491C20.6952 66.1176 20.2851 66.6385 19.7421 67.0539C19.1861 67.4634 18.5749 67.7158 17.9082 67.811C17.2344 67.8874 16.5776 67.784 15.938 67.5009C15.3375 67.2351 14.8361 66.8336 14.4338 66.2964C14.0373 65.7462 13.7943 65.1313 13.7049 64.4516C13.6213 63.7589 13.7268 63.0797 14.0215 62.4139C14.2989 61.7874 14.7126 61.2758 15.2629 60.8793C15.8058 60.464 16.4171 60.2116 17.0967 60.1221C17.7634 60.0269 18.423 60.1238 19.0757 60.4127C19.7023 60.6901 20.2109 61.1104 20.6017 61.6737C20.9851 62.2181 21.2122 62.8338 21.2827 63.5207C21.3591 64.1946 21.2557 64.8514 20.9726 65.491Z" fill="#F8B15D"/>
<path d="M36.4627 42.126L37.6179 43.0472L31.5565 50.6479L30.5186 49.8201L29.2625 42.0535C29.0826 40.997 28.8449 40.1502 28.5497 39.513C28.2521 38.8558 27.8522 38.3269 27.35 37.9264C26.7026 37.4101 26.0547 37.2038 25.4061 37.3074C24.7574 37.4109 24.1572 37.8087 23.6054 38.5007C22.6975 39.6391 22.2595 41.1157 22.2913 42.9304L20.8227 42.6083C20.75 41.7835 20.8658 40.9172 21.1698 40.0093C21.4716 39.0814 21.9073 38.2603 22.4769 37.546C23.3403 36.4633 24.3002 35.832 25.3567 35.6521C26.4221 35.4609 27.4291 35.7436 28.3778 36.5002C29.0586 37.0431 29.5869 37.72 29.9627 38.531C30.3474 39.3308 30.6445 40.3893 30.8538 41.7066L31.8166 47.9521L36.4627 42.126Z" fill="#F8B15D"/>
<path d="M41.9817 39.0981C40.7409 40.2998 39.3406 40.7418 37.7809 40.424C36.2212 40.1062 34.5674 39.0449 32.8195 37.2401C31.0616 35.425 30.0489 33.7329 29.7813 32.1637C29.5137 30.5946 30.0003 29.2093 31.2411 28.0076C32.4819 26.8059 33.8822 26.3639 35.4419 26.6817C36.9917 26.9892 38.6455 28.0506 40.4034 29.8656C42.1612 31.6807 43.1739 33.3728 43.4415 34.942C43.7091 36.5111 43.2225 37.8965 41.9817 39.0981ZM40.9538 38.0368C41.8152 37.2025 42.0985 36.2228 41.8035 35.0974C41.5086 33.9721 40.6163 32.6403 39.1266 31.1021C37.627 29.5536 36.3295 28.6242 35.2341 28.3139C34.1389 27.9834 33.1555 28.2402 32.2839 29.0843C31.4225 29.9186 31.1343 30.8932 31.4193 32.0083C31.7043 33.1234 32.5916 34.45 34.0813 35.9882C35.571 37.5265 36.8735 38.461 37.9888 38.7918C39.1041 39.1227 40.0924 38.871 40.9538 38.0368Z" fill="#F8B15D"/>
<path d="M53.4875 27.6739L54.3713 28.858L46.5802 34.6726L45.7862 33.6086L46.5413 25.7774C46.6351 24.7098 46.6201 23.8304 46.4961 23.1392C46.375 22.428 46.1223 21.815 45.7381 21.3002C45.2429 20.6366 44.6685 20.2726 44.0148 20.2083C43.3611 20.1439 42.6796 20.3764 41.9703 20.9058C40.8034 21.7767 40.0051 23.0939 39.5755 24.8573L38.2367 24.1732C38.3757 23.357 38.7073 22.5484 39.2317 21.7473C39.759 20.9263 40.3887 20.2426 41.1209 19.6961C42.2307 18.8679 43.3193 18.5007 44.3869 18.5946C45.4659 18.68 46.3683 19.2088 47.0941 20.1813C47.6149 20.8792 47.9542 21.668 48.112 22.5477C48.2813 23.4189 48.3001 24.5182 48.1685 25.8455L47.5156 32.1309L53.4875 27.6739Z" fill="#F8B15D"/>
<path d="M63.2443 22.1968L63.9693 23.4842L55.4987 28.2548L54.8472 27.098L56.5975 19.4276C56.8272 18.3808 56.9247 17.5067 56.8901 16.8053C56.861 16.0844 56.6888 15.4441 56.3735 14.8844C55.9672 14.163 55.444 13.7286 54.804 13.5811C54.1639 13.4337 53.4583 13.5772 52.6871 14.0115C51.4184 14.726 50.4582 15.9303 49.8067 17.6244L48.5663 16.7747C48.8085 15.9829 49.2408 15.2233 49.8634 14.4959C50.4913 13.749 51.2033 13.1514 51.9994 12.7031C53.2059 12.0236 54.3326 11.7987 55.3794 12.0283C56.4386 12.2509 57.266 12.8909 57.8614 13.9481C58.2888 14.7069 58.5244 15.5326 58.5684 16.4253C58.6249 17.311 58.503 18.4037 58.2027 19.7032L56.7514 25.8535L63.2443 22.1968Z" fill="#F8B15D"/>
<path d="M78.811 16.2472C78.1482 16.4211 77.4851 16.4252 76.8219 16.2597C76.155 16.0804 75.5766 15.7598 75.0865 15.298C74.6066 14.8187 74.278 14.2408 74.1005 13.5642C73.934 12.929 73.9353 12.2867 74.1044 11.6372C74.2873 10.9842 74.6166 10.4108 75.0923 9.91713C75.5817 9.41983 76.1785 9.07884 76.8828 8.89417C77.5456 8.72036 78.2035 8.72492 78.8566 8.90787C79.5198 9.07338 80.0983 9.39395 80.592 9.86958C81.082 10.3314 81.4176 10.9075 81.5986 11.598C81.7724 12.2608 81.761 12.9205 81.5642 13.5772C81.3776 14.2164 81.0378 14.7778 80.5448 15.2613C80.0655 15.7412 79.4876 16.0698 78.811 16.2472Z" fill="#F8B15D"/>
</svg>
