<svg width="336" height="103" viewBox="0 0 336 103" fill="none" xmlns="http://www.w3.org/2000/svg">
<path d="M42.1618 64.3158H24.3859V51.0085H42.1618C44.5843 51.0085 46.5485 50.5993 48.0544 49.7808C49.5603 48.9624 50.657 47.833 51.3444 46.3926C52.0646 44.9195 52.4247 43.2663 52.4247 41.433C52.4247 39.4688 52.0646 37.652 51.3444 35.9824C50.657 34.3128 49.5603 32.9706 48.0544 31.9558C46.5485 30.9082 44.5843 30.3845 42.1618 30.3845H30.8677V88.5736H13.632V17.0771H42.1618C47.8907 17.0771 52.8176 18.1246 56.9424 20.2198C61.0999 22.3149 64.2917 25.1957 66.5178 28.8622C68.7439 32.496 69.8569 36.6535 69.8569 41.3348C69.8569 45.9507 68.7439 49.9773 66.5178 53.4146C64.2917 56.8519 61.0999 59.5363 56.9424 61.4678C52.8176 63.3665 47.8907 64.3158 42.1618 64.3158Z" fill="#FBEDD2"/>
<path d="M102.343 75.2171V53.3164C102.343 51.8105 102.13 50.5174 101.704 49.4371C101.279 48.3568 100.608 47.522 99.691 46.9328C98.7744 46.3108 97.5468 45.9998 96.0081 45.9998C94.7642 45.9998 93.7002 46.2126 92.8163 46.6381C91.9324 47.0637 91.2614 47.7021 90.803 48.5532C90.3447 49.4044 90.1156 50.4847 90.1156 51.7941H73.5673C73.5673 49.3389 74.1074 47.0637 75.1877 44.9686C76.3008 42.8407 77.8721 40.9911 79.9018 39.4197C81.9642 37.8484 84.4194 36.6371 87.2675 35.786C90.1483 34.9021 93.3565 34.4601 96.892 34.4601C101.115 34.4601 104.88 35.164 108.186 36.5717C111.525 37.9793 114.161 40.0908 116.092 42.9062C118.023 45.6888 118.989 49.1916 118.989 53.4146V75.168C118.989 78.6381 119.186 81.2734 119.578 83.0739C119.971 84.8416 120.528 86.3966 121.248 87.7388V88.5736H104.651C103.865 86.9368 103.276 84.9398 102.883 82.5828C102.523 80.1931 102.343 77.7378 102.343 75.2171ZM104.356 56.1154L104.454 64.9542H97.1376C95.5989 64.9542 94.2895 65.167 93.2092 65.5926C92.1616 66.0181 91.3105 66.6074 90.6557 67.3603C90.0337 68.0805 89.5754 68.899 89.2808 69.8156C89.0189 70.7322 88.8879 71.6979 88.8879 72.7128C88.8879 73.6949 89.1171 74.5787 89.5754 75.3644C90.0665 76.1174 90.7212 76.7066 91.5396 77.1322C92.358 77.5578 93.2746 77.7706 94.2895 77.7706C96.1227 77.7706 97.6777 77.4268 98.9544 76.7393C100.264 76.0191 101.262 75.1516 101.95 74.1368C102.637 73.122 102.981 72.1726 102.981 71.2887L106.615 78.0652C105.96 79.3746 105.207 80.7005 104.356 82.0427C103.538 83.3849 102.506 84.6288 101.262 85.7746C100.051 86.8877 98.5616 87.8043 96.7938 88.5245C95.026 89.212 92.8818 89.5557 90.3611 89.5557C87.0874 89.5557 84.0757 88.8846 81.3258 87.5424C78.6087 86.2002 76.4317 84.3342 74.7949 81.9445C73.1581 79.522 72.3396 76.7394 72.3396 73.5966C72.3396 70.8468 72.8307 68.3915 73.8128 66.2309C74.8276 64.0703 76.3499 62.2371 78.3795 60.7312C80.4092 59.2253 82.9954 58.0795 86.1381 57.2939C89.2808 56.5082 92.98 56.1154 97.2358 56.1154H104.356ZM88.7897 28.5676L98.5125 13.1487H115.994L102.294 28.5676H88.7897Z" fill="#FBEDD2"/>
<path d="M152.997 73.6458C152.997 72.7291 152.686 71.9435 152.064 71.2887C151.475 70.6013 150.427 69.9793 148.921 69.4227C147.416 68.8335 145.304 68.2442 142.587 67.655C140.001 67.0984 137.562 66.3619 135.27 65.4453C133.012 64.5286 131.031 63.4156 129.329 62.1061C127.626 60.7967 126.284 59.2417 125.302 57.4412C124.353 55.6407 123.878 53.5783 123.878 51.254C123.878 48.9952 124.353 46.8673 125.302 44.8704C126.284 42.8407 127.708 41.0566 129.574 39.5179C131.473 37.9466 133.781 36.719 136.498 35.8351C139.215 34.9185 142.309 34.4601 145.779 34.4601C150.558 34.4601 154.683 35.1967 158.153 36.6699C161.623 38.1103 164.291 40.1399 166.157 42.7589C168.056 45.345 169.005 48.3404 169.005 51.745H152.457C152.457 50.4028 152.228 49.2571 151.77 48.3077C151.344 47.3583 150.64 46.6381 149.658 46.1471C148.676 45.6233 147.367 45.3614 145.73 45.3614C144.584 45.3614 143.536 45.5742 142.587 45.9998C141.67 46.4253 140.934 47.0146 140.377 47.7675C139.821 48.5205 139.542 49.4044 139.542 50.4192C139.542 51.1394 139.706 51.7941 140.034 52.3834C140.394 52.9399 140.934 53.4637 141.654 53.9547C142.374 54.4131 143.291 54.8386 144.404 55.2315C145.517 55.5916 146.859 55.9189 148.43 56.2136C151.999 56.8683 155.338 57.8013 158.448 59.0125C161.558 60.2238 164.078 61.9425 166.01 64.1685C167.974 66.3946 168.956 69.39 168.956 73.1547C168.956 75.5117 168.416 77.6887 167.336 79.6856C166.255 81.6498 164.7 83.3849 162.671 84.8907C160.641 86.3639 158.202 87.5097 155.354 88.3281C152.506 89.1465 149.298 89.5557 145.73 89.5557C140.656 89.5557 136.367 88.6554 132.864 86.8549C129.361 85.0217 126.71 82.7301 124.909 79.9803C123.141 77.1977 122.258 74.3823 122.258 71.5342H137.676C137.742 73.1711 138.135 74.5133 138.855 75.5608C139.608 76.6084 140.606 77.3777 141.85 77.8688C143.094 78.3598 144.535 78.6053 146.172 78.6053C147.677 78.6053 148.921 78.3925 149.904 77.967C150.918 77.5414 151.688 76.9685 152.212 76.2483C152.735 75.4954 152.997 74.6278 152.997 73.6458Z" fill="#FBEDD2"/>
<path d="M196.139 76.7885C197.677 76.7885 198.987 76.5102 200.067 75.9537C201.18 75.3644 202.015 74.546 202.571 73.4984C203.161 72.4181 203.439 71.125 203.406 69.6192H218.972C219.005 73.613 218.023 77.1158 216.026 80.1276C214.062 83.1066 211.378 85.4309 207.973 87.1005C204.601 88.7373 200.787 89.5557 196.532 89.5557C192.374 89.5557 188.74 88.8846 185.63 87.5424C182.52 86.1675 179.918 84.2687 177.823 81.8462C175.76 79.391 174.205 76.5266 173.158 73.2529C172.143 69.9793 171.635 66.4274 171.635 62.5972V61.4678C171.635 57.6376 172.143 54.0857 173.158 50.812C174.205 47.5056 175.76 44.6412 177.823 42.2187C179.918 39.7635 182.504 37.8647 185.581 36.5225C188.691 35.1476 192.308 34.4601 196.433 34.4601C200.853 34.4601 204.748 35.2949 208.12 36.9645C211.525 38.6341 214.193 41.0566 216.124 44.232C218.056 47.4074 219.005 51.254 218.972 55.7716H203.406C203.439 54.1675 203.193 52.7271 202.67 51.4504C202.146 50.1737 201.327 49.1588 200.214 48.4059C199.134 47.6202 197.743 47.2274 196.04 47.2274C194.338 47.2274 192.963 47.6039 191.916 48.3568C190.868 49.1097 190.066 50.1573 189.51 51.4995C188.986 52.809 188.626 54.3148 188.429 56.0171C188.266 57.7194 188.184 59.5363 188.184 61.4678V62.5972C188.184 64.5614 188.266 66.411 188.429 68.146C188.626 69.8483 189.002 71.3542 189.559 72.6637C190.115 73.9404 190.917 74.9552 191.965 75.7082C193.012 76.4284 194.404 76.7885 196.139 76.7885Z" fill="#FBEDD2"/>
<path d="M220.964 62.5481V61.5169C220.964 57.6212 221.521 54.0366 222.634 50.7629C223.747 47.4565 225.383 44.5921 227.544 42.1696C229.705 39.7471 232.373 37.8647 235.548 36.5225C238.724 35.1476 242.39 34.4601 246.548 34.4601C250.738 34.4601 254.421 35.1476 257.596 36.5225C260.804 37.8647 263.489 39.7471 265.649 42.1696C267.81 44.5921 269.447 47.4565 270.56 50.7629C271.673 54.0366 272.229 57.6212 272.229 61.5169V62.5481C272.229 66.411 271.673 69.9956 270.56 73.302C269.447 76.5757 267.81 79.4401 265.649 81.8954C263.489 84.3179 260.821 86.2002 257.645 87.5424C254.47 88.8846 250.803 89.5557 246.646 89.5557C242.488 89.5557 238.805 88.8846 235.597 87.5424C232.389 86.2002 229.705 84.3179 227.544 81.8954C225.383 79.4401 223.747 76.5757 222.634 73.302C221.521 69.9956 220.964 66.411 220.964 62.5481ZM237.512 61.5169V62.5481C237.512 64.545 237.66 66.411 237.954 68.146C238.249 69.8811 238.74 71.4033 239.427 72.7128C240.115 73.9895 241.048 74.9879 242.226 75.7082C243.405 76.4284 244.878 76.7885 246.646 76.7885C248.381 76.7885 249.821 76.4284 250.967 75.7082C252.146 74.9879 253.079 73.9895 253.766 72.7128C254.454 71.4033 254.945 69.8811 255.239 68.146C255.534 66.411 255.681 64.545 255.681 62.5481V61.5169C255.681 59.5854 255.534 57.7685 255.239 56.0662C254.945 54.3312 254.454 52.809 253.766 51.4995C253.079 50.1573 252.146 49.1097 250.967 48.3568C249.789 47.6039 248.315 47.2274 246.548 47.2274C244.813 47.2274 243.356 47.6039 242.177 48.3568C241.032 49.1097 240.115 50.1573 239.427 51.4995C238.74 52.809 238.249 54.3312 237.954 56.0662C237.66 57.7685 237.512 59.5854 237.512 61.5169Z" fill="#FBEDD2"/>
<path d="M304.175 75.2171V53.3164C304.175 51.8105 303.962 50.5174 303.537 49.4371C303.111 48.3568 302.44 47.522 301.523 46.9328C300.607 46.3108 299.379 45.9998 297.841 45.9998C296.597 45.9998 295.533 46.2126 294.649 46.6381C293.765 47.0637 293.094 47.7021 292.635 48.5532C292.177 49.4044 291.948 50.4847 291.948 51.7941H275.4C275.4 49.3389 275.94 47.0637 277.02 44.9686C278.133 42.8407 279.704 40.9911 281.734 39.4197C283.797 37.8484 286.252 36.6371 289.1 35.786C291.981 34.9021 295.189 34.4601 298.724 34.4601C302.947 34.4601 306.712 35.164 310.018 36.5717C313.358 37.9793 315.993 40.0908 317.924 42.9062C319.856 45.6888 320.822 49.1916 320.822 53.4146V75.168C320.822 78.6381 321.018 81.2734 321.411 83.0739C321.804 84.8416 322.36 86.3966 323.08 87.7388V88.5736H306.483C305.697 86.9368 305.108 84.9398 304.715 82.5828C304.355 80.1931 304.175 77.7378 304.175 75.2171ZM306.188 56.1154L306.287 64.9542H298.97C297.431 64.9542 296.122 65.167 295.042 65.5926C293.994 66.0181 293.143 66.6074 292.488 67.3603C291.866 68.0805 291.408 68.899 291.113 69.8156C290.851 70.7322 290.72 71.6979 290.72 72.7128C290.72 73.6949 290.949 74.5787 291.408 75.3644C291.899 76.1174 292.554 76.7066 293.372 77.1322C294.19 77.5578 295.107 77.7706 296.122 77.7706C297.955 77.7706 299.51 77.4268 300.787 76.7393C302.096 76.0191 303.095 75.1516 303.782 74.1368C304.47 73.122 304.813 72.1726 304.813 71.2887L308.447 78.0652C307.792 79.3746 307.039 80.7005 306.188 82.0427C305.37 83.3849 304.339 84.6288 303.095 85.7746C301.883 86.8877 300.394 87.8043 298.626 88.5245C296.858 89.212 294.714 89.5557 292.193 89.5557C288.92 89.5557 285.908 88.8846 283.158 87.5424C280.441 86.2002 278.264 84.3342 276.627 81.9445C274.99 79.522 274.172 76.7394 274.172 73.5966C274.172 70.8468 274.663 68.3915 275.645 66.2309C276.66 64.0703 278.182 62.2371 280.212 60.7312C282.242 59.2253 284.828 58.0795 287.97 57.2939C291.113 56.5082 294.812 56.1154 299.068 56.1154H306.188Z" fill="#FBEDD2"/>
<path fill-rule="evenodd" clip-rule="evenodd" d="M13.632 88.5736H30.8677V64.3158H42.1618C42.6378 64.3158 43.1082 64.3093 43.5731 64.2962C48.7038 64.1515 53.1603 63.2087 56.9424 61.4678C58.3614 60.8085 59.6679 60.0616 60.8619 59.227C63.1662 57.6162 65.0515 55.6787 66.5178 53.4146C66.8587 52.8883 67.1734 52.3481 67.4621 51.7941C68.9381 48.9616 69.7318 45.7678 69.8433 42.2128C69.8437 42.1998 69.8441 42.1867 69.8445 42.1736C69.8528 41.8962 69.8569 41.6166 69.8569 41.3348C69.8569 41.3142 69.8569 41.2936 69.8568 41.273C69.8528 39.3273 69.656 37.4724 69.2667 35.7081C69.0433 34.6958 68.7565 33.7134 68.4062 32.7608C67.9061 31.4004 67.2766 30.1009 66.5178 28.8622C64.2917 25.1957 61.0999 22.3149 56.9424 20.2198C52.8176 18.1246 47.8907 17.0771 42.1618 17.0771H13.632V88.5736ZM30.8677 51.0085H42.1618C42.6509 51.0085 43.1214 50.9918 43.5731 50.9584C45.3588 50.8265 46.8526 50.434 48.0544 49.7808C49.5603 48.9624 50.6569 47.833 51.3444 46.3926C52.0646 44.9195 52.4247 43.2663 52.4247 41.433C52.4247 39.4688 52.0646 37.652 51.3444 35.9824C50.6569 34.3128 49.5603 32.9706 48.0544 31.9558C46.8526 31.1197 45.3588 30.6173 43.5731 30.4485C43.1214 30.4058 42.6509 30.3845 42.1618 30.3845H30.8677V51.0085ZM82.4091 37.7921C81.6856 38.1904 80.9991 38.6227 80.3494 39.0887C80.1982 39.1972 80.049 39.3076 79.9018 39.4197C79.1528 39.9996 78.4662 40.6173 77.8421 41.273C77.8225 41.2935 77.803 41.3142 77.7835 41.3348C76.7424 42.4393 75.8771 43.6506 75.1877 44.9686C74.6044 46.0998 74.1786 47.2835 73.9103 48.5197C73.6816 49.5731 73.5673 50.6646 73.5673 51.7941H90.1156C90.1156 50.4847 90.3447 49.4044 90.803 48.5532C90.939 48.3007 91.0937 48.0669 91.2671 47.8519C91.6783 47.342 92.1947 46.9374 92.8163 46.6381C93.7002 46.2126 94.7642 45.9998 96.0081 45.9998C96.3152 45.9998 96.6098 46.0122 96.892 46.0369C97.0087 46.0472 97.1233 46.0595 97.2358 46.074C98.2145 46.1999 99.0329 46.4862 99.691 46.9328C99.9294 47.086 100.151 47.2559 100.356 47.4424C100.94 47.9729 101.389 48.6378 101.704 49.4371C101.979 50.1342 102.165 50.9199 102.262 51.7941C102.279 51.9431 102.293 52.0947 102.304 52.2488C102.33 52.5919 102.343 52.9478 102.343 53.3164V56.1153H97.2358C97.203 56.1153 97.1703 56.1154 97.1376 56.1154C96.7566 56.116 96.3801 56.1197 96.0081 56.1265C95.2278 56.1409 94.4671 56.1692 93.7261 56.2114C93.6105 56.218 93.4953 56.225 93.3806 56.2322C93.3488 56.2342 93.3171 56.2363 93.2853 56.2384C92.7298 56.2746 92.1856 56.3187 91.6526 56.3709C91.5548 56.3805 91.4574 56.3903 91.3604 56.4004C90.9382 56.4444 90.5233 56.4935 90.1156 56.5477C89.9662 56.5675 89.8177 56.588 89.6703 56.6093C89.6593 56.6108 89.6483 56.6124 89.6373 56.614C89.6134 56.6175 89.5896 56.6209 89.5659 56.6244C88.3579 56.8014 87.2153 57.0246 86.1381 57.2939C84.2715 57.7605 82.6013 58.3542 81.1274 59.0748C81.1135 59.0817 81.0996 59.0885 81.0857 59.0953C81.0393 59.1181 80.9932 59.141 80.9472 59.1641C80.0102 59.634 79.1543 60.1564 78.3795 60.7312C76.916 61.8171 75.7162 63.0732 74.7803 64.4995C74.4183 65.0512 74.0958 65.6283 73.8128 66.2309C72.8307 68.3915 72.3396 70.8468 72.3396 73.5966C72.3396 76.7393 73.1581 79.522 74.7949 81.9445C76.4317 84.3342 78.6087 86.2002 81.3258 87.5424C83.4264 88.5677 85.6797 89.2013 88.0859 89.4434C88.8297 89.5183 89.5881 89.5557 90.3611 89.5557C90.7356 89.5557 91.1019 89.5481 91.4598 89.5329C92.4691 89.4901 93.4123 89.387 94.2895 89.2235C95.1946 89.0548 96.0294 88.8218 96.7938 88.5245C98.5616 87.8043 100.051 86.8877 101.262 85.7746C101.857 85.2273 102.402 84.6576 102.899 84.0655C102.916 84.0452 102.933 84.0249 102.95 84.0045C103.005 83.9393 103.058 83.8737 103.111 83.8079C103.17 84.0883 103.231 84.363 103.295 84.632C103.32 84.7367 103.346 84.8405 103.372 84.9435C103.675 86.1424 104.042 87.2243 104.473 88.1891C104.531 88.3194 104.59 88.4476 104.651 88.5736H121.248V87.7388C120.575 86.4846 120.045 85.0446 119.658 83.4187C119.651 83.3892 119.644 83.3595 119.637 83.3298C119.617 83.245 119.598 83.1597 119.578 83.0739C119.457 82.5171 119.354 81.8805 119.27 81.1641C119.101 79.7222 119.009 77.9569 118.992 75.8682C118.99 75.6387 118.989 75.4053 118.989 75.168V53.4146C118.989 52.6721 118.959 51.9519 118.9 51.254C118.673 48.6056 118.017 46.2777 116.931 44.2704C116.772 43.9767 116.603 43.6899 116.426 43.41C116.318 43.2395 116.207 43.0716 116.092 42.9062C115.353 41.8287 114.511 40.8544 113.565 39.9831C112.76 39.241 111.88 38.5738 110.925 37.9812C110.072 37.4516 109.159 36.9818 108.186 36.5717C107.331 36.2074 106.444 35.8903 105.527 35.6203C104.489 35.3145 103.411 35.0691 102.294 34.8842C101.55 34.7611 100.788 34.6648 100.009 34.5953C99.4064 34.5415 98.7931 34.5038 98.1693 34.4821C97.7483 34.4675 97.3226 34.4601 96.892 34.4601C96.5951 34.4601 96.3005 34.4633 96.0081 34.4695C93.4212 34.5247 91.015 34.824 88.7897 35.3675C88.3702 35.47 87.957 35.5811 87.5503 35.7009C87.4557 35.7288 87.3614 35.7572 87.2675 35.786C86.4219 36.0387 85.6109 36.3231 84.8345 36.6393C83.9846 36.9855 83.1761 37.3698 82.4091 37.7921ZM92.9999 65.6809C92.9655 65.696 92.9314 65.7112 92.8975 65.7267C92.6609 65.8343 92.4352 65.951 92.2203 66.0766C91.6121 66.4323 91.0906 66.8602 90.6557 67.3603C90.2448 67.8362 89.9053 68.3548 89.6373 68.9164C89.5338 69.1331 89.441 69.3562 89.3589 69.5857C89.3317 69.6616 89.3056 69.7382 89.2808 69.8156C89.0189 70.7322 88.8879 71.6979 88.8879 72.7128C88.8879 73.6949 89.1171 74.5787 89.5754 75.3644C89.5959 75.3958 89.6167 75.4269 89.6377 75.4578C90.0124 76.0066 90.4774 76.4653 91.0325 76.8337C91.1939 76.9408 91.363 77.0403 91.5396 77.1322C91.6337 77.1811 91.7291 77.2272 91.8258 77.2705C91.9749 77.3373 92.127 77.3974 92.2823 77.4508C92.3596 77.4774 92.4376 77.5023 92.5164 77.5256C92.9478 77.6529 93.402 77.7306 93.8792 77.7587C93.8852 77.759 93.8913 77.7594 93.8973 77.7597C94.0263 77.7669 94.1571 77.7706 94.2895 77.7706C95.2338 77.7706 96.1043 77.6793 96.9009 77.4969C96.9708 77.4809 97.04 77.4643 97.1087 77.4469C97.1183 77.4444 97.128 77.442 97.1376 77.4395C97.364 77.3814 97.5843 77.3156 97.7984 77.2422C97.8405 77.2278 97.8823 77.2131 97.9239 77.1981C98.2855 77.0675 98.629 76.9146 98.9544 76.7393C99.1604 76.6261 99.3587 76.5091 99.5493 76.3885C100.097 76.042 100.581 75.6654 101.002 75.2587C101.016 75.2449 101.03 75.231 101.044 75.2171C101.39 74.8777 101.692 74.5176 101.95 74.1368C102.096 73.9204 102.227 73.707 102.343 73.4966V64.9542H97.1376C96.5273 64.9542 95.953 64.9877 95.4148 65.0546C95.2802 65.0714 95.1479 65.0902 95.0178 65.1112C94.7666 65.1516 94.5238 65.1998 94.2895 65.2558C93.907 65.3473 93.5469 65.4595 93.2092 65.5926C93.1385 65.6213 93.0688 65.6507 92.9999 65.6809ZM88.7897 28.5676H102.294L115.994 13.1487H98.5125L88.7897 28.5676ZM119.437 28.4016C120.079 28.866 120.702 29.3552 121.306 29.8694C121.365 29.8197 121.425 29.7702 121.484 29.7209C124.776 26.9995 128.531 25.0736 132.503 23.774C136.751 22.3505 141.232 21.7548 145.779 21.7548C151.807 21.7548 157.683 22.6767 163.07 24.9545C166.248 26.2786 169.22 28.0341 171.837 30.2818C174.419 28.0676 177.316 26.2694 180.473 24.889C185.5 22.6727 190.919 21.7548 196.433 21.7548C202.461 21.7548 208.338 22.899 213.738 25.5684C216.491 26.9214 218.992 28.6102 221.206 30.6183C223.99 28.2134 227.131 26.2924 230.551 24.841C235.593 22.6676 241.015 21.7548 246.548 21.7548C252.089 21.7548 257.524 22.6601 262.571 24.8316C266.11 26.3205 269.356 28.3095 272.217 30.8212C272.778 30.3189 273.358 29.8363 273.956 29.3733L273.995 29.3432L274.034 29.3135C277.467 26.6978 281.331 24.852 285.418 23.6257C289.681 22.3234 294.155 21.7548 298.724 21.7548C304.356 21.7548 309.852 22.695 314.977 24.8739C320.394 27.1622 324.996 30.7658 328.383 35.6916C332.104 41.0681 333.527 47.2569 333.527 53.4146V75.168C333.527 78.3345 333.722 79.8799 333.82 80.3477C334.005 81.1688 334.198 81.5859 334.276 81.7315L335.786 84.5454V101.279H300.401C297.658 101.995 294.873 102.261 292.193 102.261C287.126 102.261 282.19 101.208 277.585 98.9603L277.558 98.9471L277.531 98.9338C275.077 97.7213 272.821 96.2161 270.806 94.4218C268.31 96.3878 265.556 97.9925 262.592 99.2453C257.564 101.37 252.16 102.261 246.646 102.261C241.127 102.261 235.727 101.369 230.694 99.2634C227.212 97.8068 224.013 95.8673 221.183 93.4236C218.908 95.4473 216.353 97.1418 213.567 98.508L213.544 98.5192L213.521 98.5303C208.2 101.114 202.448 102.261 196.531 102.261C191.026 102.261 185.613 101.373 180.596 99.2077L180.544 99.1855L180.493 99.1628C177.356 97.776 174.465 95.99 171.881 93.7942C171.348 94.2455 170.801 94.6788 170.241 95.0944L170.188 95.1341L170.134 95.1732C166.713 97.656 162.879 99.3852 158.863 100.539C154.67 101.744 150.251 102.261 145.73 102.261C141.715 102.261 137.748 101.825 133.953 100.802V101.279H98.569C95.8254 101.995 93.0403 102.261 90.3611 102.261C85.2939 102.261 80.3581 101.208 75.7528 98.9603L75.7257 98.9471L75.6988 98.9338C71.1228 96.6733 67.2379 93.3951 64.3126 89.1241L64.2898 89.091L64.2673 89.0577C61.2006 84.5188 59.726 79.3999 59.6384 74.1005C54.6006 75.9938 49.1802 76.88 43.5731 77.0055V101.279H0.926575V4.37168H42.1618C49.4156 4.37168 56.4 5.69827 62.6775 8.88242C68.7569 11.9497 73.8028 16.3889 77.3652 22.2469C77.4294 22.3519 77.4929 22.4571 77.5559 22.5625L91.5037 0.443298H144.279L119.437 28.4016ZM159.829 86.6078C160.852 86.0958 161.799 85.5235 162.671 84.8907C163.11 84.5646 163.528 84.2277 163.923 83.8801C165.352 82.6226 166.489 81.2244 167.336 79.6856C168.188 78.1094 168.705 76.421 168.884 74.6204C168.886 74.6057 168.887 74.591 168.889 74.5763C168.934 74.11 168.956 73.6361 168.956 73.1547C168.956 69.5467 168.054 66.6452 166.25 64.4504C166.172 64.3551 166.092 64.2612 166.01 64.1685C165.528 63.6132 165.01 63.0894 164.454 62.5972C164.006 62.2002 163.535 61.8237 163.039 61.4678C161.827 60.5974 160.473 59.8499 158.976 59.2253C158.802 59.1527 158.626 59.0818 158.448 59.0125C156.537 58.2685 154.54 57.6294 152.457 57.0953C152.122 57.0093 151.784 56.9261 151.444 56.8455C150.829 56.6998 150.206 56.563 149.577 56.4351C149.197 56.358 148.815 56.2842 148.43 56.2136C148.009 56.1346 147.604 56.0532 147.216 55.9695C147.156 55.9567 147.097 55.9438 147.039 55.9309C146.579 55.8296 146.142 55.7249 145.73 55.6167C145.558 55.5718 145.391 55.5263 145.227 55.4801C145.221 55.4783 145.214 55.4765 145.208 55.4747C145.145 55.4569 145.083 55.439 145.021 55.421C144.931 55.3947 144.842 55.3682 144.754 55.3415C144.635 55.3052 144.518 55.2685 144.404 55.2315C143.894 55.0514 143.425 54.8645 142.997 54.6707C142.492 54.4416 142.044 54.203 141.654 53.9547C141.431 53.8027 141.225 53.6475 141.037 53.4891C140.94 53.4079 140.848 53.3258 140.76 53.2429C140.467 52.9657 140.225 52.6791 140.034 52.3834C139.92 52.1787 139.826 51.9662 139.752 51.7457C139.612 51.3314 139.542 50.8893 139.542 50.4192C139.542 49.5002 139.771 48.6886 140.227 47.9844C140.275 47.911 140.325 47.8387 140.377 47.7675C140.378 47.7668 140.378 47.7661 140.379 47.7653C140.411 47.7212 140.445 47.6777 140.479 47.6348C141.022 46.945 141.725 46.4 142.587 45.9998C143.536 45.5742 144.584 45.3614 145.73 45.3614C145.746 45.3614 145.762 45.3614 145.779 45.3615C146.238 45.363 146.672 45.3853 147.08 45.4284C147.201 45.4412 147.32 45.456 147.437 45.4725C147.477 45.4781 147.516 45.4839 147.555 45.49C147.647 45.5041 147.737 45.5194 147.826 45.5359C148.528 45.6664 149.139 45.8701 149.658 46.1471C149.661 46.1483 149.663 46.1496 149.666 46.1509C149.861 46.2488 150.045 46.3558 150.218 46.4719C150.229 46.4797 150.241 46.4875 150.253 46.4954C150.309 46.5339 150.364 46.5735 150.418 46.614C150.858 46.944 151.219 47.3389 151.501 47.7988C151.601 47.9604 151.69 48.13 151.77 48.3077C151.944 48.6685 152.085 49.0577 152.193 49.4753C152.369 50.1564 152.457 50.9129 152.457 51.745H169.005C169.005 51.1935 168.98 50.6528 168.931 50.1227C168.91 49.9063 168.886 49.6917 168.857 49.4789C168.856 49.4686 168.854 49.4584 168.853 49.4482C168.515 46.9766 167.617 44.7468 166.157 42.7589C165.501 41.8384 164.747 40.9908 163.893 40.216C163.438 39.8032 162.955 39.4111 162.444 39.0396C161.283 38.1964 159.978 37.4596 158.528 36.8292C158.404 36.7753 158.279 36.7222 158.153 36.6699C157.233 36.2792 156.267 35.9404 155.255 35.6534C155.153 35.6245 155.05 35.5961 154.947 35.5682C152.22 34.8295 149.163 34.4601 145.779 34.4601C145.762 34.4601 145.746 34.4602 145.73 34.4602C142.841 34.4638 140.213 34.7857 137.847 35.426C137.797 35.4396 137.747 35.4533 137.697 35.4672C137.289 35.5803 136.89 35.7029 136.498 35.8351C135.132 36.2795 133.869 36.8107 132.71 37.4288C131.564 38.0402 130.518 38.7366 129.574 39.5179C129.376 39.6815 129.182 39.8479 128.994 40.017C127.41 41.4387 126.18 43.0565 125.302 44.8704C124.353 46.8673 123.878 48.9952 123.878 51.254C123.878 52.0012 123.927 52.7215 124.025 53.4146C124.232 54.8773 124.658 56.2195 125.302 57.4412C125.564 57.9212 125.851 58.3838 126.164 58.8289C127.025 60.0533 128.08 61.1458 129.329 62.1061C130.065 62.6727 130.854 63.2025 131.695 63.6955C132.797 64.342 133.989 64.9252 135.27 65.4453C136.055 65.7592 136.857 66.052 137.676 66.3236C138.008 66.4335 138.342 66.5399 138.679 66.6429C139.186 66.7979 139.7 66.9451 140.22 67.0845C140.327 67.1131 140.434 67.1414 140.542 67.1693C141.213 67.3441 141.895 67.506 142.587 67.655C142.676 67.6743 142.764 67.6936 142.852 67.7129C143.852 67.933 144.768 68.1531 145.599 68.3731C145.655 68.388 145.71 68.4028 145.766 68.4176C145.816 68.4312 145.866 68.4448 145.916 68.4583C145.986 68.4773 146.055 68.4963 146.124 68.5153C146.14 68.5197 146.155 68.524 146.171 68.5284C146.171 68.5285 146.171 68.5283 146.171 68.5284C146.803 68.7041 147.381 68.8801 147.905 69.0558C147.943 69.0685 147.981 69.0813 148.018 69.094C148.073 69.1125 148.127 69.1311 148.18 69.1497C148.442 69.2407 148.689 69.3317 148.921 69.4227C149.363 69.5859 149.765 69.7547 150.128 69.9291C150.197 69.9625 150.265 69.9961 150.332 70.0299C151.103 70.4218 151.681 70.8414 152.064 71.2887C152.686 71.9435 152.997 72.7291 152.997 73.6458C152.997 74.499 152.799 75.2658 152.404 75.9461C152.344 76.0488 152.28 76.1495 152.211 76.2483C152.136 76.3521 152.055 76.4528 151.97 76.5504C151.461 77.1305 150.772 77.6027 149.904 77.967C148.921 78.3925 147.677 78.6053 146.172 78.6053C146.023 78.6053 145.875 78.6033 145.73 78.5992C145.664 78.5974 145.598 78.5951 145.533 78.5925C145.467 78.5898 145.402 78.5867 145.337 78.5831C145.039 78.567 144.749 78.5419 144.465 78.5081C144.226 78.4795 143.992 78.4447 143.763 78.4036C143.081 78.2812 142.443 78.1029 141.85 77.8688C141.616 77.7761 141.39 77.6735 141.172 77.561C140.951 77.4465 140.739 77.3217 140.536 77.1866C140.531 77.1835 140.527 77.1804 140.522 77.1773C139.918 76.7731 139.394 76.2776 138.951 75.6907C138.918 75.6479 138.886 75.6046 138.855 75.5608C138.135 74.5133 137.742 73.1711 137.676 71.5342H122.258C122.258 71.9303 122.275 72.3258 122.309 72.7206C122.38 73.5391 122.524 74.3549 122.742 75.168C123.175 76.7828 123.897 78.3869 124.909 79.9803C125.279 80.5457 125.686 81.0918 126.128 81.6184C126.134 81.6259 126.14 81.6333 126.147 81.6408C126.818 82.4374 127.571 83.1895 128.407 83.8973C128.543 84.0126 128.682 84.1267 128.822 84.2396C129.499 84.7828 130.225 85.2987 131.003 85.7873C131.594 86.159 132.214 86.5148 132.864 86.8549C133.219 87.0374 133.582 87.2106 133.953 87.3746C135.094 87.8787 136.311 88.2954 137.605 88.6247C140.042 89.2454 142.75 89.5557 145.73 89.5557C145.878 89.5557 146.025 89.555 146.172 89.5536C149.157 89.5249 151.887 89.2049 154.36 88.5936C154.405 88.5825 154.449 88.5713 154.494 88.5601C154.784 88.4868 155.071 88.4095 155.354 88.3281C156.979 87.8612 158.471 87.2878 159.829 86.6078ZM179.44 40.525C178.871 41.0566 178.332 41.6212 177.823 42.2187C175.76 44.6412 174.205 47.5056 173.158 50.812C173.062 51.1206 172.971 51.4316 172.884 51.745C172.784 52.1078 172.69 52.4739 172.602 52.8434C172.123 54.8476 171.822 56.9493 171.699 59.1485C171.698 59.1778 171.696 59.2071 171.694 59.2364C171.655 59.9694 171.635 60.7132 171.635 61.4678V62.5972C171.635 63.2223 171.649 63.8401 171.676 64.4504C171.813 67.5421 172.297 70.4435 173.127 73.1547C173.137 73.1875 173.147 73.2202 173.158 73.2529C174.205 76.5266 175.76 79.391 177.823 81.8462C178.361 82.4687 178.933 83.0566 179.538 83.61C181.289 85.21 183.319 86.5208 185.63 87.5424C188.74 88.8846 192.374 89.5557 196.531 89.5557C200.787 89.5557 204.601 88.7373 207.973 87.1005C209.982 86.1152 211.741 84.9018 213.248 83.4605C213.629 83.0964 213.994 82.7177 214.343 82.3245C214.953 81.6367 215.514 80.9044 216.026 80.1276C217.118 78.48 217.907 76.6855 218.392 74.7441C218.394 74.7389 218.395 74.7337 218.396 74.7285C218.767 73.2401 218.959 71.6653 218.972 70.0042C218.973 69.8764 218.973 69.748 218.972 69.6192H203.406C203.41 69.7776 203.41 69.9338 203.406 70.0875C203.377 71.3949 203.099 72.5318 202.571 73.4984C202.015 74.546 201.18 75.3644 200.067 75.9537C198.987 76.5102 197.677 76.7885 196.139 76.7885C194.404 76.7885 193.012 76.4284 191.965 75.7082C190.917 74.9552 190.115 73.9404 189.559 72.6637C189.002 71.3542 188.626 69.8483 188.429 68.146C188.266 66.411 188.184 64.5614 188.184 62.5972V61.4678C188.184 59.5363 188.266 57.7194 188.429 56.0171C188.626 54.3148 188.986 52.809 189.51 51.4995C190.066 50.1573 190.868 49.1097 191.916 48.3568C192.963 47.6039 194.338 47.2274 196.04 47.2274C197.743 47.2274 199.134 47.6202 200.214 48.4059C201.327 49.1588 202.146 50.1737 202.67 51.4504C203.132 52.5769 203.377 53.8309 203.406 55.2123C203.41 55.3965 203.41 55.5829 203.406 55.7716H218.972C218.973 55.621 218.973 55.4711 218.972 55.322C218.956 53.1499 218.709 51.1361 218.23 49.2805C218.228 49.2751 218.227 49.2696 218.226 49.2642C217.751 47.4324 217.051 45.755 216.124 44.232C215.881 43.8314 215.625 43.4428 215.358 43.0662C214.722 42.1688 214.019 41.3395 213.249 40.5781C211.782 39.1261 210.072 37.9216 208.12 36.9645C204.748 35.2949 200.853 34.4601 196.433 34.4601C192.308 34.4601 188.691 35.1476 185.581 36.5225C183.253 37.5381 181.206 38.8722 179.44 40.525ZM221.437 68.477C221.499 68.8535 221.568 69.227 221.643 69.5973C221.9 70.8687 222.23 72.1037 222.634 73.302C223.747 76.5757 225.383 79.4401 227.544 81.8954C227.951 82.3518 228.377 82.789 228.821 83.2071C230.735 85.008 232.994 86.4531 235.597 87.5424C238.805 88.8846 242.488 89.5557 246.646 89.5557C250.803 89.5557 254.47 88.8846 257.645 87.5424C259.811 86.627 261.741 85.4603 263.434 84.0424C264.224 83.3813 264.962 82.6656 265.649 81.8954C267.745 79.5141 269.348 76.7478 270.458 73.5966C270.492 73.4988 270.526 73.4006 270.56 73.302C271.468 70.6041 272.006 67.721 272.173 64.6526C272.174 64.6355 272.175 64.6184 272.176 64.6013C272.177 64.5674 272.179 64.5335 272.181 64.4995C272.213 63.8571 272.229 63.2066 272.229 62.5481V61.5169C272.229 58.07 271.794 54.8666 270.922 51.9066C270.911 51.8691 270.9 51.8316 270.889 51.7941C270.785 51.447 270.676 51.1033 270.56 50.7629C269.447 47.4565 267.81 44.5921 265.649 42.1696C265.362 41.8477 265.066 41.5353 264.76 41.2325C262.766 39.2564 260.378 37.6864 257.596 36.5225C254.421 35.1476 250.738 34.4601 246.548 34.4601C242.39 34.4601 238.724 35.1476 235.548 36.5225C232.929 37.6296 230.655 39.1041 228.726 40.9461C228.317 41.3374 227.923 41.7452 227.544 42.1696C225.383 44.5921 223.747 47.4565 222.634 50.7629C222.089 52.364 221.678 54.0394 221.4 55.7892C221.341 56.1607 221.288 56.5356 221.241 56.9138C221.056 58.3966 220.964 59.931 220.964 61.5169V62.5481C220.964 64.6031 221.122 66.5794 221.437 68.477ZM237.954 56.0662C238.249 54.3312 238.74 52.809 239.427 51.4995C240.115 50.1573 241.032 49.1097 242.177 48.3568C243.356 47.6039 244.813 47.2274 246.548 47.2274C248.315 47.2274 249.789 47.6039 250.967 48.3568C252.146 49.1097 253.079 50.1573 253.766 51.4995C254.453 52.809 254.945 54.3312 255.239 56.0662C255.534 57.7685 255.681 59.5854 255.681 61.5169V62.5481C255.681 64.545 255.534 66.411 255.239 68.146C254.945 69.8811 254.453 71.4033 253.766 72.7128C253.079 73.9895 252.146 74.9879 250.967 75.7082C249.821 76.4284 248.381 76.7885 246.646 76.7885C244.878 76.7885 243.405 76.4284 242.226 75.7082C241.048 74.9879 240.115 73.9895 239.427 72.7128C238.74 71.4033 238.249 69.8811 237.954 68.146C237.66 66.411 237.512 64.545 237.512 62.5481V61.5169C237.512 59.5854 237.66 57.7685 237.954 56.0662ZM275.637 49.0538C275.479 49.9408 275.4 50.8543 275.4 51.7941H291.948C291.948 50.4847 292.177 49.4044 292.635 48.5532C292.771 48.3007 292.926 48.0669 293.099 47.8519C293.511 47.342 294.027 46.9375 294.649 46.6381C295.533 46.2126 296.597 45.9998 297.841 45.9998C298.148 45.9998 298.442 46.0122 298.724 46.0369C298.841 46.0472 298.956 46.0595 299.068 46.074C300.047 46.1999 300.865 46.4862 301.523 46.9328C301.762 47.086 301.984 47.2559 302.189 47.4424C302.773 47.9729 303.222 48.6378 303.537 49.4371C303.811 50.1342 303.997 50.9199 304.095 51.7941C304.111 51.9431 304.125 52.0947 304.137 52.2488C304.162 52.5919 304.175 52.9478 304.175 53.3164V56.1153H299.068C299.035 56.1153 299.003 56.1154 298.97 56.1154C298.589 56.116 298.213 56.1197 297.841 56.1265C297.06 56.1409 296.299 56.1692 295.559 56.2114C295.443 56.218 295.328 56.225 295.213 56.2322C295.181 56.2342 295.149 56.2363 295.118 56.2384C294.562 56.2746 294.018 56.3187 293.485 56.3709C293.387 56.3805 293.29 56.3903 293.193 56.4004C292.771 56.4444 292.356 56.4935 291.948 56.5477C291.799 56.5675 291.65 56.588 291.503 56.6093C291.492 56.6108 291.481 56.6124 291.47 56.614C291.446 56.6175 291.422 56.6209 291.398 56.6244C290.19 56.8014 289.048 57.0246 287.97 57.2939C286.855 57.5728 285.809 57.8971 284.834 58.2669C284.177 58.5156 283.553 58.785 282.96 59.0749C282.946 59.0817 282.932 59.0885 282.918 59.0953C282.872 59.1181 282.826 59.141 282.78 59.1641C281.843 59.634 280.987 60.1564 280.212 60.7312C279.871 60.9839 279.545 61.2458 279.233 61.5169C278.853 61.8469 278.495 62.1907 278.157 62.5481C277.58 63.1587 277.066 63.8092 276.613 64.4995C276.251 65.0512 275.928 65.6283 275.645 66.2309C274.663 68.3915 274.172 70.8468 274.172 73.5966C274.172 73.9101 274.18 74.2199 274.196 74.5262C274.197 74.5304 274.197 74.5345 274.197 74.5387C274.346 77.2982 275.156 79.7668 276.627 81.9445C277.362 83.0168 278.205 83.9838 279.157 84.8452C280.327 85.9034 281.66 86.8025 283.158 87.5424C285.259 88.5677 287.512 89.2013 289.918 89.4434C290.662 89.5183 291.42 89.5557 292.193 89.5557C292.568 89.5557 292.934 89.5481 293.292 89.5329C294.301 89.4901 295.245 89.387 296.122 89.2235C297.027 89.0548 297.862 88.8218 298.626 88.5245C300.394 87.8043 301.883 86.8877 303.095 85.7746C303.689 85.2273 304.235 84.6576 304.732 84.0655C304.749 84.0452 304.766 84.0249 304.783 84.0045C304.837 83.9393 304.891 83.8737 304.944 83.8079C305.002 84.0883 305.063 84.363 305.128 84.6321C305.153 84.7367 305.178 84.8406 305.204 84.9435C305.507 86.1424 305.874 87.2243 306.305 88.1891C306.363 88.3194 306.422 88.4476 306.483 88.5736H323.08V87.7388C322.36 86.3966 321.804 84.8416 321.411 83.0739C321.289 82.5171 321.187 81.8805 321.103 81.1641C320.934 79.7222 320.841 77.9569 320.824 75.8682C320.822 75.6387 320.822 75.4053 320.822 75.168V53.4146C320.822 49.8548 320.135 46.8067 318.763 44.2704C318.604 43.9767 318.436 43.6899 318.259 43.41C318.151 43.2395 318.039 43.0716 317.924 42.9062C315.993 40.0908 313.358 37.9793 310.018 36.5717C309.163 36.2074 308.277 35.8903 307.36 35.6203C304.733 34.8469 301.855 34.4601 298.724 34.4601C298.427 34.4601 298.133 34.4633 297.841 34.4695C294.766 34.5351 291.946 34.9456 289.383 35.7009C289.288 35.7288 289.194 35.7572 289.1 35.786C288.254 36.0387 287.443 36.3232 286.667 36.6394C285.015 37.3121 283.52 38.1286 282.182 39.0887C282.031 39.1972 281.881 39.3076 281.734 39.4197C281.148 39.8735 280.6 40.3505 280.09 40.8507C278.835 42.0826 277.812 43.4552 277.02 44.9686C276.437 46.0998 276.011 47.2835 275.743 48.5197C275.706 48.6907 275.671 48.8626 275.64 49.0356C275.639 49.0416 275.638 49.0477 275.637 49.0538ZM294.832 65.6809C294.798 65.696 294.764 65.7112 294.73 65.7267C294.493 65.8343 294.268 65.951 294.053 66.0766C293.445 66.4323 292.923 66.8602 292.488 67.3603C292.077 67.8361 291.738 68.3548 291.47 68.9163C291.366 69.1331 291.273 69.3562 291.191 69.5857C291.164 69.6616 291.138 69.7382 291.113 69.8156C290.851 70.7322 290.72 71.6979 290.72 72.7128C290.72 73.6949 290.949 74.5787 291.408 75.3644C291.428 75.3958 291.449 75.4269 291.47 75.4578C291.845 76.0067 292.31 76.4653 292.865 76.8337C293.026 76.9408 293.195 77.0403 293.372 77.1322C293.466 77.1811 293.561 77.2272 293.658 77.2705C293.807 77.3373 293.959 77.3974 294.115 77.4508C294.192 77.4774 294.27 77.5023 294.349 77.5256C294.78 77.6529 295.234 77.7306 295.712 77.7587C295.718 77.759 295.724 77.7594 295.73 77.7597C295.859 77.7669 295.989 77.7706 296.122 77.7706C297.066 77.7706 297.937 77.6793 298.733 77.4969C298.803 77.4809 298.872 77.4643 298.941 77.4469C298.951 77.4444 298.96 77.442 298.97 77.4395C299.196 77.3814 299.417 77.3156 299.631 77.2422C299.673 77.2278 299.715 77.2131 299.756 77.198C300.118 77.0675 300.461 76.9146 300.787 76.7393C300.993 76.6261 301.191 76.5091 301.382 76.3885C301.929 76.042 302.414 75.6654 302.834 75.2587C302.848 75.2449 302.863 75.231 302.877 75.2171C303.222 74.8777 303.524 74.5176 303.782 74.1368C303.929 73.9204 304.06 73.707 304.175 73.4966V64.9542H298.97C298.36 64.9542 297.785 64.9877 297.247 65.0546C297.113 65.0714 296.98 65.0902 296.85 65.1112C296.599 65.1516 296.356 65.1998 296.122 65.2558C295.739 65.3473 295.379 65.4595 295.042 65.5926C294.971 65.6213 294.901 65.6507 294.832 65.6809Z" fill="#FA4450"/>
<path d="M262.737 45.9809C262.737 45.9809 268.234 33.3512 267.786 24.0648C267.362 15.2498 264.063 14.7287 264.063 14.7287C264.063 14.7287 257.672 11.412 253.289 24.5535C249.793 35.0373 249.566 47.3045 249.566 47.3045C249.32 47.059 247.783 46.6815 246.826 46.6815C245.868 46.6815 244.331 47.059 244.085 47.3045C244.085 47.3045 243.858 35.0373 240.362 24.5535C235.979 11.412 229.581 14.7287 229.581 14.7287C229.581 14.7287 226.278 15.2498 225.858 24.0648C225.41 33.3512 230.907 45.9809 230.907 45.9809C233.521 51.7016 234.006 51.6124 233.551 53.053C233.096 54.4937 229.014 59.3482 230.048 63.6005C231.066 67.8066 232.637 71.6281 239.937 75.8214C239.937 75.8214 243.397 79.1473 246.822 78.9817C250.247 79.1473 253.707 75.8214 253.707 75.8214C261.008 71.6281 262.579 67.8066 263.596 63.6005C264.624 59.3482 260.549 54.4937 260.093 53.053C259.637 51.6124 260.124 51.7016 262.737 45.9809Z" fill="#F8B15D"/>
</svg>
