<svg width="182" height="152" viewBox="0 0 182 152" fill="none" xmlns="http://www.w3.org/2000/svg">
<circle cx="91" cy="76" r="76" fill="url(#paint0_linear)"/>
<path fill-rule="evenodd" clip-rule="evenodd" d="M99.5845 150.646C97.4988 150.82 95.392 150.91 93.2642 150.91C78.4956 150.91 64.7277 146.638 53.1245 139.259C53.3299 134.961 53.2035 130.737 52.2607 128.383C49.8116 122.263 41.2212 108.047 41.2212 108.047C41.2212 108.047 36.3966 111.892 30.3607 116.701C23.087 122.494 14.0594 129.684 9.59822 133.239C7.91806 134.577 5.60585 134.798 3.70447 133.802C3.6044 133.75 3.5096 133.697 3.40426 133.644C1.86103 132.839 0.802369 131.338 0.554821 129.61C0.307273 127.882 0.907709 126.144 2.16125 124.938C7.80745 119.508 16.7876 110.865 23.8033 104.118C29.6707 98.4716 34.1634 94.1474 34.1634 94.1474C34.1634 94.1474 46.2722 86.6209 51.7656 83.2026C53.5248 82.1071 54.6151 80.2057 54.6783 78.1358C54.7731 73.1585 54.1727 66.1534 54.1727 66.1534L65.3702 62.8563C66.6659 67.586 69.015 72.3948 70.5688 75.3021C71.501 77.0297 73.197 78.22 75.1352 78.4992C80.6603 79.2945 91.8421 80.9115 91.8421 80.9115L90.6886 120.324L99.5845 150.646Z" fill="#B3F0EF"/>
<path fill-rule="evenodd" clip-rule="evenodd" d="M50.665 83.8873L51.7658 83.2026C53.525 82.1071 54.6205 80.2057 54.6837 78.1358C54.7786 73.1585 54.1781 66.1534 54.1781 66.1534L65.3757 62.8563C66.6714 67.586 69.0152 72.3948 70.5742 75.3021C71.5065 77.0297 73.1972 78.2148 75.1407 78.4992L77.9006 78.8995L77.4898 80.5902C76.8472 83.2237 74.7931 85.2778 72.1596 85.9151C68.7097 86.7525 63.9062 87.9218 60.5775 88.7329C58.1757 89.3176 55.6423 88.6381 53.8568 86.9316L50.665 83.8873Z" fill="url(#paint1_linear)"/>
<path fill-rule="evenodd" clip-rule="evenodd" d="M40.6787 101.69C40.6787 101.69 41.8743 109.896 41.6952 116.859C41.6426 118.728 42.3747 120.535 43.7072 121.852C45.0398 123.163 46.8621 123.864 48.7267 123.785C59.3343 123.305 78.4008 121.457 93.4064 114.573C96.7668 113.04 98.2731 109.09 96.7773 105.708C95.0129 101.679 92.7323 95.9276 91.0626 89.9232C91.0626 89.918 46.978 95.917 40.6787 101.69Z" fill="url(#paint2_linear)"/>
<path fill-rule="evenodd" clip-rule="evenodd" d="M91.1836 96.2383C91.1836 96.2383 125.593 137.642 148.109 134.74C170.625 131.833 164.463 92.4777 164.463 92.4777L129.638 78.8152C129.638 78.8152 128.237 95.7116 122.285 99.2932C116.333 102.875 91.8367 80.9114 91.8367 80.9114L91.1836 96.2383Z" fill="#B3F0EF"/>
<path d="M62.1149 69.5221C72.4902 65.8977 78.3448 55.6418 75.1915 46.6148C72.0381 37.5878 61.0709 33.2082 50.6955 36.8326C40.3201 40.457 34.4655 50.7129 37.6189 59.7399C40.7722 68.7669 51.7395 73.1465 62.1149 69.5221Z" fill="#350302"/>
<path fill-rule="evenodd" clip-rule="evenodd" d="M69.0785 49.2937C70.5321 49.1989 71.8542 51.4269 72.0385 54.2658C72.2228 57.1047 71.1905 59.4854 69.7421 59.5802C68.2884 59.675 66.9611 57.447 66.7821 54.6081C66.5977 51.7692 67.63 49.3886 69.0785 49.2937Z" fill="#901500"/>
<path d="M68.4726 54.7714C68.4304 54.9874 68.4094 55.2297 68.4252 55.4877C68.4831 56.3515 68.8834 57.031 69.3258 57.0046C69.3469 57.0046 69.368 56.9941 69.389 56.9888C68.9255 56.6043 68.5621 55.7721 68.4726 54.7714Z" fill="#751104"/>
<path d="M71.1897 54.4554C71.0949 52.9806 70.4049 51.8272 69.6518 51.8746C68.8986 51.922 68.3614 53.1597 68.4562 54.6345C68.4614 54.6819 68.4667 54.724 68.472 54.7714C68.572 54.2553 68.8143 53.8866 69.1251 53.8655C69.5675 53.8392 69.973 54.5133 70.0257 55.3824C70.0784 56.204 69.794 56.894 69.3884 56.9836C69.578 57.1416 69.7834 57.2258 69.9941 57.2153C70.7473 57.1679 71.2845 55.9302 71.1897 54.4554Z" fill="#751104"/>
<path fill-rule="evenodd" clip-rule="evenodd" d="M47.9943 65.8057C49.2952 65.1579 49.3216 62.5613 48.0575 60.0173C46.7882 57.4734 44.7024 55.9302 43.4015 56.5833C42.1005 57.2311 42.0742 59.8224 43.3383 62.3717C44.6024 64.9209 46.6934 66.4536 47.9943 65.8057Z" fill="#901500"/>
<path fill-rule="evenodd" clip-rule="evenodd" d="M47.2415 63.3408C46.8834 63.5093 46.304 63.109 45.9564 62.4507C45.6035 61.7923 45.614 61.1234 45.9722 60.9548C46.2461 60.8284 46.6411 61.0286 46.9729 61.4183C46.9413 61.3446 46.915 61.2761 46.8781 61.2024C46.2461 59.9278 45.2032 59.1588 44.5501 59.4854C43.897 59.8119 43.8865 61.1076 44.5185 62.3769C45.1505 63.6515 46.1987 64.4205 46.8465 64.094C47.1099 63.9623 47.2626 63.6673 47.3153 63.2881C47.2942 63.3092 47.2679 63.3303 47.2415 63.3408Z" fill="#751104"/>
<path fill-rule="evenodd" clip-rule="evenodd" d="M25.399 21.2787C31.1032 17.3601 38.6666 18.4556 42.285 23.7173C45.9034 28.9843 44.2074 36.4371 38.5085 40.3557C32.8044 44.2743 25.241 43.1788 21.6226 37.9171C18.0042 32.6501 19.6949 25.1973 25.399 21.2787Z" fill="#350302"/>
<path fill-rule="evenodd" clip-rule="evenodd" d="M164.468 92.483L129.643 78.8204C129.643 78.8204 128.242 95.7169 122.29 99.2984C120.826 100.178 118.229 99.4986 115.143 97.9712C114.906 98.5611 114.664 99.151 114.421 99.7409C112.957 104.802 111.124 109.785 108.965 114.583C120.715 125.238 136.106 136.288 148.109 134.74C170.631 131.838 164.468 92.483 164.468 92.483Z" fill="#600700"/>
<path fill-rule="evenodd" clip-rule="evenodd" d="M31.9353 35.9525C31.9353 35.9525 25.6413 46.3653 31.2295 51.0371C36.8178 55.7089 46.193 58.4636 52.0183 65.3791L67.2083 64.884C67.2083 64.884 68.0984 52.5698 72.0644 46.8815C76.0357 41.1879 78.1109 33.4507 73.9763 27.3199C69.8418 21.1892 58.3176 22.132 58.3176 22.132C58.3176 22.132 45.9929 18.4398 39.3723 23.633C39.3723 23.633 33.942 27.815 31.9353 35.9525Z" fill="#480703"/>
<path fill-rule="evenodd" clip-rule="evenodd" d="M41.7637 45.0802C41.7637 45.0802 47.7048 64.705 50.2856 72.7213C50.6385 73.7958 51.555 74.5911 52.6663 74.7912C55.9266 75.3337 63.0159 75.7709 69.8261 71.2202C70.8111 70.5618 71.3325 69.4031 71.1692 68.2286C70.474 63.2407 68.4673 49.0726 66.7976 39.3445C66.7976 39.3445 54.0199 35.0677 41.7637 45.0802Z" fill="#A83014"/>
<path fill-rule="evenodd" clip-rule="evenodd" d="M67.5508 43.8741C67.298 42.2993 67.0452 40.7718 66.7976 39.3445C66.7976 39.3445 54.0199 35.0677 41.7637 45.075C41.7637 45.075 42.5169 47.5662 43.6019 51.1267C49.2217 51.6166 61.499 51.6692 67.5508 43.8741Z" fill="#8E220D"/>
<path fill-rule="evenodd" clip-rule="evenodd" d="M64.6858 62.5613C64.6015 64.5259 64.4119 69.361 61.0621 70.1036C57.6175 70.8674 55.1209 66.7644 54.2361 65.079C53.9622 64.5628 54.3046 63.936 54.8839 63.8781C56.4851 63.7201 59.6137 63.246 63.2848 61.8714C63.3743 61.8345 63.4638 61.8029 63.5586 61.766C64.1117 61.5501 64.7121 61.9714 64.6858 62.5613Z" fill="#E66150"/>
<path fill-rule="evenodd" clip-rule="evenodd" d="M38.9194 46.7709C38.9194 46.7709 58.2756 54.3238 69.2256 41.1668C69.2309 41.1668 54.7625 27.5464 38.9194 46.7709Z" fill="#480703"/>
<path fill-rule="evenodd" clip-rule="evenodd" d="M58.1178 53.2914C58.0178 52.8543 57.5911 52.5751 57.154 52.6594C56.7168 52.7437 56.4219 53.1598 56.4903 53.6022C56.7432 55.2402 57.3331 59.0008 57.6227 60.8759C57.6701 61.1656 57.8281 61.4237 58.0652 61.5922C58.3022 61.7607 58.6024 61.8239 58.8868 61.7713C59.1765 61.7186 59.4293 61.5501 59.5873 61.3025C59.7453 61.0602 59.8033 60.76 59.7348 60.4756C59.324 58.6216 58.4865 54.9084 58.1178 53.2914Z" fill="url(#paint3_linear)"/>
<path fill-rule="evenodd" clip-rule="evenodd" d="M52.7613 56.4937C52.7139 56.2514 52.5665 56.0408 52.361 55.9038C52.1556 55.7669 51.9028 55.7195 51.6605 55.7721C51.4182 55.8195 51.2076 55.967 51.0706 56.1724C50.9337 56.3778 50.8863 56.6307 50.939 56.8729C51.0443 57.3733 51.1707 57.9895 51.276 58.4899C51.3287 58.7322 51.4709 58.9429 51.6763 59.0798C51.8817 59.2167 52.1346 59.2642 52.3768 59.2115C52.6191 59.1588 52.8298 59.0166 52.9667 58.8112C53.1037 58.6058 53.1511 58.353 53.0984 58.1107C52.9931 57.6103 52.8667 56.9941 52.7613 56.4937Z" fill="#560D03"/>
<path d="M61.5886 55.7511C61.3779 55.8248 62.9527 53.4336 65.7548 54.8241" stroke="#1B0101" stroke-width="0.5" stroke-miterlimit="10" stroke-linecap="round" stroke-linejoin="round"/>
<path fill-rule="evenodd" clip-rule="evenodd" d="M64.6858 62.5613C64.6015 64.5259 63.9853 68.1812 60.6355 68.9238C57.1909 69.6876 55.1209 66.7644 54.2361 65.079C53.9622 64.5628 54.3046 63.936 54.8839 63.8781C56.4851 63.7201 59.6137 63.246 63.2848 61.8714C63.3743 61.8345 63.4638 61.8029 63.5586 61.766C64.1117 61.5501 64.7121 61.9714 64.6858 62.5613Z" fill="#560D03"/>
<path d="M55.3472 64.4574C56.8061 66.5326 58.3441 67.3964 60.0453 67.0856C62.1732 66.6906 62.8315 64.5206 62.9948 62.6245C59.7398 63.799 56.9536 64.2678 55.3472 64.4574Z" fill="url(#paint4_linear)"/>
<path fill-rule="evenodd" clip-rule="evenodd" d="M93.2643 15.464L95.3237 13.4046C96.7352 11.993 98.6577 11.1977 100.654 11.1977C102.655 11.1977 104.572 11.993 105.984 13.4046C107.396 14.8161 108.191 16.7386 108.191 18.7348C108.191 20.7362 107.396 22.6534 105.984 24.065L103.925 26.1243L103.935 26.1349L93.2696 36.8005L93.259 36.79L93.2485 36.8005L82.5829 26.1349L82.5934 26.1243L80.534 24.065C79.1225 22.6534 78.3271 20.731 78.3271 18.7348C78.3271 16.7333 79.1225 14.8161 80.534 13.4046C83.4783 10.4604 88.2554 10.4604 91.1996 13.4046L93.2643 15.464Z" stroke="white" stroke-width="2" stroke-miterlimit="10"/>
<path fill-rule="evenodd" clip-rule="evenodd" d="M37.0601 43.99C37.0601 43.99 60.8247 50.7106 70.1472 35.152C70.1472 35.1572 56.1055 45.0697 37.0601 43.99Z" fill="#6D0907"/>
<path fill-rule="evenodd" clip-rule="evenodd" d="M7.62863 123.074C4.67385 122.547 1.79282 124.306 0.918497 127.177C0.365464 128.983 0.70255 130.948 1.82968 132.47C2.95682 133.992 4.73179 134.887 6.6279 134.887H31.4406L32.5994 127.535C32.5941 127.54 16.2454 124.617 7.62863 123.074Z" fill="#DCFFFD"/>
<path fill-rule="evenodd" clip-rule="evenodd" d="M31.3033 127.403L42.0427 127.45L47.178 124.269C48.0102 123.943 48.953 124.032 49.7114 124.506L50.7437 125.154L52.3712 125.381C53.4246 125.528 54.2094 126.429 54.2041 127.493L54.1831 134.961C54.1778 136.299 52.9611 137.3 51.6497 137.042L40.7049 134.887H29.876L31.3033 127.403Z" fill="#A11800"/>
<path fill-rule="evenodd" clip-rule="evenodd" d="M52.3715 125.381L51.3339 125.238C51.2865 129.162 51.434 133.086 51.4972 137.01L51.65 137.042C52.9614 137.3 54.1834 136.299 54.1834 134.961L54.2044 127.493C54.2097 126.429 53.4249 125.528 52.3715 125.381Z" fill="#750E00"/>
<path fill-rule="evenodd" clip-rule="evenodd" d="M95.118 64.5417C93.7012 72.5159 95.9344 86.4049 98.4889 89.839C116.191 113.614 106.421 78.9258 107.832 70.9569C109.249 62.9827 108.559 55.0769 104.293 55.4404C100.132 55.788 96.5348 56.5728 95.118 64.5417Z" fill="url(#paint5_linear)"/>
<path fill-rule="evenodd" clip-rule="evenodd" d="M176.419 30.122C176.72 28.5788 176.398 26.9829 175.519 25.6819C174.634 24.381 173.28 23.4803 171.737 23.1801C160.018 20.9048 133.683 15.7905 121.964 13.5152C120.421 13.215 118.825 13.5415 117.524 14.4211C116.223 15.3007 115.322 16.6596 115.022 18.2028C111.272 37.5273 99.2475 99.4617 95.4922 118.786C95.192 120.33 95.5185 121.925 96.3981 123.226C97.2777 124.527 98.6366 125.428 100.18 125.728C111.899 128.004 138.234 133.118 149.953 135.393C151.496 135.693 153.092 135.367 154.398 134.487C155.699 133.608 156.594 132.249 156.895 130.705C160.645 111.381 172.669 49.4465 176.419 30.122Z" fill="#DC4513"/>
<path fill-rule="evenodd" clip-rule="evenodd" d="M136.658 18.5083C137.275 18.6294 137.822 18.9876 138.17 19.509C138.523 20.0304 138.655 20.6678 138.534 21.2893C138.397 22.0003 138.239 22.8219 138.07 23.6805C137.269 27.7992 139.961 31.7863 144.08 32.5869C148.198 33.3875 152.186 30.6961 152.986 26.5773C153.155 25.7188 153.313 24.8919 153.45 24.1861C153.571 23.5699 153.929 23.0221 154.456 22.6745C154.977 22.3216 155.62 22.1899 156.231 22.311C160.981 23.2328 171.331 25.2448 171.331 25.2448C172.332 25.4396 173.211 26.019 173.775 26.8617C174.338 27.7044 174.554 28.7368 174.359 29.7322L154.835 130.305C154.64 131.301 154.055 132.18 153.218 132.749C152.375 133.318 151.343 133.529 150.342 133.334C138.623 131.058 112.288 125.944 100.569 123.669C99.5737 123.474 98.6941 122.895 98.1253 122.052C97.5564 121.209 97.3458 120.177 97.5406 119.181C101.291 99.8568 113.315 37.9224 117.071 18.5978C117.265 17.6024 117.845 16.7228 118.688 16.154C119.53 15.5851 120.563 15.3744 121.558 15.5693C121.558 15.5746 131.913 17.5866 136.658 18.5083Z" fill="white"/>
<path d="M159.396 67.2068C158.838 65.6636 157.126 64.863 155.583 65.4213C154.208 65.9217 153.429 67.3332 153.671 68.729L150.163 69.9983C148.367 64.8472 143.922 60.7811 138.175 59.7593C135.584 59.3011 133.024 59.5117 130.68 60.2755L128.121 53.2072C129.285 52.4751 129.827 51.0108 129.337 49.6678C128.779 48.1245 127.067 47.324 125.519 47.8823C123.976 48.4406 123.175 50.1523 123.733 51.7008C124.239 53.0913 125.672 53.8708 127.078 53.6022L129.627 60.6547C124.818 62.5982 121.079 66.896 120.11 72.3684C119.604 75.2284 119.915 78.0515 120.879 80.5849L117.366 81.8543C116.644 80.6639 115.164 80.1109 113.805 80.6007C112.262 81.159 111.461 82.8708 112.02 84.4193C112.578 85.9625 114.29 86.7631 115.838 86.2048C117.213 85.7044 117.992 84.2929 117.75 82.8971L121.311 81.612C123.38 86.0784 127.52 89.5019 132.724 90.4236C135.315 90.8819 137.87 90.6659 140.214 89.9075L142.763 96.96C141.53 97.6657 140.941 99.1721 141.446 100.552C142.004 102.095 143.716 102.896 145.259 102.338C146.803 101.779 147.603 100.067 147.045 98.519C146.555 97.1654 145.18 96.3859 143.811 96.586L141.257 89.523C146.065 87.5795 149.8 83.2816 150.774 77.8092C151.185 75.4865 151.053 73.1954 150.479 71.057L154.04 69.7665C154.761 70.9569 156.241 71.5099 157.6 71.0201C159.154 70.4618 159.96 68.7553 159.396 67.2068ZM133.024 88.7803C125.471 87.4425 120.42 80.2057 121.763 72.6581C123.101 65.1105 130.338 60.0595 137.886 61.3973C145.433 62.7351 150.484 69.9667 149.147 77.5195C147.803 85.0724 140.572 90.1234 133.024 88.7803Z" fill="#DC4513"/>
<path d="M137.601 67.1489C137.501 66.8644 137.259 66.6538 136.959 66.6011C136.658 66.5484 136.358 66.659 136.169 66.896L126.214 79.1154C125.924 79.4736 125.977 79.995 126.335 80.29C126.451 80.3848 126.583 80.4427 126.714 80.4638C127.004 80.5164 127.31 80.4111 127.51 80.1688L130.212 76.8506L139.766 78.5466L141.162 82.5916C141.309 83.0288 141.783 83.2553 142.22 83.1078C142.658 82.9551 142.889 82.481 142.737 82.0491L137.601 67.1489ZM131.418 75.3653L136.516 69.1082L139.145 76.7348L131.418 75.3653Z" fill="#DC4513"/>
<path fill-rule="evenodd" clip-rule="evenodd" d="M95.2705 63.2565C94.3751 68.3023 96.7452 76.5188 100.959 77.2667C105.178 78.0146 108.111 70.7409 109.007 65.6952C109.902 60.6494 108.743 56.2251 104.53 55.4772C100.311 54.7293 96.1659 58.2108 95.2705 63.2565Z" fill="url(#paint6_linear)"/>
<path fill-rule="evenodd" clip-rule="evenodd" d="M181.28 59.5328C180.237 65.416 174.744 73.5272 170.277 72.7371C165.811 71.9471 165.69 62.8352 166.732 56.952C167.775 51.0688 170.619 46.655 175.086 47.4504C179.547 48.2404 182.323 53.6496 181.28 59.5328Z" fill="url(#paint7_linear)"/>
<path fill-rule="evenodd" clip-rule="evenodd" d="M177.193 74.5174C176.25 79.8423 171.257 88.9067 167.217 88.1904C163.177 87.4741 163.083 77.5037 164.025 72.1788C164.968 66.8539 167.544 62.8615 171.583 63.5778C175.623 64.2942 178.136 69.1924 177.193 74.5174Z" fill="url(#paint8_linear)"/>
<path fill-rule="evenodd" clip-rule="evenodd" d="M174.733 88.38C173.79 93.7049 168.75 103.049 164.71 102.327C160.67 101.611 160.623 91.3611 161.571 86.0415C162.514 80.7166 165.089 76.7242 169.129 77.4405C173.164 78.1621 175.676 83.0551 174.733 88.38Z" fill="url(#paint9_linear)"/>
<path fill-rule="evenodd" clip-rule="evenodd" d="M168.882 104.429C168.144 108.579 164.378 114.968 161.229 114.404C158.079 113.846 157.884 106.751 158.621 102.606C159.359 98.4558 161.36 95.343 164.51 95.9065C167.665 96.4648 169.619 100.278 168.882 104.429Z" fill="url(#paint10_linear)"/>
<path fill-rule="evenodd" clip-rule="evenodd" d="M146.229 22.6429C148.214 23.0274 149.515 24.9551 149.131 26.9407C148.746 28.9264 146.819 30.222 144.833 29.8376C142.847 29.4531 141.552 27.5254 141.936 25.545C142.321 23.554 144.243 22.2584 146.229 22.6429Z" fill="#860E00"/>
<path fill-rule="evenodd" clip-rule="evenodd" d="M146.029 23.5751C146.813 23.7279 147.324 24.4863 147.172 25.2658C147.019 26.0506 146.26 26.5615 145.476 26.4088C144.691 26.256 144.18 25.4976 144.333 24.7181C144.485 23.9386 145.244 23.4224 146.029 23.5751Z" fill="white"/>
<defs>
<linearGradient id="paint0_linear" x1="14.9928" y1="75.9974" x2="166.998" y2="75.9974" gradientUnits="userSpaceOnUse">
<stop stop-color="#697FCF"/>
<stop offset="1" stop-color="#70C0C3"/>
</linearGradient>
<linearGradient id="paint1_linear" x1="60.8194" y1="69.8093" x2="64.7897" y2="83.0943" gradientUnits="userSpaceOnUse">
<stop stop-color="#480703"/>
<stop offset="0.2841" stop-color="#6C0E02"/>
<stop offset="0.5711" stop-color="#891301"/>
<stop offset="0.8198" stop-color="#9B1700"/>
<stop offset="1" stop-color="#A11800"/>
</linearGradient>
<linearGradient id="paint2_linear" x1="66.0168" y1="97.3467" x2="76.7244" y2="144.349" gradientUnits="userSpaceOnUse">
<stop stop-color="#B3F0EF"/>
<stop offset="1" stop-color="white"/>
</linearGradient>
<linearGradient id="paint3_linear" x1="59.7236" y1="65.3573" x2="56.3591" y2="50.1847" gradientUnits="userSpaceOnUse">
<stop stop-color="#480703"/>
<stop offset="0.2841" stop-color="#6C0E02"/>
<stop offset="0.5711" stop-color="#891301"/>
<stop offset="0.8198" stop-color="#9B1700"/>
<stop offset="1" stop-color="#A11800"/>
</linearGradient>
<linearGradient id="paint4_linear" x1="59.1245" y1="63.3507" x2="60.6521" y2="69.1465" gradientUnits="userSpaceOnUse">
<stop stop-color="white" stop-opacity="0"/>
<stop offset="1" stop-color="white"/>
</linearGradient>
<linearGradient id="paint5_linear" x1="105.555" y1="60.5005" x2="97.1941" y2="107.596" gradientUnits="userSpaceOnUse">
<stop stop-color="#480703"/>
<stop offset="0.2841" stop-color="#6C0E02"/>
<stop offset="0.5711" stop-color="#891301"/>
<stop offset="0.8198" stop-color="#9B1700"/>
<stop offset="1" stop-color="#A11800"/>
</linearGradient>
<linearGradient id="paint6_linear" x1="113.433" y1="68.2717" x2="91.3831" y2="64.357" gradientUnits="userSpaceOnUse">
<stop stop-color="#480703"/>
<stop offset="0.2841" stop-color="#6C0E02"/>
<stop offset="0.5711" stop-color="#891301"/>
<stop offset="0.8198" stop-color="#9B1700"/>
<stop offset="1" stop-color="#A11800"/>
</linearGradient>
<linearGradient id="paint7_linear" x1="171.393" y1="72.9312" x2="175.891" y2="47.59" gradientUnits="userSpaceOnUse">
<stop stop-color="#480703"/>
<stop offset="0.2841" stop-color="#6C0E02"/>
<stop offset="0.5711" stop-color="#891301"/>
<stop offset="0.8198" stop-color="#9B1700"/>
<stop offset="1" stop-color="#A11800"/>
</linearGradient>
<linearGradient id="paint8_linear" x1="167.949" y1="88.3207" x2="172.318" y2="63.7105" gradientUnits="userSpaceOnUse">
<stop stop-color="#480703"/>
<stop offset="0.2841" stop-color="#6C0E02"/>
<stop offset="0.5711" stop-color="#891301"/>
<stop offset="0.8198" stop-color="#9B1700"/>
<stop offset="1" stop-color="#A11800"/>
</linearGradient>
<linearGradient id="paint9_linear" x1="165.439" y1="102.46" x2="169.857" y2="77.573" gradientUnits="userSpaceOnUse">
<stop stop-color="#480703"/>
<stop offset="0.2841" stop-color="#6C0E02"/>
<stop offset="0.5711" stop-color="#891301"/>
<stop offset="0.8198" stop-color="#9B1700"/>
<stop offset="1" stop-color="#A11800"/>
</linearGradient>
<linearGradient id="paint10_linear" x1="161.8" y1="114.508" x2="165.085" y2="96.0072" gradientUnits="userSpaceOnUse">
<stop stop-color="#480703"/>
<stop offset="0.2841" stop-color="#6C0E02"/>
<stop offset="0.5711" stop-color="#891301"/>
<stop offset="0.8198" stop-color="#9B1700"/>
<stop offset="1" stop-color="#A11800"/>
</linearGradient>
</defs>
</svg>
