<svg width="156" height="152" viewBox="0 0 156 152" fill="none" xmlns="http://www.w3.org/2000/svg">
<circle cx="76.2451" cy="76" r="76" fill="url(#paint0_linear)"/>
<path opacity="0.5" d="M75.6993 125.012C102.781 125.012 124.735 103.069 124.735 76C124.735 48.9313 102.781 26.9879 75.6993 26.9879C48.6176 26.9879 26.6636 48.9313 26.6636 76C26.6636 103.069 48.6176 125.012 75.6993 125.012Z" stroke="white" stroke-width="2" stroke-miterlimit="10"/>
<path fill-rule="evenodd" clip-rule="evenodd" d="M6.47405 112.192H58.3388C60.1258 112.192 61.578 110.745 61.578 108.953V30.3354C61.578 28.5485 60.1305 27.0963 58.3388 27.0963H6.47405C4.68708 27.0963 3.23486 28.5438 3.23486 30.3354V108.958C3.23486 110.745 4.68236 112.192 6.47405 112.192Z" fill="white"/>
<path opacity="0.2" fill-rule="evenodd" clip-rule="evenodd" d="M22.1231 71.0917H52.3696C54.4536 71.0917 56.1416 69.4038 56.1416 67.3197V19.7409C56.1416 17.6569 54.4536 15.9689 52.3696 15.9689H22.1231C20.039 15.9689 18.3511 17.6569 18.3511 19.7409V67.315C18.3511 69.399 20.039 71.0917 22.1231 71.0917Z" fill="white"/>
<path opacity="0.2" fill-rule="evenodd" clip-rule="evenodd" d="M93.9605 130.661H124.207C126.291 130.661 127.979 128.973 127.979 126.889V79.3146C127.979 77.2306 126.291 75.5427 124.207 75.5427H93.9605C91.8764 75.5427 90.1885 77.2306 90.1885 79.3146V126.889C90.1885 128.973 91.8764 130.661 93.9605 130.661Z" fill="white"/>
<path d="M58.2256 30.7504H6.58252V65.1508H58.2256V30.7504Z" fill="#B53200"/>
<path d="M49.6067 30.7504H15.2109V65.1555H49.6067V30.7504Z" fill="#DC4513"/>
<path d="M9.58594 100.221H58.4284" stroke="#989FA5" stroke-width="2" stroke-miterlimit="10" stroke-linecap="round" stroke-linejoin="round"/>
<path d="M9.58594 70.9691H56.1322" stroke="#989FA5" stroke-width="2" stroke-miterlimit="10" stroke-linecap="round" stroke-linejoin="round"/>
<path d="M9.58594 76.8063H35.3156" stroke="#989FA5" stroke-width="2" stroke-miterlimit="10" stroke-linecap="round" stroke-linejoin="round"/>
<path d="M9.58594 94.8693H25.3811" stroke="#989FA5" stroke-width="2" stroke-miterlimit="10" stroke-linecap="round" stroke-linejoin="round"/>
<path d="M40.1626 94.8693H55.9578" stroke="#8C8C8C" stroke-width="2" stroke-miterlimit="10" stroke-linecap="round" stroke-linejoin="round"/>
<path d="M9.58594 105.572H25.3811" stroke="#989FA5" stroke-width="2" stroke-miterlimit="10" stroke-linecap="round" stroke-linejoin="round"/>
<path d="M40.1626 105.572H55.9578" stroke="#96FD00" stroke-width="2" stroke-miterlimit="10" stroke-linecap="round" stroke-linejoin="round"/>
<path d="M16.5781 85.7648H23.6742" stroke="#E4BA00" stroke-width="2" stroke-miterlimit="10" stroke-linecap="round" stroke-linejoin="round"/>
<path d="M11.4343 88.6597C12.9915 88.6597 14.2539 87.3974 14.2539 85.8402C14.2539 84.283 12.9915 83.0206 11.4343 83.0206C9.87711 83.0206 8.61475 84.283 8.61475 85.8402C8.61475 87.3974 9.87711 88.6597 11.4343 88.6597Z" fill="#E4BA00"/>
<path d="M36.6216 85.7648H43.7176" stroke="#C43425" stroke-width="2" stroke-miterlimit="10" stroke-linecap="round" stroke-linejoin="round"/>
<path d="M31.4778 88.6597C33.035 88.6597 34.2973 87.3974 34.2973 85.8402C34.2973 84.283 33.035 83.0206 31.4778 83.0206C29.9206 83.0206 28.6582 84.283 28.6582 85.8402C28.6582 87.3974 29.9206 88.6597 31.4778 88.6597Z" fill="#C43425"/>
<path d="M25.9705 30.7504C25.9799 30.8164 25.9799 30.873 25.9799 30.9342C25.9799 38.4075 21.5667 44.8764 15.2109 47.8516V61.4873C28.7901 57.9699 38.8565 45.6073 38.8565 30.9342V30.7504H25.9705Z" fill="#DE744A"/>
<path d="M43.2036 54.9712V65.1508H37.1401V54.9712C37.1401 53.2974 38.4933 51.9348 40.1672 51.9348C41.8504 51.9348 43.2036 53.2974 43.2036 54.9712Z" fill="#DE744A"/>
<path d="M21.9438 44.9095H42.8642" stroke="white" stroke-width="2" stroke-miterlimit="10" stroke-linecap="round" stroke-linejoin="round"/>
<path d="M27.5688 50.5533H37.244" stroke="white" stroke-width="2" stroke-miterlimit="10" stroke-linecap="round" stroke-linejoin="round"/>
<path opacity="0.8" d="M141.327 121.033H81.1734C78.8489 121.033 76.9629 119.147 76.9629 116.822V83.6194C76.9629 81.2949 78.8489 79.4089 81.1734 79.4089H141.327C143.652 79.4089 145.537 81.2949 145.537 83.6194V116.822C145.537 119.147 143.652 121.033 141.327 121.033Z" fill="white"/>
<path d="M138.946 112.305C145.565 112.305 150.931 106.977 150.931 100.405C150.931 93.8322 145.565 88.5042 138.946 88.5042C132.327 88.5042 126.96 93.8322 126.96 100.405C126.96 106.977 132.327 112.305 138.946 112.305Z" fill="white" stroke="#CCCCCC" stroke-miterlimit="10"/>
<path d="M136.678 95.6426H137.918C138.182 95.6426 138.413 95.8124 138.489 96.0623C138.79 97.0288 139.337 99.3722 137.843 100.122C137.64 100.226 137.513 100.433 137.517 100.659L137.579 104.545C137.583 104.842 137.371 105.096 137.074 105.139C136.966 105.153 136.834 105.162 136.673 105.162C136.513 105.162 136.381 105.153 136.273 105.139C135.98 105.096 135.763 104.837 135.768 104.545L135.829 100.659C135.834 100.433 135.707 100.226 135.504 100.122C134.009 99.3722 134.556 97.0241 134.858 96.0623C134.933 95.8124 135.165 95.6426 135.429 95.6426H136.678V95.6426Z" stroke="#DC4513" stroke-miterlimit="10" stroke-linecap="round" stroke-linejoin="round"/>
<path d="M143.383 96.1518V104.818C143.383 105.007 143.227 105.162 143.034 105.162H141.577C141.374 105.162 141.214 104.988 141.228 104.79L141.516 101.348C141.525 101.235 141.478 101.121 141.384 101.051C141.006 100.754 140.04 99.8436 140.285 98.382C140.507 97.0524 142.077 96.1943 142.892 95.8359C143.123 95.7369 143.383 95.9019 143.383 96.1518Z" stroke="#DC4513" stroke-miterlimit="10" stroke-linecap="round" stroke-linejoin="round"/>
<path d="M136.009 98.5801V95.6426" stroke="#DC4513" stroke-miterlimit="10" stroke-linecap="round" stroke-linejoin="round"/>
<path d="M137.319 98.5801V95.6426" stroke="#DC4513" stroke-miterlimit="10" stroke-linecap="round" stroke-linejoin="round"/>
<path d="M83.3092 112.305C89.9286 112.305 95.2947 106.977 95.2947 100.405C95.2947 93.8322 89.9286 88.5042 83.3092 88.5042C76.6898 88.5042 71.3237 93.8322 71.3237 100.405C71.3237 106.977 76.6898 112.305 83.3092 112.305Z" fill="white" stroke="#CCCCCC" stroke-miterlimit="10"/>
<path d="M86.8408 100.084V103.521C86.8408 103.71 86.9917 103.861 87.1803 103.861H88.3449C88.5335 103.861 88.6844 103.71 88.6844 103.521V102.069C88.6844 101.961 88.741 101.857 88.8305 101.796C89.0569 101.64 89.4529 101.263 89.4105 100.565C89.3539 99.655 87.9158 99.2354 87.0058 99.7918C86.9021 99.8578 86.8408 99.9662 86.8408 100.084Z" stroke="#DC4513" stroke-miterlimit="10" stroke-linecap="round" stroke-linejoin="round"/>
<path d="M79.773 100.085V103.522C79.773 103.711 79.6221 103.862 79.4335 103.862H78.2689C78.0803 103.862 77.9295 103.711 77.9295 103.522V102.07C77.9295 101.962 77.8729 101.858 77.7833 101.797C77.557 101.641 77.1609 101.264 77.2033 100.566C77.2599 99.656 78.698 99.2364 79.608 99.7927C79.7117 99.8588 79.773 99.9672 79.773 100.085Z" stroke="#DC4513" stroke-miterlimit="10" stroke-linecap="round" stroke-linejoin="round"/>
<path d="M79.7778 100.749C79.8203 100.749 79.8627 100.754 79.9051 100.754H86.7136C86.7607 100.754 86.8031 100.749 86.8456 100.744" stroke="#DC4513" stroke-miterlimit="10" stroke-linecap="round" stroke-linejoin="round"/>
<path d="M78.7837 99.5466V98.0708C78.7837 97.4485 79.2835 96.944 79.9059 96.944H86.7143C87.3367 96.944 87.8412 97.4485 87.8412 98.0708V99.5466" stroke="#DC4513" stroke-miterlimit="10" stroke-linecap="round" stroke-linejoin="round"/>
<path d="M86.8407 103.286H79.7729" stroke="#DC4513" stroke-miterlimit="10" stroke-linecap="round" stroke-linejoin="round"/>
<path d="M111.128 112.305C117.747 112.305 123.113 106.977 123.113 100.405C123.113 93.8322 117.747 88.5042 111.128 88.5042C104.508 88.5042 99.1421 93.8322 99.1421 100.405C99.1421 106.977 104.508 112.305 111.128 112.305Z" fill="white" stroke="#CCCCCC" stroke-miterlimit="10"/>
<path d="M106.682 103.003V104.79C106.682 104.851 106.734 104.898 106.795 104.893L108.568 104.728C108.591 104.728 108.615 104.714 108.634 104.7L115.904 97.3778C115.942 97.34 115.942 97.274 115.904 97.2316L114.235 95.5719C114.193 95.5342 114.131 95.5342 114.089 95.5719L106.719 102.927C106.696 102.951 106.682 102.979 106.682 103.003Z" stroke="#DC4513" stroke-miterlimit="10" stroke-linecap="round" stroke-linejoin="round"/>
<path d="M114.33 98.7978L112.66 97.1373" stroke="#DC4513" stroke-miterlimit="10" stroke-linecap="round" stroke-linejoin="round"/>
<path d="M113.155 100.145L114.588 101.579L115.932 102.927L113.697 105.256L110.863 102.451" stroke="#DC4513" stroke-miterlimit="10" stroke-linecap="round" stroke-linejoin="round"/>
<path d="M109.02 100.632L106.328 97.9678L108.572 95.5491L110.156 97.138L111.335 98.3215" stroke="#DC4513" stroke-miterlimit="10" stroke-linecap="round" stroke-linejoin="round"/>
<path d="M109.086 97.8685L109.93 97.01" stroke="#DC4513" stroke-miterlimit="10" stroke-linecap="round" stroke-linejoin="round"/>
<path d="M113.716 102.499L114.56 101.64" stroke="#DC4513" stroke-miterlimit="10" stroke-linecap="round" stroke-linejoin="round"/>
<path d="M150.644 105.516C153.466 105.516 155.755 103.227 155.755 100.405C155.755 97.582 153.466 95.2937 150.644 95.2937C147.821 95.2937 145.533 97.582 145.533 100.405C145.533 103.227 147.821 105.516 150.644 105.516Z" fill="#697FCF"/>
<path d="M149.291 97.7031L152.789 100.315L149.291 103.102" stroke="white" stroke-width="1.5041" stroke-miterlimit="10" stroke-linecap="round" stroke-linejoin="round"/>
<path d="M69.8527 105.516C72.6755 105.516 74.9638 103.227 74.9638 100.405C74.9638 97.582 72.6755 95.2937 69.8527 95.2937C67.03 95.2937 64.7417 97.582 64.7417 100.405C64.7417 103.227 67.03 105.516 69.8527 105.516Z" fill="#697FCF"/>
<path d="M71.2104 103.102L67.7119 100.494L71.2104 97.7031" stroke="white" stroke-width="1.5041" stroke-miterlimit="10" stroke-linecap="round" stroke-linejoin="round"/>
<path d="M111.189 68.6022C125.511 68.6022 137.121 56.9919 137.121 42.6699C137.121 28.3478 125.511 16.7375 111.189 16.7375C96.8667 16.7375 85.2563 28.3478 85.2563 42.6699C85.2563 56.9919 96.8667 68.6022 111.189 68.6022Z" fill="#697FCF"/>
<path d="M99.0194 33.2493L107.869 41.2601C108.011 41.3874 108.091 41.5665 108.091 41.7551V53.453C108.091 53.7029 108.228 53.9292 108.449 54.0471L113.311 56.5932C113.754 56.8242 114.291 56.5036 114.291 55.9991V41.7599C114.291 41.5713 114.371 41.3921 114.513 41.2648L123.363 33.254C123.816 32.8438 123.528 32.0894 122.915 32.0894H99.4721C98.8544 32.0847 98.5668 32.8391 99.0194 33.2493Z" stroke="white" stroke-width="2" stroke-miterlimit="10"/>
<path d="M149.093 43.5327H144.75C144.274 43.5327 143.892 43.146 143.892 42.6745C143.892 42.1983 144.279 41.8164 144.75 41.8164H149.093C149.569 41.8164 149.951 42.203 149.951 42.6745C149.951 43.146 149.564 43.5327 149.093 43.5327Z" fill="#BBCCF3"/>
<path d="M77.6279 43.5327H73.2854C72.8092 43.5327 72.4272 43.146 72.4272 42.6745C72.4272 42.1983 72.8139 41.8164 73.2854 41.8164H77.6279C78.1041 41.8164 78.486 42.203 78.486 42.6745C78.4907 43.146 78.1041 43.5327 77.6279 43.5327Z" fill="#BBCCF3"/>
<path d="M137.381 70.078L134.311 67.0085C133.976 66.6738 133.976 66.1269 134.311 65.7921C134.646 65.4573 135.193 65.4573 135.528 65.7921L138.597 68.8615C138.932 69.1963 138.932 69.7432 138.597 70.078C138.262 70.4128 137.72 70.4128 137.381 70.078Z" fill="#BBCCF3"/>
<path d="M86.8503 19.5476L83.7809 16.4782C83.4461 16.1434 83.4461 15.5965 83.7809 15.2617C84.1156 14.9269 84.6626 14.9269 84.9973 15.2617L88.0668 18.3311C88.4015 18.6659 88.4015 19.2128 88.0668 19.5476C87.732 19.8824 87.1851 19.8824 86.8503 19.5476Z" fill="#BBCCF3"/>
<path d="M84.9973 70.078L88.0668 67.0085C88.4015 66.6738 88.4015 66.1269 88.0668 65.7921C87.732 65.4573 87.1851 65.4573 86.8503 65.7921L83.7809 68.8615C83.4461 69.1963 83.4461 69.7432 83.7809 70.078C84.1156 70.4128 84.6626 70.4128 84.9973 70.078Z" fill="#BBCCF3"/>
<path d="M135.528 19.5476L138.597 16.4782C138.932 16.1434 138.932 15.5965 138.597 15.2617C138.262 14.9269 137.715 14.9269 137.381 15.2617L134.311 18.3311C133.976 18.6659 133.976 19.2128 134.311 19.5476C134.646 19.8824 135.193 19.8824 135.528 19.5476Z" fill="#BBCCF3"/>
<defs>
<linearGradient id="paint0_linear" x1="0.237937" y1="75.9974" x2="152.243" y2="75.9974" gradientUnits="userSpaceOnUse">
<stop stop-color="#697FCF"/>
<stop offset="1" stop-color="#70C0C3"/>
</linearGradient>
</defs>
</svg>
