<svg width="170" height="152" viewBox="0 0 170 152" fill="none" xmlns="http://www.w3.org/2000/svg">
<circle cx="85" cy="76" r="76" fill="url(#paint0_linear)"/>
<path fill-rule="evenodd" clip-rule="evenodd" d="M69.7283 64.8465L53.7959 108.344H87.0057L69.7283 64.8465Z" fill="#D5E2F7"/>
<path fill-rule="evenodd" clip-rule="evenodd" d="M69.728 64.8465C69.728 64.8465 90.869 52.878 103.587 47.6576C103.587 47.6576 128.733 46.6313 147.308 47.6576C147.308 47.6576 161.005 111.865 162.58 124.659L86.4863 123.946L69.728 64.8465Z" fill="white"/>
<path fill-rule="evenodd" clip-rule="evenodd" d="M157.702 97.9324C156.251 90.6533 154.664 82.8552 153.165 75.6234C120.551 95.0715 82.0978 75.5113 70.8784 68.9225L72.9843 76.3372C105.02 99.2655 140.937 99.4424 157.702 97.9324Z" fill="#E9F0FF"/>
<path fill-rule="evenodd" clip-rule="evenodd" d="M74.3999 81.3334L86.4864 123.946L162.58 124.659C162.084 120.66 160.409 111.647 158.339 101.141C120.54 107.37 87.9669 90.0812 74.3999 81.3334Z" fill="#D5E2F7"/>
<path opacity="0.5" fill-rule="evenodd" clip-rule="evenodd" d="M167.069 117.08L160.038 84.7016C159.123 81.1034 155.466 78.9267 151.868 79.841C148.27 80.7553 146.093 84.4125 147.007 88.0108C148.647 94.6114 149.632 100.274 150.659 105.86C148.812 104.899 146.931 103.931 145.037 102.982C135.428 98.1565 125.796 93.6027 120.516 91.143C117.225 88.2113 111.503 84.8019 104.23 87.1436C104.012 87.126 103.788 87.1554 103.569 87.2321C103.569 87.2321 99.8354 88.6242 94.6917 92.7179C92.4443 94.5111 89.9196 96.8175 87.3183 99.7669C86.87 100.251 86.8995 101.012 87.3891 101.46C87.8728 101.908 88.6337 101.879 89.082 101.389C91.6892 98.6874 94.1962 96.5934 96.42 94.9771C99.4166 92.8064 101.865 91.5382 103.298 90.8952C103.304 90.907 103.316 90.9188 103.322 90.9306C101.977 92.0809 100.337 93.5555 98.5259 95.3193C96.2195 97.5726 93.6535 100.286 91.1171 103.395C90.6865 103.896 90.7514 104.651 91.2527 105.082C91.7541 105.512 92.5092 105.447 92.9398 104.946C95.5293 102.026 98.1365 99.4896 100.467 97.3956C102.189 95.8442 103.764 94.5465 105.062 93.5143C105.197 93.7207 105.333 93.9331 105.469 94.1454C104.425 95.1187 103.209 96.3102 101.865 97.7377C99.9121 99.7964 97.6882 102.333 95.3229 105.371C94.904 105.884 94.9807 106.639 95.4939 107.052C96.0071 107.471 96.7621 107.394 97.1751 106.881C99.6112 104.026 101.888 101.654 103.882 99.7374C105.068 98.593 106.147 97.6198 107.091 96.7998C107.28 97.1184 107.462 97.4428 107.639 97.7613C107.51 97.9088 107.38 98.0504 107.25 98.2037C105.781 99.9203 104.047 102.297 102.266 105.559C101.929 106.132 102.124 106.863 102.69 107.199C103.263 107.536 103.994 107.341 104.33 106.775C105.805 104.427 107.221 102.604 108.477 101.188C108.831 100.787 109.173 100.428 109.503 100.091C110.382 100.009 112.122 99.7846 114.24 99.2183C118.688 101.997 128.668 108.196 138.861 114.254C145.35 118.112 151.974 121.793 157.106 124.789C159.501 126.128 162.468 125.904 164.639 124.223C166.803 122.548 167.765 119.734 167.069 117.08Z" fill="#748BBA"/>
<path fill-rule="evenodd" clip-rule="evenodd" d="M95.6294 41.7235V54.3055C95.6294 56.2521 96.7973 58.0099 98.5964 58.7649C100.561 59.5848 103.109 60.6525 104.926 61.4134C106.33 61.9974 107.94 61.6848 109.019 60.6171C111.09 58.5644 114.499 55.1903 116.647 53.0668C117.868 51.8575 118.351 50.0997 117.927 48.4422C116.375 42.3606 112.6 27.5548 110.996 21.0544L95.6294 41.7235Z" fill="url(#paint1_linear)"/>
<path fill-rule="evenodd" clip-rule="evenodd" d="M84.717 26.7349C84.717 26.7349 70.9494 19.1964 73.5271 1.28196C73.6097 0.703885 74.0226 0.226089 74.583 0.0609255C75.1434 -0.104239 75.7509 0.0727231 76.1284 0.515127C77.957 2.59737 81.0362 5.01585 85.0886 4.3198C91.9075 3.14595 116.965 -1.77357 117.85 5.2046C118.735 12.1828 115.809 26.9709 112.246 34.4504L96.8801 34.5802L84.717 26.7349Z" fill="#B57600"/>
<path fill-rule="evenodd" clip-rule="evenodd" d="M73.3972 2.26703C74.0814 6.986 77.5676 12.2771 86.0735 13.0617C97.7471 14.1352 106.99 4.00125 117.425 4.06614C117.649 4.40826 117.791 4.78578 117.844 5.20459C118.729 12.1828 115.803 26.9708 112.24 34.4504L96.8741 34.5802L84.7109 26.7349C84.7168 26.7349 71.4506 19.4736 73.3972 2.26703Z" fill="#9A5F00"/>
<path fill-rule="evenodd" clip-rule="evenodd" d="M82.8472 16.6894C84.6404 16.7661 86.8406 16.7661 89.3004 16.5773C93.6477 16.247 100.06 15.3209 105.652 13.1679C106.92 12.6783 108.188 13.8698 107.763 15.1616C107.073 17.2734 106.401 19.3497 107.079 20.4705C108.353 22.5704 108.648 28.2981 108.713 31.1767C108.725 31.3772 108.866 31.5483 109.067 31.5896C109.268 31.6309 109.468 31.5306 109.557 31.3477C110.258 30.0441 111.261 28.1624 111.993 26.7231C112.075 32.9286 112.158 39.2638 112.205 42.5671C112.229 44.0948 111.391 45.5046 110.046 46.2243C103.009 50.0054 95.2109 49.97 91.0405 49.5806C89.265 49.4096 87.808 48.1001 87.4364 46.354C85.7611 37.6888 83.7202 23.0954 82.8472 16.6894Z" fill="#F1B8A9"/>
<path fill-rule="evenodd" clip-rule="evenodd" d="M107.816 14.3653C107.645 13.4392 106.648 12.7845 105.652 13.1679C100.06 15.315 93.6477 16.2411 89.3004 16.5773C86.8406 16.7661 84.6404 16.7661 82.8472 16.6894C82.918 17.2203 83.0005 17.8102 83.089 18.4472C92.35 20.618 102.979 16.5832 107.816 14.3653Z" fill="#EAA89B"/>
<path fill-rule="evenodd" clip-rule="evenodd" d="M111.409 29.3834C107.079 33.5066 107.026 43.5934 107.185 47.5397C108.147 47.1622 109.102 46.7257 110.046 46.2243C111.391 45.5046 112.229 44.0948 112.205 42.5671C112.17 39.6177 112.093 34.244 112.022 28.7051C111.833 28.941 111.639 29.1711 111.409 29.3834Z" fill="#EAA89B"/>
<path fill-rule="evenodd" clip-rule="evenodd" d="M114.216 24.0982C115.998 24.3577 117.101 26.9355 116.676 29.8553C116.251 32.7752 114.458 34.9282 112.671 34.6687C110.889 34.4091 109.786 31.8314 110.211 28.9115C110.642 25.9976 112.435 23.8386 114.216 24.0982Z" fill="#F1B8A9"/>
<path fill-rule="evenodd" clip-rule="evenodd" d="M112.459 28.3158C112.83 27.1302 113.562 26.3338 114.269 26.4341C115.137 26.5639 115.65 27.9855 115.408 29.6135C115.172 31.2416 114.275 32.4626 113.408 32.3328C112.989 32.2738 112.659 31.9081 112.447 31.3713C112.453 31.3713 112.453 31.3713 112.459 31.3713C112.948 31.4421 113.45 30.7815 113.579 29.9025C113.709 29.0177 113.414 28.245 112.925 28.1742C112.765 28.1506 112.606 28.2037 112.459 28.3158Z" fill="#CE6B5F"/>
<path fill-rule="evenodd" clip-rule="evenodd" d="M89.7601 36.9633C89.6893 36.7155 89.7424 36.456 89.8898 36.2495C90.0432 36.0431 90.2792 35.9192 90.5328 35.9074C92.8215 35.8012 98.5374 35.4237 103.858 34.1024C104.123 34.0375 104.401 34.1024 104.607 34.2735C104.814 34.4504 104.92 34.7159 104.896 34.9872C104.607 37.6357 103.339 43.8707 97.8177 44.5136C92.6799 45.1094 90.462 39.3582 89.7601 36.9633Z" fill="#F8ECEC"/>
<path fill-rule="evenodd" clip-rule="evenodd" d="M89.7895 36.9869C89.7129 36.7391 89.7541 36.4678 89.9075 36.2613C90.055 36.049 90.2968 35.9192 90.5564 35.9133C92.8569 35.8071 98.5314 35.4296 103.828 34.1201C104.094 34.0493 104.383 34.1201 104.589 34.303C104.796 34.4858 104.896 34.7631 104.861 35.0344C104.501 37.4942 103.097 42.8561 97.6997 43.4873C92.6681 44.0653 90.5033 39.1871 89.7895 36.9869Z" fill="#BC4A3B"/>
<path fill-rule="evenodd" clip-rule="evenodd" d="M94.5322 24.3754C94.5322 24.3754 94.4555 26.6523 94.2903 28.8466C94.2078 29.9261 94.1016 30.9702 93.9718 31.6957C93.8833 32.5982 94.544 33.4063 95.4465 33.4948C96.349 33.5833 97.1571 32.9226 97.2456 32.0201C97.2633 31.2061 97.2161 30.0441 97.1217 28.8466C96.9507 26.5992 96.6793 24.2869 96.6793 24.2869C96.6557 23.6912 96.1543 23.2311 95.5586 23.2547C94.9687 23.2782 94.5027 23.7796 94.5322 24.3754Z" fill="url(#paint2_linear)"/>
<path fill-rule="evenodd" clip-rule="evenodd" d="M103.351 25.2013C103.309 24.865 103.132 24.5583 102.867 24.346C102.596 24.1395 102.259 24.0451 101.917 24.0864C101.581 24.1277 101.274 24.3047 101.062 24.5701C100.856 24.8414 100.761 25.1777 100.802 25.5198C100.873 26.0684 100.95 26.6995 101.021 27.2481C101.062 27.5844 101.239 27.8911 101.504 28.1034C101.776 28.3099 102.112 28.4043 102.454 28.363C102.79 28.3217 103.097 28.1447 103.309 27.8793C103.516 27.6079 103.61 27.2717 103.569 26.9296C103.498 26.3869 103.422 25.7499 103.351 25.2013Z" fill="#9A5F00"/>
<path fill-rule="evenodd" clip-rule="evenodd" d="M90.6686 26.7526C90.6273 26.4164 90.4503 26.1096 90.1849 25.8973C89.9136 25.6908 89.5773 25.5965 89.2352 25.6377C88.899 25.679 88.5922 25.856 88.3799 26.1214C88.1734 26.3928 88.0791 26.729 88.1203 27.0711C88.1911 27.6197 88.2678 28.2509 88.3386 28.7995C88.3799 29.1357 88.5569 29.4424 88.8223 29.6548C89.0936 29.8612 89.4299 29.9556 89.772 29.9143C90.1082 29.873 90.4149 29.6961 90.6273 29.4306C90.8338 29.1593 90.9281 28.823 90.8868 28.4809C90.8161 27.9382 90.7394 27.3012 90.6686 26.7526Z" fill="#9A5F00"/>
<path fill-rule="evenodd" clip-rule="evenodd" d="M104.118 81.239C104.118 81.239 96.6147 83.9052 88.1973 93.0364L104.118 81.239Z" fill="#BCA3A3"/>
<path fill-rule="evenodd" clip-rule="evenodd" d="M103.563 79.6877C103.563 79.6877 99.8295 81.0798 94.6858 85.1735C92.4384 86.9667 89.9138 89.2731 87.3124 92.2224C86.8641 92.7061 86.8936 93.4671 87.3832 93.9154C87.8669 94.3637 88.6279 94.3342 89.0762 93.8446C91.6834 91.143 94.1903 89.0489 96.4142 87.4327C101.245 83.9288 104.672 82.7845 104.672 82.7845C105.528 82.4778 105.976 81.5399 105.675 80.6845C105.363 79.8292 104.419 79.3809 103.563 79.6877Z" fill="#F1B8A9"/>
<path fill-rule="evenodd" clip-rule="evenodd" d="M107.787 81.8879C107.787 81.8879 99.7822 87.5035 92.0254 96.6229L107.787 81.8879Z" fill="#BCA3A3"/>
<path fill-rule="evenodd" clip-rule="evenodd" d="M106.843 80.543C106.843 80.543 103.227 83.1856 98.5255 87.7807C96.2191 90.034 93.6532 92.7474 91.1168 95.856C90.6861 96.3574 90.751 97.1124 91.2524 97.5431C91.7538 97.9737 92.5088 97.9088 92.9395 97.4074C95.529 94.4875 98.1362 91.9511 100.466 89.857C105.162 85.6335 108.736 83.2446 108.736 83.2446C109.479 82.7255 109.662 81.6932 109.137 80.95C108.612 80.2008 107.586 80.018 106.843 80.543Z" fill="#F1B8A9"/>
<path fill-rule="evenodd" clip-rule="evenodd" d="M110.3 84.6249C110.3 84.6249 104.047 89.0194 96.2549 98.5812L110.3 84.6249Z" fill="#BCA3A3"/>
<path fill-rule="evenodd" clip-rule="evenodd" d="M109.35 83.2741C109.35 83.2741 106.312 85.4979 101.865 90.1933C99.9121 92.2519 97.6882 94.7884 95.3229 97.8262C94.9041 98.3394 94.9807 99.0944 95.4939 99.5073C96.0071 99.9261 96.7621 99.8494 97.1751 99.3363C99.6112 96.4813 101.888 94.11 103.882 92.1929C108.288 87.9458 111.243 85.9698 111.243 85.9698C111.987 85.4448 112.164 84.4184 111.645 83.6752C111.126 82.9319 110.093 82.755 109.35 83.2741Z" fill="#F1B8A9"/>
<path fill-rule="evenodd" clip-rule="evenodd" d="M112.7 87.9576C112.7 87.9576 108.318 90.0812 103.298 98.6225L112.7 87.9576Z" fill="#BCA3A3"/>
<path fill-rule="evenodd" clip-rule="evenodd" d="M111.987 86.4771C112.807 86.0819 113.792 86.424 114.187 87.2439C114.582 88.0638 114.24 89.0489 113.42 89.4441C113.42 89.4441 111.391 90.3761 108.483 93.6499C107.227 95.0656 105.811 96.8883 104.336 99.236C104 99.8082 103.268 99.9969 102.696 99.6607C102.13 99.3245 101.935 98.593 102.272 98.0209C104.053 94.7589 105.781 92.3817 107.256 90.6652C110.011 87.4445 111.987 86.4771 111.987 86.4771Z" fill="#F1B8A9"/>
<path fill-rule="evenodd" clip-rule="evenodd" d="M150.658 98.3158C149.632 92.7298 148.647 87.067 147.007 80.4663C146.093 76.8681 148.275 73.2109 151.868 72.2966C155.466 71.3823 159.123 73.5648 160.037 77.1571L167.069 109.535C167.765 112.19 166.803 115.003 164.633 116.684C162.462 118.366 159.501 118.59 157.1 117.251C151.974 114.254 145.35 110.573 138.855 106.716C125.152 98.5754 111.827 90.1697 111.827 90.1697C109.491 88.9015 108.618 85.9816 109.887 83.6398C111.155 81.3039 114.075 80.4309 116.416 81.6992C116.416 81.6992 130.768 88.2762 145.031 95.4373C146.925 96.3811 148.812 97.3485 150.658 98.3158Z" fill="#F1B8A9"/>
<path fill-rule="evenodd" clip-rule="evenodd" d="M147.426 47.6577C147.426 47.6577 162.645 68.2088 169.522 87.0906C169.694 87.5802 169.646 88.1169 169.381 88.5711C169.121 89.0194 168.673 89.3321 168.166 89.4206C163.347 90.2877 151.331 92.4466 146.93 93.2429C146.004 93.4081 145.114 92.8241 144.895 91.9098C143.279 84.796 137.587 56.4762 147.426 47.6577Z" fill="#E9F0FF"/>
<path fill-rule="evenodd" clip-rule="evenodd" d="M59.3642 51.5685C59.0693 50.7545 58.2965 50.2118 57.4294 50.2118C49.6962 50.2118 13.1242 50.2118 2.4357 50.2118C1.76325 50.2118 1.13209 50.5421 0.748669 51.0907C0.365252 51.6393 0.270873 52.3471 0.500923 52.9783C4.01656 62.6345 15.6665 94.6527 18.2148 101.643C18.5097 102.457 19.2824 102.999 20.1495 102.999C27.8828 102.999 64.4548 102.999 75.1432 102.999C75.8157 102.999 76.4469 102.669 76.8303 102.12C77.2137 101.572 77.3081 100.864 77.078 100.233C73.5624 90.5767 61.9065 58.5644 59.3642 51.5685Z" fill="#DC4513"/>
<path d="M56.8042 54.4176L73.5742 98.7936" stroke="white" stroke-width="2" stroke-miterlimit="10" stroke-linecap="round" stroke-linejoin="round"/>
<path fill-rule="evenodd" clip-rule="evenodd" d="M116.41 104.698C116.41 103.76 115.65 102.999 114.712 102.999C102.843 102.999 32.4776 102.999 20.6153 102.999C19.6774 102.999 18.9165 103.76 18.9165 104.698C18.9165 105.636 19.6774 106.397 20.6153 106.397C32.4835 106.397 102.849 106.397 114.712 106.397C115.65 106.397 116.41 105.636 116.41 104.698Z" fill="#DC4513"/>
<path fill-rule="evenodd" clip-rule="evenodd" d="M6.03369 152H133.21V106.397H14.6104C9.87375 106.397 6.03369 110.237 6.03369 114.974V152Z" fill="#E9F0FF"/>
<path fill-rule="evenodd" clip-rule="evenodd" d="M88.1025 152H163.718V114.974C163.718 110.237 159.878 106.397 155.141 106.397H96.1248C91.6949 106.397 88.1084 109.989 88.1084 114.413V152H88.1025Z" fill="#BBCCF3"/>
<path fill-rule="evenodd" clip-rule="evenodd" d="M108.884 92.594C108.884 92.594 115.449 92.3286 121.33 88.6596C121.961 88.2585 122.38 87.5978 122.474 86.8546C122.563 86.1114 122.321 85.3681 121.802 84.8254C118.54 81.4455 111.143 75.8122 101.416 80.7553C101.416 80.7553 106.229 87.0669 108.884 92.594Z" fill="#F2AC9E"/>
<path fill-rule="evenodd" clip-rule="evenodd" d="M85.6725 14.4538C97.2989 15.5215 107.48 5.47595 117.874 5.45826C117.862 5.37567 117.856 5.28719 117.844 5.21051C117.791 4.7858 117.649 4.40829 117.425 4.07206C106.985 4.00717 97.7472 14.1412 86.0736 13.0676C77.5618 12.289 74.0756 6.99782 73.3973 2.27295C73.2734 3.38191 73.2144 4.44957 73.2026 5.47595C74.4886 9.64634 78.2401 13.7695 85.6725 14.4538Z" fill="#EF9200"/>
<path d="M29.6405 78.095C28.7852 74.7799 30.254 72.0901 32.932 72.0901C35.5923 72.0901 38.4473 74.7858 39.3026 78.095C40.1638 81.4278 38.6891 84.0999 36.0288 84.0999C33.3508 84.0999 30.5017 81.4278 29.6405 78.095Z" fill="white"/>
<path fill-rule="evenodd" clip-rule="evenodd" d="M97.0333 39.2697C100.49 38.8981 101.97 36.2672 102.395 35.3293C98.2012 36.2142 93.9895 36.5799 91.6064 36.7214C92.2258 37.4942 94.1724 39.5764 97.0333 39.2697Z" fill="url(#paint3_linear)"/>
<defs>
<linearGradient id="paint0_linear" x1="8.99282" y1="75.9974" x2="160.998" y2="75.9974" gradientUnits="userSpaceOnUse">
<stop stop-color="#697FCF"/>
<stop offset="1" stop-color="#70C0C3"/>
</linearGradient>
<linearGradient id="paint1_linear" x1="106.854" y1="61.6973" x2="106.854" y2="21.0434" gradientUnits="userSpaceOnUse">
<stop stop-color="#F1B8A9"/>
<stop offset="0.0983" stop-color="#EDAEA0"/>
<stop offset="0.2642" stop-color="#E19487"/>
<stop offset="0.4446" stop-color="#D17065"/>
</linearGradient>
<linearGradient id="paint2_linear" x1="95.6049" y1="33.5004" x2="95.6049" y2="23.2506" gradientUnits="userSpaceOnUse">
<stop stop-color="#D17665"/>
<stop offset="0.2234" stop-color="#D57F6E"/>
<stop offset="0.5847" stop-color="#E09686"/>
<stop offset="1" stop-color="#F1B8A9"/>
</linearGradient>
<linearGradient id="paint3_linear" x1="97.1965" y1="38.943" x2="96.9198" y2="34.7932" gradientUnits="userSpaceOnUse">
<stop stop-color="white"/>
<stop offset="1" stop-color="white" stop-opacity="0"/>
</linearGradient>
</defs>
</svg>
